<?xml version="1.0" encoding="UTF-8"?>
<!DOCTYPE svg PUBLIC "-//W3C//DTD SVG 1.1//EN" "http://www.w3.org/Graphics/SVG/1.1/DTD/svg11.dtd">
<!-- Creator: CorelDRAW 2021 (64-Bit) -->
<svg xmlns="http://www.w3.org/2000/svg" xml:space="preserve" width="419.624mm" height="209.135mm" version="1.1" style="shape-rendering:geometricPrecision; text-rendering:geometricPrecision; image-rendering:optimizeQuality; fill-rule:evenodd; clip-rule:evenodd"
viewBox="0 0 15788.99 7869.03"
 xmlns:xlink="http://www.w3.org/1999/xlink"
 xmlns:xodm="http://www.corel.com/coreldraw/odm/2003">
 <defs>
  <style type="text/css">
   <![CDATA[
    .str0 {stroke:#FECC00;stroke-width:53.09;stroke-linecap:round;stroke-linejoin:round;stroke-miterlimit:22.9256}
    .fil0 {fill:none}
   ]]>
  </style>
 </defs>
 <g id="Plan_x0020_1">
  <metadata id="CorelCorpID_0Corel-Layer"/>
  <polygon class="fil0 str0" points="1423.51,542.56 1184.38,26.55 1977.27,479.64 "/>
  <polygon class="fil0 str0" points="1977.27,479.64 2770.09,1423.52 2631.68,869.76 "/>
  <polyline class="fil0 str0" points="2631.68,869.76 3223.18,1146.64 3638.46,1624.84 2719.33,1362.99 2757.5,1775.89 3638.46,1624.84 3802.1,2304.48 2757.5,1775.89 2543.6,2480.63 3802.1,2304.48 3135.1,3588.13 2543.6,2480.63 2405.13,3638.47 1612.31,3097.3 2543.6,2480.63 1599.73,1914.3 2757.5,1775.89 "/>
  <polygon class="fil0 str0" points="1322.85,2833 655.8,2128.26 1952.1,2405.14 "/>
  <polygon class="fil0 str0" points="894.93,869.76 26.55,957.84 1071.14,1410.93 "/>
  <polygon class="fil0 str0" points="1108.89,3386.75 517.39,3097.3 1612.31,3097.3 "/>
  <line class="fil0 str0" x1="1108.89" y1="3386.75" x2="3286.09" y2= "4532.01" />
  <polyline class="fil0 str0" points="3221.28,4497.86 2405.13,3638.47 1108.89,3386.75 "/>
  <polygon class="fil0 str0" points="4104.14,3751.71 3802.1,2304.48 4909.6,2833 "/>
  <polygon class="fil0 str0" points="3701.44,4355.79 3135.1,3588.13 4104.14,3751.71 "/>
  <polyline class="fil0 str0" points="3135.1,3588.13 3286.09,4532.01 4255.13,5287.14 4330.68,4657.83 3679.63,4838.63 3701.44,4355.79 4330.68,4657.83 4771.13,5425.55 5601.76,4808.89 4330.68,4657.83 "/>
  <polygon class="fil0 str0" points="4104.14,3751.71 4430,4669.62 5010.26,3411.92 "/>
  <line class="fil0 str0" x1="4255.13" y1="5287.14" x2="4771.13" y2= "5425.55" />
  <polyline class="fil0 str0" points="3223.18,1146.64 5211.64,2178.59 3802.1,2304.48 4217.44,1725.56 "/>
  <line class="fil0 str0" x1="4849.01" y1="2804.05" x2="5450.71" y2= "2216.34" />
  <line class="fil0 str0" x1="2365.68" y1="3630.8" x2="3135.1" y2= "3588.14" />
  <polyline class="fil0 str0" points="5450.71,2216.34 5622.46,2700.67 4909.6,2833.01 5010.26,3411.92 5622.46,2700.67 5779.14,2818.19 5010.26,3411.92 5906.44,3712.41 5601.76,4808.88 5010.26,3411.92 "/>
  <polyline class="fil0 str0" points="5601.76,4808.88 5520.47,5657.41 4771.14,5425.55 "/>
  <polyline class="fil0 str0" points="5520.47,5657.41 6299.79,5300.36 5601.76,4808.88 6756.76,4650.31 6299.79,5300.36 7052.82,5499.88 "/>
  <polyline class="fil0 str0" points="7004.76,5487.14 6463.66,5752.26 6299.79,5300.36 6259.37,5820.35 6461.74,5746.96 "/>
  <polyline class="fil0 str0" points="6295.64,5353.68 5884.83,5982.08 6259.37,5820.35 "/>
  <polyline class="fil0 str0" points="5889.91,5982.08 5612.44,5990.59 6299.79,5300.36 "/>
  <polygon class="fil0 str0" points="4827.19,5671.1 5520.47,5657.41 5612.44,5990.59 "/>
  <line class="fil0 str0" x1="4827.19" y1="5671.1" x2="4255.13" y2= "5287.14" />
  <polyline class="fil0 str0" points="6541.56,5714.08 6720.04,5850.04 7004.76,5487.14 6808.93,6049.86 6720.04,5850.04 "/>
  <polyline class="fil0 str0" points="7052.82,5499.88 7338.62,5844.29 6808.93,6049.86 "/>
  <polygon class="fil0 str0" points="6756.76,4650.31 7004.76,5487.14 7448.05,5097.59 "/>
  <polygon class="fil0 str0" points="6521.11,3932.5 6756.76,4650.31 7132.63,3906.74 "/>
  <polyline class="fil0 str0" points="6521.11,3932.5 5906.44,3712.41 6756.76,4650.31 "/>
  <polyline class="fil0 str0" points="5906.44,3712.41 6405.25,3314.54 6521.11,3932.5 "/>
  <line class="fil0 str0" x1="7132.63" y1="3906.74" x2="6405.25" y2= "3314.54" />
  <polyline class="fil0 str0" points="5906.44,3712.41 5779.14,2818.19 6405.25,3314.54 "/>
  <polyline class="fil0 str0" points="6030.38,3017.35 6311.93,3004.19 6405.25,3314.54 6704.28,2974.57 6311.93,3004.19 "/>
  <polyline class="fil0 str0" points="6704.28,2974.57 7015.21,3248.48 6405.25,3314.54 "/>
  <polygon class="fil0 str0" points="7866.54,3707.45 7015.21,3248.48 7132.63,3906.74 "/>
  <polyline class="fil0 str0" points="7015.21,3248.48 6948.96,2880.25 6704.28,2974.57 "/>
  <polyline class="fil0 str0" points="6948.96,2880.25 7116.9,2807.47 7015.21,3248.48 "/>
  <polyline class="fil0 str0" points="7116.9,2807.47 7318.42,2913.84 7015.21,3248.48 8309.22,3120.96 7318.42,2913.84 "/>
  <polyline class="fil0 str0" points="8309.22,3120.96 7866.54,3707.45 7536.72,4475.61 7132.63,3906.74 "/>
  <polyline class="fil0 str0" points="6756.76,4650.31 7536.71,4475.61 7448.05,5097.59 8320.41,4817.08 7536.72,4475.61 8437.96,4201.32 7866.54,3707.45 8729.04,3311.28 8309.22,3120.96 "/>
  <polyline class="fil0 str0" points="8729.04,3311.28 8824.21,4016.59 7866.54,3707.45 "/>
  <polyline class="fil0 str0" points="8824.21,4016.59 8437.96,4201.32 8320.41,4817.08 7774.16,5799.92 7448.05,5097.59 "/>
  <polyline class="fil0 str0" points="7004.76,5487.14 7774.16,5799.92 7338.62,5844.29 6927.92,6173.71 6808.93,6049.86 "/>
  <polyline class="fil0 str0" points="6927.92,6173.71 7186.14,6266.83 7338.62,5844.29 7393.55,6288 7186.14,6266.83 "/>
  <polyline class="fil0 str0" points="7338.62,5844.29 7677.16,6152.55 7393.55,6288 "/>
  <polyline class="fil0 str0" points="7774.16,5799.92 7677.16,6152.55 7605.2,6406.52 7393.55,6288 "/>
  <polyline class="fil0 str0" points="7605.2,6406.52 7876.12,6470.02 7677.16,6152.55 8091.99,6177.94 7876.12,6470.02 "/>
  <polyline class="fil0 str0" points="8091.99,6177.94 7774.16,5799.92 8544.92,5593.79 8320.41,4817.08 "/>
  <polyline class="fil0 str0" points="8437.96,4201.32 8867.74,5203.41 8320.41,4817.08 "/>
  <polyline class="fil0 str0" points="8867.74,5203.41 8544.92,5593.79 8867.74,6174.04 7774.16,5799.92 "/>
  <polygon class="fil0 str0" points="8603.8,6395.42 8091.99,6177.94 8867.74,6174.04 "/>
  <polyline class="fil0 str0" points="8091.99,6177.94 8450.53,6489.07 7876.12,6470.02 8161.05,6718.97 8450.53,6489.07 8603.8,6395.42 8978.43,6650.85 8450.53,6489.07 8578.25,6906.28 8161.05,6718.97 "/>
  <polygon class="fil0 str0" points="9097.62,6804.11 8578.25,6906.28 8978.43,6650.85 "/>
  <polygon class="fil0 str0" points="8816.66,7238.33 8578.25,6906.28 8995.46,7153.2 "/>
  <line class="fil0 str0" x1="8995.46" y1="7153.2" x2="9097.62" y2= "6804.11" />
  <polyline class="fil0 str0" points="8978.43,6650.85 9020.99,6369.88 8603.8,6395.42 "/>
  <line class="fil0 str0" x1="8867.74" y1="6174.04" x2="9020.99" y2= "6369.88" />
  <polyline class="fil0 str0" points="8816.66,7238.33 9284.95,7374.57 8995.46,7153.2 "/>
  <polyline class="fil0 str0" points="9097.62,6804.11 9284.95,7374.57 9506.32,7144.67 9523.34,7374.57 9284.95,7374.57 "/>
  <polygon class="fil0 str0" points="9523.34,7374.57 9755.82,7365.25 9738.88,7229.78 "/>
  <polyline class="fil0 str0" points="9755.82,7365.25 9946.31,7178.98 9738.88,7229.78 9506.32,7144.67 9201.25,7119.66 "/>
  <polyline class="fil0 str0" points="9227.54,7121.81 9417.15,6789.53 9506.32,7144.67 9679.61,6984.26 9417.15,6789.53 9097.62,6804.11 9336.72,6573.63 8978.43,6650.85 "/>
  <polyline class="fil0 str0" points="9020.99,6369.88 9336.72,6573.63 9417.15,6789.53 9705.02,6772.6 9679.61,6984.26 9738.88,7229.78 "/>
  <polygon class="fil0 str0" points="9959.01,6984.26 9679.61,6984.26 9980.17,7149.35 "/>
  <polygon class="fil0 str0" points="9813.06,6656.12 9336.72,6573.63 9705.02,6772.6 9959.01,6984.26 10324.24,7016.38 10392.4,6845.98 9959.01,6984.26 10090.56,6709.67 9705.02,6772.6 "/>
  <polyline class="fil0 str0" points="8867.74,6174.04 9176.75,6198.5 9336.72,6573.63 "/>
  <polyline class="fil0 str0" points="9176.75,6198.5 9282.42,5750.61 8867.74,6174.04 "/>
  <polyline class="fil0 str0" points="8867.74,5203.41 9292.16,5288.12 9316.49,4903.52 8867.74,5203.41 9282.42,5750.61 8544.92,5593.79 "/>
  <polyline class="fil0 str0" points="9292.16,5288.12 9282.42,5750.61 9642.68,6028.1 9176.75,6198.5 "/>
  <polyline class="fil0 str0" points="9176.75,6198.5 9598.86,6422.44 9642.68,6028.1 "/>
  <polyline class="fil0 str0" points="9336.72,6573.63 9598.86,6422.44 9813.06,6656.12 10090.56,6709.67 10129.5,6398.1 9813.06,6656.12 "/>
  <polyline class="fil0 str0" points="9642.68,6028.1 10129.5,6398.1 9598.86,6422.44 "/>
  <polyline class="fil0 str0" points="10129.5,6398.1 10392.4,6573.35 10090.56,6709.67 10392.4,6845.98 10392.4,6573.35 10635.81,6695.06 10392.4,6845.98 "/>
  <polyline class="fil0 str0" points="10324.24,7016.38 10538.44,6933.61 10635.81,6695.06 "/>
  <polyline class="fil0 str0" points="10538.44,6933.61 10858.31,6600.51 10635.81,6695.06 10768.74,6421.35 10392.4,6573.35 10522.4,6214.19 10129.5,6398.1 10057.71,6007.05 9642.68,6028.1 10029.71,5699.12 9682.59,5704.72 9642.68,6028.1 "/>
  <polyline class="fil0 str0" points="9282.42,5750.61 9682.59,5704.72 9292.16,5288.12 9688.19,5240.03 9682.59,5704.72 "/>
  <polyline class="fil0 str0" points="9688.19,5240.03 10029.71,5699.12 10057.71,6007.05 10522.4,6214.19 10768.74,6421.35 10858.31,6600.51 10908.7,6163.8 10768.74,6421.35 "/>
  <polyline class="fil0 str0" points="10522.4,6214.19 10908.7,6163.8 10578.38,6007.05 10715.55,6189 "/>
  <polyline class="fil0 str0" points="10057.71,6007.08 10578.38,6007.08 10029.71,5699.12 "/>
  <polyline class="fil0 str0" points="9688.19,5240.03 9316.49,4903.52 8437.96,4201.32 "/>
  <polyline class="fil0 str0" points="8437.96,4201.32 9150.13,4388.95 8824.21,4016.59 9238.99,3633.69 8729.04,3311.28 "/>
  <polyline class="fil0 str0" points="9316.49,4903.52 9964.63,4803.61 9661.05,4500.02 9316.49,4903.52 9150.13,4388.95 "/>
  <polygon class="fil0 str0" points="9688.19,5240.03 10001.65,5218.26 9964.63,4803.61 "/>
  <line class="fil0 str0" x1="10001.65" y1="5218.26" x2="10029.71" y2= "5699.12" />
  <polygon class="fil0 str0" points="9579.6,3944.68 9661.05,4500.02 9150.13,4388.95 "/>
  <polyline class="fil0 str0" points="8824.21,4016.59 9579.6,3944.68 9238.99,3633.69 "/>
  <polyline class="fil0 str0" points="7116.9,2807.47 7762.78,2702.82 8309.22,3120.96 8632.02,2928.18 8729.04,3311.28 "/>
  <polyline class="fil0 str0" points="8729.04,3311.28 9127.81,3308.07 8632.02,2928.18 7762.78,2702.82 "/>
  <polygon class="fil0 str0" points="9238.99,3633.69 9681.55,3584.94 9127.81,3308.07 "/>
  <polygon class="fil0 str0" points="9579.6,3944.68 10067.87,4003.46 9681.55,3584.94 "/>
  <polyline class="fil0 str0" points="9579.6,3944.68 9932.66,4228.82 10067.87,4003.46 "/>
  <polygon class="fil0 str0" points="9932.66,4228.82 10209.52,4434.86 9661.05,4500.02 "/>
  <polyline class="fil0 str0" points="10067.87,4003.46 10209.52,4434.86 9964.63,4803.61 10383.37,4557.2 10209.52,4434.86 "/>
  <polyline class="fil0 str0" points="10383.37,4557.2 10634.49,5226.83 9964.63,4803.61 "/>
  <polyline class="fil0 str0" points="10029.71,5699.12 10634.49,5226.83 10001.65,5218.26 "/>
  <polyline class="fil0 str0" points="10029.71,5699.12 10801.89,5709.75 10634.49,5226.83 "/>
  <polyline class="fil0 str0" points="10801.89,5709.75 11448.66,6274.03 10908.7,6163.8 10801.89,5709.75 10578.38,6007.05 "/>
  <polyline class="fil0 str0" points="11271.02,6119.04 11656.12,6142.78 11448.66,6274.03 "/>
  <polyline class="fil0 str0" points="11271.02,6119.04 11791.6,5939.56 11656.12,6142.78 "/>
  <polyline class="fil0 str0" points="11791.6,5939.56 11770.43,5473.84 11635.94,5993.22 "/>
  <polyline class="fil0 str0" points="11694.23,5664.36 11499.47,5753.28 11635.94,5993.22 "/>
  <line class="fil0 str0" x1="11499.47" y1="5753.28" x2="11271.02" y2= "6119.04" />
  <polygon class="fil0 str0" points="10801.89,5709.75 11232.74,5753.28 11093.03,5329.9 "/>
  <polyline class="fil0 str0" points="11271.02,6119.04 11232.74,5753.28 11499.47,5753.28 "/>
  <polyline class="fil0 str0" points="11093.03,5329.9 11389.4,5194.41 11770.43,5473.84 "/>
  <polyline class="fil0 str0" points="11656.27,5390.11 11499.47,5753.28 11389.4,5194.41 11232.74,5753.28 "/>
  <line class="fil0 str0" x1="10634.49" y1="5226.83" x2="11093.03" y2= "5329.9" />
  <line class="fil0 str0" x1="11389.4" y1="5194.41" x2="10383.37" y2= "4557.2" />
  <polyline class="fil0 str0" points="10634.49,5226.83 10951.57,4917.08 11093.03,5329.9 "/>
  <polygon class="fil0 str0" points="14573.96,1598.99 14900.59,1159.71 14100.89,1463.82 "/>
  <polygon class="fil0 str0" points="15762.44,2283.88 14383.45,2844.89 14109.43,1970.98 "/>
  <polygon class="fil0 str0" points="15558.03,3288.88 14212.35,3765.84 14365.65,3280.37 "/>
  <polygon class="fil0 str0" points="14118.65,3944.7 14016.45,4285.38 15200.32,3859.52 "/>
  <polyline class="fil0 str0" points="14016.45,4285.4 13462.83,4447.21 14118.65,3944.71 13241.4,4021.35 13633.18,3399.61 14118.65,3944.7 "/>
  <polygon class="fil0 str0" points="13658.73,2019.84 13633.18,3399.61 14383.45,2844.89 "/>
  <polyline class="fil0 str0" points="13633.18,3399.61 13011.44,2897.1 13658.73,2019.84 14100.89,1463.82 13582.08,1645.1 13658.73,2019.84 "/>
  <polyline class="fil0 str0" points="13582.08,1645.1 12943.3,2113.53 13658.73,2019.84 "/>
  <polyline class="fil0 str0" points="12943.3,2113.53 13011.44,2897.1 12406.72,3450.71 13633.18,3399.61 "/>
  <polyline class="fil0 str0" points="13241.4,4021.35 12457.83,4830.47 13462.83,4447.21 13261.55,3989.37 12406.72,3450.71 "/>
  <polyline class="fil0 str0" points="12457.83,4830.47 12031.98,4549.41 12849.62,4425.91 12355.63,4012.84 13274.35,4018.46 "/>
  <polyline class="fil0 str0" points="11410.24,3697.7 12406.72,3450.71 12355.63,4012.84 12031.98,4549.41 11410.24,3697.7 12355.63,4012.84 "/>
  <polyline class="fil0 str0" points="12406.72,3450.71 12381.17,2675.65 13011.44,2897.1 "/>
  <line class="fil0 str0" x1="12943.3" y1="2113.53" x2="12381.17" y2= "2675.65" />
  <polyline class="fil0 str0" points="12031.98,2275.35 12943.3,2113.53 11921.26,2505.32 12031.98,2275.35 13582.08,1645.1 "/>
  <polyline class="fil0 str0" points="11921.26,2505.32 12381.17,2675.65 11674.26,3288.88 12406.72,3450.71 "/>
  <polyline class="fil0 str0" points="11410.24,3697.7 11674.26,3288.88 11359.13,2726.76 11733.87,2709.73 11674.26,3288.88 "/>
  <polyline class="fil0 str0" points="12381.17,2675.65 11733.87,2709.73 11921.26,2505.32 11665.75,2377.56 12031.98,2275.35 "/>
  <polygon class="fil0 str0" points="11120.66,2650.11 11359.13,2726.76 11665.75,2377.56 "/>
  <polygon class="fil0 str0" points="11154.73,3169.64 11410.24,3697.7 11359.13,2726.76 "/>
  <polyline class="fil0 str0" points="10679.41,2921.9 11154.73,3169.64 11120.66,2650.11 10743.8,2664.29 10679.41,2921.9 11120.66,2650.11 "/>
  <polyline class="fil0 str0" points="10679.41,2921.9 10370.28,3469.32 11154.73,3169.64 "/>
  <polyline class="fil0 str0" points="10370.28,3469.32 11220.38,3829.97 11154.73,3169.64 "/>
  <polygon class="fil0 str0" points="11619.67,4287.22 11410.24,3697.7 11220.38,3829.97 "/>
  <polygon class="fil0 str0" points="12457.83,4830.47 11619.67,4287.22 12213.45,5002.83 "/>
  <polyline class="fil0 str0" points="11619.67,4287.22 11585.21,4691.15 12213.45,5002.83 11779.55,5099.64 12076.38,5183.65 12236.43,4986.61 "/>
  <polyline class="fil0 str0" points="12076.38,5183.65 11770.43,5473.84 11779.55,5099.64 11389.4,5194.41 "/>
  <polyline class="fil0 str0" points="11779.55,5099.64 11585.21,4691.15 11389.4,5194.41 "/>
  <polyline class="fil0 str0" points="11171.98,5056.69 11585.21,4691.15 10886.38,4875.8 11085.05,4433.15 11585.21,4691.15 "/>
  <polyline class="fil0 str0" points="11617.26,4315.54 11085.05,4433.15 11220.38,3829.97 10889.02,4265.13 11085.05,4433.15 10383.37,4557.2 10067.87,4003.46 10653.8,3889.88 10278.17,4372.54 "/>
  <polyline class="fil0 str0" points="10701.68,4500.92 10653.8,3889.88 10889.02,4265.13 "/>
  <polyline class="fil0 str0" points="11220.38,3829.97 10653.8,3889.88 10370.28,3469.32 10067.87,4003.46 "/>
  <polygon class="fil0 str0" points="9543.39,3151.61 9681.55,3584.94 10370.28,3469.32 "/>
  <polygon class="fil0 str0" points="9173.73,3005.99 9543.39,3151.61 9127.81,3308.07 "/>
  <polygon class="fil0 str0" points="9543.39,3151.61 10181.9,3039.6 9633.01,2653.13 "/>
  <polyline class="fil0 str0" points="10370.28,3469.32 10181.9,3039.6 10679.41,2921.9 "/>
  <polyline class="fil0 str0" points="10181.9,3039.6 10394.73,2664.34 10679.41,2921.9 "/>
  <polygon class="fil0 str0" points="10574.26,2521 10743.8,2664.29 10394.73,2664.34 "/>
  <polyline class="fil0 str0" points="9633.01,2653.13 10386.07,2679.62 10191.27,2443.67 10574.26,2521 "/>
  <polyline class="fil0 str0" points="10191.27,2443.67 9756.71,2384.75 10386.07,2679.62 "/>
  <polyline class="fil0 str0" points="9756.71,2384.75 9633.01,2653.13 9173.73,3005.99 9219.02,2557.83 9653.58,2653.84 "/>
  <polyline class="fil0 str0" points="9634.62,2649.65 9230.07,2056.99 9756.71,2384.75 "/>
  <polygon class="fil0 str0" points="8997.75,1909.35 9219.02,2557.83 9230.07,2056.99 "/>
  <polygon class="fil0 str0" points="8802.92,2250.28 9219.02,2557.83 8846.76,2800.66 9173.73,3005.99 8632.02,2928.18 8846.76,2800.66 "/>
  <polyline class="fil0 str0" points="8997.75,1909.35 8759.1,2040.85 8851.63,1802.18 8997.75,1909.35 8802.92,2250.28 8759.1,2040.85 8593.49,1914.21 8851.63,1802.18 "/>
  <polyline class="fil0 str0" points="8593.49,1914.21 8496.07,2157.74 8759.1,2040.85 "/>
  <polygon class="fil0 str0" points="8496.07,2157.74 8310.99,2396.41 8802.92,2250.28 "/>
  <polygon class="fil0 str0" points="8310.99,2396.41 8035.2,2773.45 8846.76,2800.66 "/>
  <polyline class="fil0 str0" points="8035.2,2773.45 7838.55,2406.14 8310.99,2396.41 8062.59,2026.23 8496.07,2157.74 "/>
  <polygon class="fil0 str0" points="7872.64,1860.64 8062.59,2026.23 8593.49,1914.21 "/>
  <polyline class="fil0 str0" points="8062.59,2026.23 7838.55,2406.14 7512.22,2552.25 7762.78,2702.82 "/>
  <polygon class="fil0 str0" points="7219.97,2562 7512.22,2552.25 7116.9,2807.47 "/>
  <polyline class="fil0 str0" points="7219.97,2562 7244.34,2347.7 7512.22,2552.25 "/>
  <polygon class="fil0 str0" points="7838.55,2406.14 7244.34,2347.7 7614.5,2230.8 "/>
  <polyline class="fil0 str0" points="7244.34,2347.7 7239.46,1880.11 7636.04,2247.65 7794.71,1933.69 7838.55,2406.14 "/>
  <polyline class="fil0 str0" points="7794.71,1933.69 7872.64,1860.64 7239.46,1880.11 7400.2,1763.22 7896.49,1862.41 "/>
  <polyline class="fil0 str0" points="7400.2,1763.22 7107.95,1690.16 7243.79,1876.96 6869.3,1914.21 7107.95,1690.16 6820.59,1792.45 6869.3,1914.21 "/>
  <polyline class="fil0 str0" points="6820.59,1792.45 6606.28,2084.69 6869.3,1914.21 7078.73,2070.07 7247.7,1887.74 "/>
  <polygon class="fil0 str0" points="6942.36,2381.79 7078.73,2070.07 7244.34,2347.7 "/>
  <polyline class="fil0 str0" points="7078.73,2070.07 6742.66,2191.83 6869.3,1914.21 "/>
  <polyline class="fil0 str0" points="6606.28,2084.69 6742.66,2191.83 6942.36,2381.79 7219.97,2562 6869.3,2717.86 6942.36,2381.79 "/>
  <polyline class="fil0 str0" points="7116.9,2807.47 6869.3,2717.86 6948.96,2880.25 "/>
  <polyline class="fil0 str0" points="6704.28,2974.57 6869.3,2717.86 6030.38,3017.35 "/>
  <polyline class="fil0 str0" points="6449.84,2867.61 6279.95,2654.55 6586.8,2479.2 6869.3,2717.86 "/>
  <polyline class="fil0 str0" points="6942.36,2381.79 6586.8,2479.2 6586.8,2289.24 6742.66,2191.83 "/>
  <polygon class="fil0 str0" points="6118.84,2144.82 6586.8,2289.24 6606.28,2084.69 "/>
  <polyline class="fil0 str0" points="6586.8,2289.24 6419.55,2386.23 6586.8,2479.2 "/>
  <polyline class="fil0 str0" points="6419.55,2386.23 6279.95,2654.55 6030.38,3017.35 "/>
  <polyline class="fil0 str0" points="6279.95,2654.55 5847.77,2623.41 5873.19,2339.64 6063.86,2497.09 6419.55,2386.23 6068.02,2127.88 5873.19,2339.64 5450.71,2216.34 6068.02,2127.88 "/>
  <polyline class="fil0 str0" points="5873.19,2339.64 5622.46,2700.67 5847.77,2623.41 5794.77,2830.58 "/>
  <line class="fil0 str0" x1="5847.77" y1="2623.41" x2="6063.86" y2= "2497.09" />
  <line class="fil0 str0" x1="5873.19" y1="2339.64" x2="6419.55" y2= "2386.23" />
  <line class="fil0 str0" x1="5847.77" y1="2623.41" x2="6030.38" y2= "3017.35" />
  <polygon class="fil0 str0" points="4168.09,5691.54 4255.13,5287.14 4002.33,5529.48 "/>
  <polyline class="fil0 str0" points="4002.33,5529.48 3924.99,5713.64 4168.09,5691.54 4087.05,5982.52 3924.99,5713.64 "/>
  <polyline class="fil0 str0" points="4255.13,5287.14 4484.86,5577.35 4168.09,5691.54 "/>
  <polyline class="fil0 str0" points="4484.86,5577.35 4731.65,5779.94 4827.19,5671.1 "/>
  <polyline class="fil0 str0" points="4731.65,5779.94 4536.42,5942.01 4168.09,5691.54 "/>
  <polygon class="fil0 str0" points="4308.05,6056.19 4536.42,5942.01 4087.05,5982.52 "/>
  <polyline class="fil0 str0" points="5612.44,5990.59 5571.45,6163.01 4731.65,5779.94 "/>
  <polyline class="fil0 str0" points="5884.83,5982.08 5571.45,6163.01 4827.19,5671.1 "/>
  <polyline class="fil0 str0" points="5571.45,6163.01 5534.62,6402.43 5596.69,6702.29 5843.32,6952.13 6060.69,6955.82 6528.38,6741.46 6650.17,6824.28 6513.76,6980.17 6465.04,7287.09 6786.58,7506.33 7132.48,7525.82 7205.55,7710.94 7390.67,7842.48 7717.08,7793.76 8028.88,7540.43 8209.13,7657.35 8628.1,7637.86 8898.99,7475.58 9050.8,7306.45 8631.05,7402.5 "/>
  <polyline class="fil0 str0" points="8898.99,7475.58 8659.88,7395.9 8628.1,7637.86 "/>
  <polyline class="fil0 str0" points="8209.13,7657.35 8631.05,7402.5 8028.88,7540.43 8187.71,7173.52 8631.05,7402.5 8499.5,7115.06 8816.66,7238.33 "/>
  <polyline class="fil0 str0" points="8578.25,6906.28 8499.5,7115.06 8208.93,7184.47 "/>
  <polyline class="fil0 str0" points="8543.07,6890.48 8387.45,6964.03 8499.5,7115.06 "/>
  <polyline class="fil0 str0" points="8187.71,7173.52 8387.45,6964.03 8161.05,6718.97 "/>
  <polyline class="fil0 str0" points="7845.12,6462.75 7568.98,6686.34 7456.94,6881.21 7213.34,7207.62 7132.48,7525.82 7305.9,7363.52 7213.34,7207.62 "/>
  <polygon class="fil0 str0" points="7466.68,7509.67 7205.55,7710.94 7305.9,7363.52 "/>
  <line class="fil0 str0" x1="7466.68" y1="7509.67" x2="7390.67" y2= "7842.48" />
  <polyline class="fil0 str0" points="7305.9,7363.52 7476.42,7231.98 7817.45,7514.54 7675.86,7799.91 "/>
  <polyline class="fil0 str0" points="7476.42,7231.98 7466.68,7509.67 7817.45,7514.54 "/>
  <line class="fil0 str0" x1="7466.68" y1="7509.67" x2="7675.86" y2= "7799.91" />
  <polyline class="fil0 str0" points="7476.42,7231.98 7646.94,6944.54 7568.98,6686.34 "/>
  <polyline class="fil0 str0" points="7213.34,7207.62 7476.42,7231.98 7425.47,6923.37 7646.94,6944.54 7876.12,6470.02 "/>
  <line class="fil0 str0" x1="7646.94" y1="6944.54" x2="8161.05" y2= "6718.97" />
  <polyline class="fil0 str0" points="8187.71,7173.52 7806.81,7535.99 8028.88,7540.43 "/>
  <polyline class="fil0 str0" points="7948.99,7041.98 7817.45,7514.54 7646.94,6944.54 7948.99,7041.98 7934.58,6818.34 8387.45,6964.03 7948.99,7041.98 8187.71,7173.52 "/>
  <polyline class="fil0 str0" points="6650.17,6824.28 7186.14,6266.83 7325.39,6481.73 7393.55,6288 "/>
  <polyline class="fil0 str0" points="7605.2,6406.52 7325.39,6481.73 7568.98,6686.34 "/>
  <line class="fil0 str0" x1="7350.18" y1="6502.55" x2="7845.12" y2= "6462.75" />
  <polyline class="fil0 str0" points="7325.39,6481.73 7213.34,6749.67 7160.93,6293.05 "/>
  <polyline class="fil0 str0" points="6650.17,6824.28 6932.36,6824.28 7165.12,6329.5 "/>
  <polyline class="fil0 str0" points="6932.36,6824.28 6599.49,7066.34 6513.76,6980.17 "/>
  <polyline class="fil0 str0" points="6465.04,7287.09 6599.49,7066.34 6786.58,7506.33 "/>
  <polyline class="fil0 str0" points="6932.36,6824.28 6906.41,7037.11 6599.49,7066.34 "/>
  <polygon class="fil0 str0" points="6786.58,7506.33 7213.34,7207.62 6906.41,7037.11 "/>
  <polyline class="fil0 str0" points="6932.36,6824.28 7213.34,6749.67 6906.41,7037.11 "/>
  <polyline class="fil0 str0" points="7188.52,7193.83 7213.34,6749.67 7425.47,6923.37 "/>
  <line class="fil0 str0" x1="7213.34" y1="6749.67" x2="7568.98" y2= "6686.34" />
  <polygon class="fil0 str0" points="6528.38,6741.46 6808.93,6049.86 6826.65,6640.73 "/>
  <line class="fil0 str0" x1="6927.92" y1="6173.71" x2="6826.65" y2= "6640.73" />
  <polyline class="fil0 str0" points="6541.56,5714.08 6555.64,5921.46 6720.04,5850.04 "/>
  <polygon class="fil0 str0" points="6000.25,6057.87 6259.37,5820.35 6555.64,5921.46 6736.06,6229.5 6404.61,6486.6 6141.53,6471.98 5995.38,6345.3 "/>
  <polyline class="fil0 str0" points="6000.25,6057.87 6282.82,6204.02 6259.37,5820.35 "/>
  <polyline class="fil0 str0" points="5995.38,6345.3 6282.82,6204.02 6141.53,6471.98 "/>
  <polyline class="fil0 str0" points="6404.61,6486.6 6282.82,6204.02 6736.06,6229.5 "/>
  <line class="fil0 str0" x1="6555.64" y1="5921.46" x2="6282.82" y2= "6204.02" />
  <polyline class="fil0 str0" points="5534.62,6402.43 6000.25,6057.87 5571.45,6163.01 "/>
  <polygon class="fil0 str0" points="5849.23,6423.26 5596.69,6702.29 5712.03,6271.16 "/>
  <polyline class="fil0 str0" points="6141.53,6471.98 6053.84,6569.41 5849.23,6423.26 5995.38,6345.3 "/>
  <polyline class="fil0 str0" points="6404.61,6486.6 6348.85,6823.75 6053.84,6569.41 6060.69,6955.82 "/>
  <polyline class="fil0 str0" points="5596.69,6702.29 6053.84,6569.41 5843.32,6952.13 "/>
 </g>
</svg>
