<?xml version="1.0" encoding="UTF-8"?>
<!DOCTYPE svg PUBLIC "-//W3C//DTD SVG 1.1//EN" "http://www.w3.org/Graphics/SVG/1.1/DTD/svg11.dtd">
<!-- Creator: CorelDRAW 2021 (64-Bit) -->
<svg xmlns="http://www.w3.org/2000/svg" xml:space="preserve" width="117.822mm" height="117.822mm" version="1.1" style="shape-rendering:geometricPrecision; text-rendering:geometricPrecision; image-rendering:optimizeQuality; fill-rule:evenodd; clip-rule:evenodd"
viewBox="0 0 946.9 946.9"
 xmlns:xlink="http://www.w3.org/1999/xlink"
 xmlns:xodm="http://www.corel.com/coreldraw/odm/2003">
 <defs>
  <style type="text/css">
   <![CDATA[
    .str0 {stroke:#9D9E9E;stroke-width:22.68;stroke-miterlimit:22.9256}
    .str2 {stroke:#57A7B3;stroke-width:22.68;stroke-miterlimit:22.9256}
    .str1 {stroke:#5CA595;stroke-width:22.68;stroke-miterlimit:22.9256}
    .str3 {stroke:#61A375;stroke-width:22.68;stroke-miterlimit:22.9256}
    .str4 {stroke:#008DD2;stroke-width:22.68;stroke-miterlimit:22.9256}
    .str7 {stroke:#00A0E3;stroke-width:11.34;stroke-linecap:round;stroke-linejoin:round;stroke-miterlimit:22.9256}
    .str5 {stroke:#B0CB1F;stroke-width:45.36;stroke-linecap:round;stroke-linejoin:round;stroke-miterlimit:22.9256}
    .str6 {stroke:#FEFEFE;stroke-width:28.35;stroke-linecap:round;stroke-linejoin:round;stroke-miterlimit:22.9256}
    .fil0 {fill:none}
   ]]>
  </style>
 </defs>
 <g id="Plan_x0020_1">
  <metadata id="CorelCorpID_0Corel-Layer"/>
  <circle class="fil0 str0" cx="473.45" cy="473.45" r="462.11"/>
  <circle class="fil0 str1" cx="473.45" cy="473.45" r="462.11"/>
  <circle class="fil0 str2" cx="473.45" cy="473.45" r="401.84"/>
  <circle class="fil0 str3" cx="473.45" cy="473.45" r="341.56"/>
  <circle class="fil0 str4" cx="473.45" cy="473.45" r="281.29"/>
  <line class="fil0 str5" x1="262.98" y1="395.17" x2="396.24" y2= "395.17" />
  <line class="fil0 str5" x1="329.61" y1="555.64" x2="329.61" y2= "398.23" />
  <line class="fil0 str5" x1="426.83" y1="394.57" x2="494.47" y2= "555.48" />
  <line class="fil0 str5" x1="562.11" y1="394.57" x2="494.47" y2= "555.48" />
  <line class="fil0 str5" x1="553.69" y1="555.48" x2="621.33" y2= "394.57" />
  <line class="fil0 str5" x1="688.97" y1="555.48" x2="621.33" y2= "394.57" />
  <line class="fil0 str5" x1="572.75" y1="512.12" x2="671.21" y2= "512.12" />
  <line class="fil0 str6" x1="262.98" y1="395.17" x2="396.24" y2= "395.17" />
  <line class="fil0 str6" x1="329.61" y1="555.64" x2="329.61" y2= "398.23" />
  <line class="fil0 str6" x1="426.83" y1="394.57" x2="494.47" y2= "555.48" />
  <line class="fil0 str6" x1="562.11" y1="394.57" x2="494.47" y2= "555.48" />
  <line class="fil0 str6" x1="553.69" y1="555.48" x2="621.33" y2= "394.57" />
  <line class="fil0 str6" x1="688.97" y1="555.48" x2="621.33" y2= "394.57" />
  <line class="fil0 str6" x1="572.75" y1="512.12" x2="671.21" y2= "512.12" />
  <line class="fil0 str7" x1="262.98" y1="395.17" x2="396.24" y2= "395.17" />
  <line class="fil0 str7" x1="329.61" y1="555.64" x2="329.61" y2= "398.23" />
  <line class="fil0 str7" x1="426.83" y1="394.57" x2="494.47" y2= "555.48" />
  <line class="fil0 str7" x1="562.11" y1="394.57" x2="494.47" y2= "555.48" />
  <line class="fil0 str7" x1="553.69" y1="555.48" x2="621.33" y2= "394.57" />
  <line class="fil0 str7" x1="688.97" y1="555.48" x2="621.33" y2= "394.57" />
  <line class="fil0 str7" x1="572.75" y1="512.12" x2="671.21" y2= "512.12" />
 </g>
</svg>
