<?xml version="1.0" encoding="UTF-8"?>
<!DOCTYPE svg PUBLIC "-//W3C//DTD SVG 1.1//EN" "http://www.w3.org/Graphics/SVG/1.1/DTD/svg11.dtd">
<!-- Creator: CorelDRAW 2021 (64-Bit) -->
<svg xmlns="http://www.w3.org/2000/svg" xml:space="preserve" width="154.517mm" height="154.517mm" version="1.1" style="shape-rendering:geometricPrecision; text-rendering:geometricPrecision; image-rendering:optimizeQuality; fill-rule:evenodd; clip-rule:evenodd"
viewBox="0 0 885.09 885.09"
 xmlns:xlink="http://www.w3.org/1999/xlink"
 xmlns:xodm="http://www.corel.com/coreldraw/odm/2003">
 <defs>
  <style type="text/css">
   <![CDATA[
    .str0 {stroke:#D6E9D8;stroke-width:16.17;stroke-miterlimit:22.9256}
    .str5 {stroke:#B8C8BA;stroke-width:16.17;stroke-miterlimit:22.9256}
    .str1 {stroke:#A8D4AF;stroke-width:16.17;stroke-miterlimit:22.9256}
    .str3 {stroke:#66C3D0;stroke-width:16.17;stroke-miterlimit:22.9256}
    .str4 {stroke:#57A7B3;stroke-width:16.17;stroke-miterlimit:22.9256}
    .str6 {stroke:#5CA595;stroke-width:16.17;stroke-miterlimit:22.9256}
    .str2 {stroke:#61A375;stroke-width:16.17;stroke-miterlimit:22.9256}
    .str9 {stroke:#00A0E3;stroke-width:8.08;stroke-linecap:round;stroke-linejoin:round;stroke-miterlimit:22.9256}
    .str7 {stroke:#B0CB1F;stroke-width:32.33;stroke-linecap:round;stroke-linejoin:round;stroke-miterlimit:22.9256}
    .str8 {stroke:#FEFEFE;stroke-width:20.21;stroke-linecap:round;stroke-linejoin:round;stroke-miterlimit:22.9256}
    .fil0 {fill:none}
   ]]>
  </style>
 </defs>
 <g id="Plan_x0020_1">
  <metadata id="CorelCorpID_0Corel-Layer"/>
  <ellipse class="fil0 str0" cx="442.54" cy="442.54" rx="434.46" ry="200.48"/>
  <circle class="fil0 str1" transform="matrix(1.87333 -1.08157 0.499093 0.864455 442.544 442.544)" r="200.85"/>
  <circle class="fil0 str2" transform="matrix(1.08157 -1.87333 0.864455 0.499093 442.544 442.544)" r="200.85"/>
  <circle class="fil0 str3" transform="matrix(5.72875E-14 -2.16313 0.998186 2.64233E-14 442.544 442.544)" r="200.85"/>
  <circle class="fil0 str4" transform="matrix(-1.08157 -1.87333 0.864455 -0.499093 442.544 442.544)" r="200.85"/>
  <circle class="fil0 str5" transform="matrix(-1.87333 -1.08157 0.499093 -0.864455 442.544 442.544)" r="200.85"/>
  <circle class="fil0 str6" cx="442.54" cy="442.54" r="329.37"/>
  <circle class="fil0 str4" cx="442.54" cy="442.54" r="286.41"/>
  <circle class="fil0 str2" cx="442.54" cy="442.54" r="243.44"/>
  <circle class="fil0 str4" cx="442.54" cy="442.54" r="200.06"/>
  <line class="fil0 str7" x1="292.53" y1="386.75" x2="387.51" y2= "386.75" />
  <line class="fil0 str7" x1="340.02" y1="501.12" x2="340.02" y2= "388.93" />
  <line class="fil0 str7" x1="409.32" y1="386.32" x2="457.52" y2= "501.01" />
  <line class="fil0 str7" x1="505.73" y1="386.32" x2="457.52" y2= "501.01" />
  <line class="fil0 str7" x1="499.73" y1="501.01" x2="547.94" y2= "386.32" />
  <line class="fil0 str7" x1="596.15" y1="501.01" x2="547.94" y2= "386.32" />
  <line class="fil0 str7" x1="513.32" y1="470.1" x2="583.49" y2= "470.1" />
  <line class="fil0 str8" x1="292.53" y1="386.75" x2="387.51" y2= "386.75" />
  <line class="fil0 str8" x1="340.02" y1="501.12" x2="340.02" y2= "388.93" />
  <line class="fil0 str8" x1="409.32" y1="386.32" x2="457.52" y2= "501.01" />
  <line class="fil0 str8" x1="505.73" y1="386.32" x2="457.52" y2= "501.01" />
  <line class="fil0 str8" x1="499.73" y1="501.01" x2="547.94" y2= "386.32" />
  <line class="fil0 str8" x1="596.15" y1="501.01" x2="547.94" y2= "386.32" />
  <line class="fil0 str8" x1="513.32" y1="470.1" x2="583.49" y2= "470.1" />
  <line class="fil0 str9" x1="292.53" y1="386.75" x2="387.51" y2= "386.75" />
  <line class="fil0 str9" x1="340.02" y1="501.12" x2="340.02" y2= "388.93" />
  <line class="fil0 str9" x1="409.32" y1="386.32" x2="457.52" y2= "501.01" />
  <line class="fil0 str9" x1="505.73" y1="386.32" x2="457.52" y2= "501.01" />
  <line class="fil0 str9" x1="499.73" y1="501.01" x2="547.94" y2= "386.32" />
  <line class="fil0 str9" x1="596.15" y1="501.01" x2="547.94" y2= "386.32" />
  <line class="fil0 str9" x1="513.32" y1="470.1" x2="583.49" y2= "470.1" />
 </g>
</svg>
