<?xml version="1.0" encoding="UTF-8"?>
<!DOCTYPE svg PUBLIC "-//W3C//DTD SVG 1.1//EN" "http://www.w3.org/Graphics/SVG/1.1/DTD/svg11.dtd">
<!-- Creator: CorelDRAW 2021 (64-Bit) -->
<svg xmlns="http://www.w3.org/2000/svg" xml:space="preserve" width="117.822mm" height="117.822mm" version="1.1" style="shape-rendering:geometricPrecision; text-rendering:geometricPrecision; image-rendering:optimizeQuality; fill-rule:evenodd; clip-rule:evenodd"
viewBox="0 0 435.26 435.26"
 xmlns:xlink="http://www.w3.org/1999/xlink"
 xmlns:xodm="http://www.corel.com/coreldraw/odm/2003">
 <defs>
  <style type="text/css">
   <![CDATA[
    .str3 {stroke:#FEFEFE;stroke-width:5.21;stroke-linecap:round;stroke-linejoin:round;stroke-miterlimit:22.9256}
    .str0 {stroke:#FEFEFE;stroke-width:10.43;stroke-linecap:round;stroke-linejoin:round;stroke-miterlimit:22.9256}
    .str1 {stroke:#FEFEFE;stroke-width:20.85;stroke-linecap:round;stroke-linejoin:round;stroke-miterlimit:22.9256}
    .str2 {stroke:#1C1B17;stroke-width:13.03;stroke-linecap:round;stroke-linejoin:round;stroke-miterlimit:22.9256}
    .fil0 {fill:none}
   ]]>
  </style>
 </defs>
 <g id="Plan_x0020_1">
  <metadata id="CorelCorpID_0Corel-Layer"/>
  <circle class="fil0 str0" cx="217.63" cy="217.63" r="212.42"/>
  <circle class="fil0 str0" cx="217.63" cy="217.63" r="184.71"/>
  <circle class="fil0 str0" cx="217.63" cy="217.63" r="157"/>
  <circle class="fil0 str0" cx="217.63" cy="217.63" r="129.02"/>
  <line class="fil0 str1" x1="120.88" y1="181.65" x2="182.14" y2= "181.65" />
  <line class="fil0 str1" x1="151.51" y1="255.41" x2="151.51" y2= "183.05" />
  <line class="fil0 str1" x1="196.2" y1="181.37" x2="227.29" y2= "255.33" />
  <line class="fil0 str1" x1="258.38" y1="181.37" x2="227.29" y2= "255.33" />
  <line class="fil0 str1" x1="254.51" y1="255.33" x2="285.6" y2= "181.37" />
  <line class="fil0 str1" x1="316.69" y1="255.33" x2="285.6" y2= "181.37" />
  <line class="fil0 str1" x1="263.27" y1="235.4" x2="308.53" y2= "235.4" />
  <line class="fil0 str2" x1="120.88" y1="181.65" x2="182.14" y2= "181.65" />
  <line class="fil0 str2" x1="151.51" y1="255.41" x2="151.51" y2= "183.05" />
  <line class="fil0 str2" x1="196.2" y1="181.37" x2="227.29" y2= "255.33" />
  <line class="fil0 str2" x1="258.38" y1="181.37" x2="227.29" y2= "255.33" />
  <line class="fil0 str2" x1="254.51" y1="255.33" x2="285.6" y2= "181.37" />
  <line class="fil0 str2" x1="316.69" y1="255.33" x2="285.6" y2= "181.37" />
  <line class="fil0 str2" x1="263.27" y1="235.4" x2="308.53" y2= "235.4" />
  <line class="fil0 str3" x1="120.88" y1="181.65" x2="182.14" y2= "181.65" />
  <line class="fil0 str3" x1="151.51" y1="255.41" x2="151.51" y2= "183.05" />
  <line class="fil0 str3" x1="196.2" y1="181.37" x2="227.29" y2= "255.33" />
  <line class="fil0 str3" x1="258.38" y1="181.37" x2="227.29" y2= "255.33" />
  <line class="fil0 str3" x1="254.51" y1="255.33" x2="285.6" y2= "181.37" />
  <line class="fil0 str3" x1="316.69" y1="255.33" x2="285.6" y2= "181.37" />
  <line class="fil0 str3" x1="263.27" y1="235.4" x2="308.53" y2= "235.4" />
 </g>
</svg>
