<?xml version="1.0" encoding="UTF-8"?>
<!DOCTYPE svg PUBLIC "-//W3C//DTD SVG 1.1//EN" "http://www.w3.org/Graphics/SVG/1.1/DTD/svg11.dtd">
<!-- Creator: CorelDRAW 2021 (64-Bit) -->
<svg xmlns="http://www.w3.org/2000/svg" xml:space="preserve" width="336.456mm" height="56.4558mm" version="1.1" style="shape-rendering:geometricPrecision; text-rendering:geometricPrecision; image-rendering:optimizeQuality; fill-rule:evenodd; clip-rule:evenodd"
viewBox="0 0 10534.13 1767.58"
 xmlns:xlink="http://www.w3.org/1999/xlink"
 xmlns:xodm="http://www.corel.com/coreldraw/odm/2003">
 <defs>
  <style type="text/css">
   <![CDATA[
    .str0 {stroke:#FEFEFE;stroke-width:44.18;stroke-miterlimit:22.9256}
    .str1 {stroke:#FEFEFE;stroke-width:44.18;stroke-linecap:round;stroke-linejoin:round;stroke-miterlimit:22.9256}
    .fil0 {fill:none}
   ]]>
  </style>
 </defs>
 <g id="Plan_x0020_1">
  <metadata id="CorelCorpID_0Corel-Layer"/>
  <circle class="fil0 str0" cx="257.61" cy="257.61" r="235.52"/>
  <circle class="fil0 str0" cx="883.79" cy="257.61" r="235.52"/>
  <circle class="fil0 str0" cx="1509.97" cy="257.61" r="235.52"/>
  <circle class="fil0 str0" cx="2136.15" cy="257.61" r="235.52"/>
  <circle class="fil0 str0" cx="2762.34" cy="257.61" r="235.52"/>
  <circle class="fil0 str0" cx="3388.52" cy="257.61" r="235.52"/>
  <circle class="fil0 str0" cx="4014.7" cy="257.61" r="235.52"/>
  <circle class="fil0 str0" cx="4640.88" cy="257.61" r="235.52"/>
  <circle class="fil0 str0" cx="5267.07" cy="257.61" r="235.52"/>
  <circle class="fil0 str0" cx="5893.25" cy="257.61" r="235.52"/>
  <circle class="fil0 str0" cx="6519.43" cy="257.61" r="235.52"/>
  <circle class="fil0 str0" cx="7145.61" cy="257.61" r="235.52"/>
  <circle class="fil0 str0" cx="7771.8" cy="257.61" r="235.52"/>
  <circle class="fil0 str0" cx="8397.98" cy="257.61" r="235.52"/>
  <circle class="fil0 str0" cx="9024.16" cy="257.61" r="235.52"/>
  <circle class="fil0 str0" cx="9650.34" cy="257.61" r="235.52"/>
  <circle class="fil0 str0" cx="10276.52" cy="257.61" r="235.52"/>
  <circle class="fil0 str0" cx="10276.52" cy="883.79" r="235.52"/>
  <circle class="fil0 str0" cx="10276.52" cy="1509.97" r="235.52"/>
  <circle class="fil0 str0" cx="9650.34" cy="1509.97" r="235.52"/>
  <circle class="fil0 str0" cx="9024.16" cy="1509.97" r="235.52"/>
  <circle class="fil0 str0" cx="8397.98" cy="1509.97" r="235.52"/>
  <circle class="fil0 str0" cx="7771.8" cy="1509.97" r="235.52"/>
  <circle class="fil0 str0" cx="7145.61" cy="1509.97" r="235.52"/>
  <circle class="fil0 str0" cx="6519.43" cy="1509.97" r="235.52"/>
  <circle class="fil0 str0" cx="5893.25" cy="1509.97" r="235.52"/>
  <circle class="fil0 str0" cx="5267.07" cy="1509.97" r="235.52"/>
  <circle class="fil0 str0" cx="4640.88" cy="1509.97" r="235.52"/>
  <circle class="fil0 str0" cx="4014.7" cy="1509.97" r="235.52"/>
  <circle class="fil0 str0" cx="3388.52" cy="1509.97" r="235.52"/>
  <circle class="fil0 str0" cx="2762.34" cy="1509.97" r="235.52"/>
  <circle class="fil0 str0" cx="2136.15" cy="1509.97" r="235.52"/>
  <circle class="fil0 str0" cx="1509.97" cy="1509.97" r="235.52"/>
  <circle class="fil0 str0" cx="883.79" cy="1509.97" r="235.52"/>
  <circle class="fil0 str0" cx="257.61" cy="1509.97" r="235.52"/>
  <circle class="fil0 str0" cx="257.61" cy="883.79" r="235.52"/>
  <circle class="fil0 str0" cx="883.79" cy="883.79" r="235.52"/>
  <circle class="fil0 str0" cx="1509.97" cy="883.79" r="235.52"/>
  <circle class="fil0 str0" cx="2136.15" cy="883.79" r="235.52"/>
  <circle class="fil0 str0" cx="2762.34" cy="883.79" r="235.52"/>
  <circle class="fil0 str0" cx="3388.52" cy="883.79" r="235.52"/>
  <circle class="fil0 str0" cx="4014.7" cy="883.79" r="235.52"/>
  <circle class="fil0 str0" cx="6519.43" cy="883.79" r="235.52"/>
  <circle class="fil0 str0" cx="7145.61" cy="883.79" r="235.52"/>
  <circle class="fil0 str0" cx="7771.8" cy="883.79" r="235.52"/>
  <circle class="fil0 str0" cx="8397.98" cy="883.79" r="235.52"/>
  <circle class="fil0 str0" cx="9024.16" cy="883.79" r="235.52"/>
  <circle class="fil0 str0" cx="9650.34" cy="883.79" r="235.52"/>
  <line class="fil0 str1" x1="4577.8" y1="683.87" x2="4911.09" y2= "683.87" />
  <line class="fil0 str1" x1="4744.44" y1="1085.22" x2="4744.44" y2= "691.52" />
  <line class="fil0 str1" x1="5144.15" y1="682.36" x2="5313.32" y2= "1084.82" />
  <line class="fil0 str1" x1="5482.49" y1="682.36" x2="5313.32" y2= "1084.82" />
  <line class="fil0 str1" x1="5617.99" y1="1084.82" x2="5787.16" y2= "682.36" />
  <line class="fil0 str1" x1="5956.34" y1="1084.82" x2="5787.16" y2= "682.36" />
  <line class="fil0 str1" x1="5665.66" y1="976.37" x2="5911.92" y2= "976.37" />
 </g>
</svg>
