<!--?xml version="1.0" encoding="UTF-8"?-->

<!-- Creator: CorelDRAW 2021 (64-Bit) -->
<svg xmlns="http://www.w3.org/2000/svg" xml:space="preserve" width="336.456mm" height="56.4558mm" version="1.1" style="shape-rendering: geometricprecision; text-rendering: geometricprecision; fill-rule: evenodd; clip-rule: evenodd;" viewBox="0 0 10534.13 1767.58" xmlns:xlink="http://www.w3.org/1999/xlink" xmlns:xodm="http://www.corel.com/coreldraw/odm/2003">
 <defs>
  <style type="text/css">
   
    .str0 {stroke:#FEFEFE;stroke-width:44.18;stroke-miterlimit:22.9256}
    .str1 {stroke:#FEFEFE;stroke-width:44.18;stroke-linecap:round;stroke-linejoin:round;stroke-miterlimit:22.9256}
    .fil0 {fill:none}
   
  </style>
 </defs>
 <g id="Plan_x0020_1">
  <metadata id="CorelCorpID_0Corel-Layer"></metadata>
  <path class="fil0 str0 tgLozjhs_0" d="M22.090000000000003,257.61A235.52,235.52 0,1,1 493.13,257.61A235.52,235.52 0,1,1 22.090000000000003,257.61"></path>
  <path class="fil0 str0 tgLozjhs_1" d="M648.27,257.61A235.52,235.52 0,1,1 1119.31,257.61A235.52,235.52 0,1,1 648.27,257.61"></path>
  <path class="fil0 str0 tgLozjhs_2" d="M1274.45,257.61A235.52,235.52 0,1,1 1745.49,257.61A235.52,235.52 0,1,1 1274.45,257.61"></path>
  <path class="fil0 str0 tgLozjhs_3" d="M1900.63,257.61A235.52,235.52 0,1,1 2371.67,257.61A235.52,235.52 0,1,1 1900.63,257.61"></path>
  <path class="fil0 str0 tgLozjhs_4" d="M2526.82,257.61A235.52,235.52 0,1,1 2997.86,257.61A235.52,235.52 0,1,1 2526.82,257.61"></path>
  <path class="fil0 str0 tgLozjhs_5" d="M3153,257.61A235.52,235.52 0,1,1 3624.04,257.61A235.52,235.52 0,1,1 3153,257.61"></path>
  <path class="fil0 str0 tgLozjhs_6" d="M3779.18,257.61A235.52,235.52 0,1,1 4250.22,257.61A235.52,235.52 0,1,1 3779.18,257.61"></path>
  <path class="fil0 str0 tgLozjhs_7" d="M4405.36,257.61A235.52,235.52 0,1,1 4876.400000000001,257.61A235.52,235.52 0,1,1 4405.36,257.61"></path>
  <path class="fil0 str0 tgLozjhs_8" d="M5031.549999999999,257.61A235.52,235.52 0,1,1 5502.59,257.61A235.52,235.52 0,1,1 5031.549999999999,257.61"></path>
  <path class="fil0 str0 tgLozjhs_9" d="M5657.73,257.61A235.52,235.52 0,1,1 6128.77,257.61A235.52,235.52 0,1,1 5657.73,257.61"></path>
  <path class="fil0 str0 tgLozjhs_10" d="M6283.91,257.61A235.52,235.52 0,1,1 6754.950000000001,257.61A235.52,235.52 0,1,1 6283.91,257.61"></path>
  <path class="fil0 str0 tgLozjhs_11" d="M6910.089999999999,257.61A235.52,235.52 0,1,1 7381.13,257.61A235.52,235.52 0,1,1 6910.089999999999,257.61"></path>
  <path class="fil0 str0 tgLozjhs_12" d="M7536.28,257.61A235.52,235.52 0,1,1 8007.320000000001,257.61A235.52,235.52 0,1,1 7536.28,257.61"></path>
  <path class="fil0 str0 tgLozjhs_13" d="M8162.459999999999,257.61A235.52,235.52 0,1,1 8633.5,257.61A235.52,235.52 0,1,1 8162.459999999999,257.61"></path>
  <path class="fil0 str0 tgLozjhs_14" d="M8788.64,257.61A235.52,235.52 0,1,1 9259.68,257.61A235.52,235.52 0,1,1 8788.64,257.61"></path>
  <path class="fil0 str0 tgLozjhs_15" d="M9414.82,257.61A235.52,235.52 0,1,1 9885.86,257.61A235.52,235.52 0,1,1 9414.82,257.61"></path>
  <path class="fil0 str0 tgLozjhs_16" d="M10041,257.61A235.52,235.52 0,1,1 10512.04,257.61A235.52,235.52 0,1,1 10041,257.61"></path>
  <path class="fil0 str0 tgLozjhs_17" d="M10041,883.79A235.52,235.52 0,1,1 10512.04,883.79A235.52,235.52 0,1,1 10041,883.79"></path>
  <path class="fil0 str0 tgLozjhs_18" d="M10041,1509.97A235.52,235.52 0,1,1 10512.04,1509.97A235.52,235.52 0,1,1 10041,1509.97"></path>
  <path class="fil0 str0 tgLozjhs_19" d="M9414.82,1509.97A235.52,235.52 0,1,1 9885.86,1509.97A235.52,235.52 0,1,1 9414.82,1509.97"></path>
  <path class="fil0 str0 tgLozjhs_20" d="M8788.64,1509.97A235.52,235.52 0,1,1 9259.68,1509.97A235.52,235.52 0,1,1 8788.64,1509.97"></path>
  <path class="fil0 str0 tgLozjhs_21" d="M8162.459999999999,1509.97A235.52,235.52 0,1,1 8633.5,1509.97A235.52,235.52 0,1,1 8162.459999999999,1509.97"></path>
  <path class="fil0 str0 tgLozjhs_22" d="M7536.28,1509.97A235.52,235.52 0,1,1 8007.320000000001,1509.97A235.52,235.52 0,1,1 7536.28,1509.97"></path>
  <path class="fil0 str0 tgLozjhs_23" d="M6910.089999999999,1509.97A235.52,235.52 0,1,1 7381.13,1509.97A235.52,235.52 0,1,1 6910.089999999999,1509.97"></path>
  <path class="fil0 str0 tgLozjhs_24" d="M6283.91,1509.97A235.52,235.52 0,1,1 6754.950000000001,1509.97A235.52,235.52 0,1,1 6283.91,1509.97"></path>
  <path class="fil0 str0 tgLozjhs_25" d="M5657.73,1509.97A235.52,235.52 0,1,1 6128.77,1509.97A235.52,235.52 0,1,1 5657.73,1509.97"></path>
  <path class="fil0 str0 tgLozjhs_26" d="M5031.549999999999,1509.97A235.52,235.52 0,1,1 5502.59,1509.97A235.52,235.52 0,1,1 5031.549999999999,1509.97"></path>
  <path class="fil0 str0 tgLozjhs_27" d="M4405.36,1509.97A235.52,235.52 0,1,1 4876.400000000001,1509.97A235.52,235.52 0,1,1 4405.36,1509.97"></path>
  <path class="fil0 str0 tgLozjhs_28" d="M3779.18,1509.97A235.52,235.52 0,1,1 4250.22,1509.97A235.52,235.52 0,1,1 3779.18,1509.97"></path>
  <path class="fil0 str0 tgLozjhs_29" d="M3153,1509.97A235.52,235.52 0,1,1 3624.04,1509.97A235.52,235.52 0,1,1 3153,1509.97"></path>
  <path class="fil0 str0 tgLozjhs_30" d="M2526.82,1509.97A235.52,235.52 0,1,1 2997.86,1509.97A235.52,235.52 0,1,1 2526.82,1509.97"></path>
  <path class="fil0 str0 tgLozjhs_31" d="M1900.63,1509.97A235.52,235.52 0,1,1 2371.67,1509.97A235.52,235.52 0,1,1 1900.63,1509.97"></path>
  <path class="fil0 str0 tgLozjhs_32" d="M1274.45,1509.97A235.52,235.52 0,1,1 1745.49,1509.97A235.52,235.52 0,1,1 1274.45,1509.97"></path>
  <path class="fil0 str0 tgLozjhs_33" d="M648.27,1509.97A235.52,235.52 0,1,1 1119.31,1509.97A235.52,235.52 0,1,1 648.27,1509.97"></path>
  <path class="fil0 str0 tgLozjhs_34" d="M22.090000000000003,1509.97A235.52,235.52 0,1,1 493.13,1509.97A235.52,235.52 0,1,1 22.090000000000003,1509.97"></path>
  <path class="fil0 str0 tgLozjhs_35" d="M22.090000000000003,883.79A235.52,235.52 0,1,1 493.13,883.79A235.52,235.52 0,1,1 22.090000000000003,883.79"></path>
  <path class="fil0 str0 tgLozjhs_36" d="M648.27,883.79A235.52,235.52 0,1,1 1119.31,883.79A235.52,235.52 0,1,1 648.27,883.79"></path>
  <path class="fil0 str0 tgLozjhs_37" d="M1274.45,883.79A235.52,235.52 0,1,1 1745.49,883.79A235.52,235.52 0,1,1 1274.45,883.79"></path>
  <path class="fil0 str0 tgLozjhs_38" d="M1900.63,883.79A235.52,235.52 0,1,1 2371.67,883.79A235.52,235.52 0,1,1 1900.63,883.79"></path>
  <path class="fil0 str0 tgLozjhs_39" d="M2526.82,883.79A235.52,235.52 0,1,1 2997.86,883.79A235.52,235.52 0,1,1 2526.82,883.79"></path>
  <path class="fil0 str0 tgLozjhs_40" d="M3153,883.79A235.52,235.52 0,1,1 3624.04,883.79A235.52,235.52 0,1,1 3153,883.79"></path>
  <path class="fil0 str0 tgLozjhs_41" d="M3779.18,883.79A235.52,235.52 0,1,1 4250.22,883.79A235.52,235.52 0,1,1 3779.18,883.79"></path>
  <path class="fil0 str0 tgLozjhs_42" d="M6283.91,883.79A235.52,235.52 0,1,1 6754.950000000001,883.79A235.52,235.52 0,1,1 6283.91,883.79"></path>
  <path class="fil0 str0 tgLozjhs_43" d="M6910.089999999999,883.79A235.52,235.52 0,1,1 7381.13,883.79A235.52,235.52 0,1,1 6910.089999999999,883.79"></path>
  <path class="fil0 str0 tgLozjhs_44" d="M7536.28,883.79A235.52,235.52 0,1,1 8007.320000000001,883.79A235.52,235.52 0,1,1 7536.28,883.79"></path>
  <path class="fil0 str0 tgLozjhs_45" d="M8162.459999999999,883.79A235.52,235.52 0,1,1 8633.5,883.79A235.52,235.52 0,1,1 8162.459999999999,883.79"></path>
  <path class="fil0 str0 tgLozjhs_46" d="M8788.64,883.79A235.52,235.52 0,1,1 9259.68,883.79A235.52,235.52 0,1,1 8788.64,883.79"></path>
  <path class="fil0 str0 tgLozjhs_47" d="M9414.82,883.79A235.52,235.52 0,1,1 9885.86,883.79A235.52,235.52 0,1,1 9414.82,883.79"></path>
  <path class="fil0 str1 tgLozjhs_48" d="M4577.8,683.87L4911.09,683.87"></path>
  <path class="fil0 str1 tgLozjhs_49" d="M4744.44,1085.22L4744.44,691.52"></path>
  <path class="fil0 str1 tgLozjhs_50" d="M5144.15,682.36L5313.32,1084.82"></path>
  <path class="fil0 str1 tgLozjhs_51" d="M5482.49,682.36L5313.32,1084.82"></path>
  <path class="fil0 str1 tgLozjhs_52" d="M5617.99,1084.82L5787.16,682.36"></path>
  <path class="fil0 str1 tgLozjhs_53" d="M5956.34,1084.82L5787.16,682.36"></path>
  <path class="fil0 str1 tgLozjhs_54" d="M5665.66,976.37L5911.92,976.37"></path>
 </g>
<style data-made-with="vivus-instant">.tgLozjhs_0{stroke-dasharray:1481 1483;stroke-dashoffset:1482;animation:tgLozjhs_draw_0 44000ms ease-in-out 0ms infinite,tgLozjhs_fade 44000ms linear 0ms infinite;}.tgLozjhs_1{stroke-dasharray:1481 1483;stroke-dashoffset:1482;animation:tgLozjhs_draw_1 44000ms ease-in-out 0ms infinite,tgLozjhs_fade 44000ms linear 0ms infinite;}.tgLozjhs_2{stroke-dasharray:1481 1483;stroke-dashoffset:1482;animation:tgLozjhs_draw_2 44000ms ease-in-out 0ms infinite,tgLozjhs_fade 44000ms linear 0ms infinite;}.tgLozjhs_3{stroke-dasharray:1481 1483;stroke-dashoffset:1482;animation:tgLozjhs_draw_3 44000ms ease-in-out 0ms infinite,tgLozjhs_fade 44000ms linear 0ms infinite;}.tgLozjhs_4{stroke-dasharray:1481 1483;stroke-dashoffset:1482;animation:tgLozjhs_draw_4 44000ms ease-in-out 0ms infinite,tgLozjhs_fade 44000ms linear 0ms infinite;}.tgLozjhs_5{stroke-dasharray:1481 1483;stroke-dashoffset:1482;animation:tgLozjhs_draw_5 44000ms ease-in-out 0ms infinite,tgLozjhs_fade 44000ms linear 0ms infinite;}.tgLozjhs_6{stroke-dasharray:1481 1483;stroke-dashoffset:1482;animation:tgLozjhs_draw_6 44000ms ease-in-out 0ms infinite,tgLozjhs_fade 44000ms linear 0ms infinite;}.tgLozjhs_7{stroke-dasharray:1481 1483;stroke-dashoffset:1482;animation:tgLozjhs_draw_7 44000ms ease-in-out 0ms infinite,tgLozjhs_fade 44000ms linear 0ms infinite;}.tgLozjhs_8{stroke-dasharray:1481 1483;stroke-dashoffset:1482;animation:tgLozjhs_draw_8 44000ms ease-in-out 0ms infinite,tgLozjhs_fade 44000ms linear 0ms infinite;}.tgLozjhs_9{stroke-dasharray:1481 1483;stroke-dashoffset:1482;animation:tgLozjhs_draw_9 44000ms ease-in-out 0ms infinite,tgLozjhs_fade 44000ms linear 0ms infinite;}.tgLozjhs_10{stroke-dasharray:1481 1483;stroke-dashoffset:1482;animation:tgLozjhs_draw_10 44000ms ease-in-out 0ms infinite,tgLozjhs_fade 44000ms linear 0ms infinite;}.tgLozjhs_11{stroke-dasharray:1481 1483;stroke-dashoffset:1482;animation:tgLozjhs_draw_11 44000ms ease-in-out 0ms infinite,tgLozjhs_fade 44000ms linear 0ms infinite;}.tgLozjhs_12{stroke-dasharray:1481 1483;stroke-dashoffset:1482;animation:tgLozjhs_draw_12 44000ms ease-in-out 0ms infinite,tgLozjhs_fade 44000ms linear 0ms infinite;}.tgLozjhs_13{stroke-dasharray:1481 1483;stroke-dashoffset:1482;animation:tgLozjhs_draw_13 44000ms ease-in-out 0ms infinite,tgLozjhs_fade 44000ms linear 0ms infinite;}.tgLozjhs_14{stroke-dasharray:1481 1483;stroke-dashoffset:1482;animation:tgLozjhs_draw_14 44000ms ease-in-out 0ms infinite,tgLozjhs_fade 44000ms linear 0ms infinite;}.tgLozjhs_15{stroke-dasharray:1481 1483;stroke-dashoffset:1482;animation:tgLozjhs_draw_15 44000ms ease-in-out 0ms infinite,tgLozjhs_fade 44000ms linear 0ms infinite;}.tgLozjhs_16{stroke-dasharray:1481 1483;stroke-dashoffset:1482;animation:tgLozjhs_draw_16 44000ms ease-in-out 0ms infinite,tgLozjhs_fade 44000ms linear 0ms infinite;}.tgLozjhs_17{stroke-dasharray:1481 1483;stroke-dashoffset:1482;animation:tgLozjhs_draw_17 44000ms ease-in-out 0ms infinite,tgLozjhs_fade 44000ms linear 0ms infinite;}.tgLozjhs_18{stroke-dasharray:1481 1483;stroke-dashoffset:1482;animation:tgLozjhs_draw_18 44000ms ease-in-out 0ms infinite,tgLozjhs_fade 44000ms linear 0ms infinite;}.tgLozjhs_19{stroke-dasharray:1481 1483;stroke-dashoffset:1482;animation:tgLozjhs_draw_19 44000ms ease-in-out 0ms infinite,tgLozjhs_fade 44000ms linear 0ms infinite;}.tgLozjhs_20{stroke-dasharray:1481 1483;stroke-dashoffset:1482;animation:tgLozjhs_draw_20 44000ms ease-in-out 0ms infinite,tgLozjhs_fade 44000ms linear 0ms infinite;}.tgLozjhs_21{stroke-dasharray:1481 1483;stroke-dashoffset:1482;animation:tgLozjhs_draw_21 44000ms ease-in-out 0ms infinite,tgLozjhs_fade 44000ms linear 0ms infinite;}.tgLozjhs_22{stroke-dasharray:1481 1483;stroke-dashoffset:1482;animation:tgLozjhs_draw_22 44000ms ease-in-out 0ms infinite,tgLozjhs_fade 44000ms linear 0ms infinite;}.tgLozjhs_23{stroke-dasharray:1481 1483;stroke-dashoffset:1482;animation:tgLozjhs_draw_23 44000ms ease-in-out 0ms infinite,tgLozjhs_fade 44000ms linear 0ms infinite;}.tgLozjhs_24{stroke-dasharray:1481 1483;stroke-dashoffset:1482;animation:tgLozjhs_draw_24 44000ms ease-in-out 0ms infinite,tgLozjhs_fade 44000ms linear 0ms infinite;}.tgLozjhs_25{stroke-dasharray:1481 1483;stroke-dashoffset:1482;animation:tgLozjhs_draw_25 44000ms ease-in-out 0ms infinite,tgLozjhs_fade 44000ms linear 0ms infinite;}.tgLozjhs_26{stroke-dasharray:1481 1483;stroke-dashoffset:1482;animation:tgLozjhs_draw_26 44000ms ease-in-out 0ms infinite,tgLozjhs_fade 44000ms linear 0ms infinite;}.tgLozjhs_27{stroke-dasharray:1481 1483;stroke-dashoffset:1482;animation:tgLozjhs_draw_27 44000ms ease-in-out 0ms infinite,tgLozjhs_fade 44000ms linear 0ms infinite;}.tgLozjhs_28{stroke-dasharray:1481 1483;stroke-dashoffset:1482;animation:tgLozjhs_draw_28 44000ms ease-in-out 0ms infinite,tgLozjhs_fade 44000ms linear 0ms infinite;}.tgLozjhs_29{stroke-dasharray:1481 1483;stroke-dashoffset:1482;animation:tgLozjhs_draw_29 44000ms ease-in-out 0ms infinite,tgLozjhs_fade 44000ms linear 0ms infinite;}.tgLozjhs_30{stroke-dasharray:1481 1483;stroke-dashoffset:1482;animation:tgLozjhs_draw_30 44000ms ease-in-out 0ms infinite,tgLozjhs_fade 44000ms linear 0ms infinite;}.tgLozjhs_31{stroke-dasharray:1481 1483;stroke-dashoffset:1482;animation:tgLozjhs_draw_31 44000ms ease-in-out 0ms infinite,tgLozjhs_fade 44000ms linear 0ms infinite;}.tgLozjhs_32{stroke-dasharray:1481 1483;stroke-dashoffset:1482;animation:tgLozjhs_draw_32 44000ms ease-in-out 0ms infinite,tgLozjhs_fade 44000ms linear 0ms infinite;}.tgLozjhs_33{stroke-dasharray:1481 1483;stroke-dashoffset:1482;animation:tgLozjhs_draw_33 44000ms ease-in-out 0ms infinite,tgLozjhs_fade 44000ms linear 0ms infinite;}.tgLozjhs_34{stroke-dasharray:1481 1483;stroke-dashoffset:1482;animation:tgLozjhs_draw_34 44000ms ease-in-out 0ms infinite,tgLozjhs_fade 44000ms linear 0ms infinite;}.tgLozjhs_35{stroke-dasharray:1481 1483;stroke-dashoffset:1482;animation:tgLozjhs_draw_35 44000ms ease-in-out 0ms infinite,tgLozjhs_fade 44000ms linear 0ms infinite;}.tgLozjhs_36{stroke-dasharray:1481 1483;stroke-dashoffset:1482;animation:tgLozjhs_draw_36 44000ms ease-in-out 0ms infinite,tgLozjhs_fade 44000ms linear 0ms infinite;}.tgLozjhs_37{stroke-dasharray:1481 1483;stroke-dashoffset:1482;animation:tgLozjhs_draw_37 44000ms ease-in-out 0ms infinite,tgLozjhs_fade 44000ms linear 0ms infinite;}.tgLozjhs_38{stroke-dasharray:1481 1483;stroke-dashoffset:1482;animation:tgLozjhs_draw_38 44000ms ease-in-out 0ms infinite,tgLozjhs_fade 44000ms linear 0ms infinite;}.tgLozjhs_39{stroke-dasharray:1481 1483;stroke-dashoffset:1482;animation:tgLozjhs_draw_39 44000ms ease-in-out 0ms infinite,tgLozjhs_fade 44000ms linear 0ms infinite;}.tgLozjhs_40{stroke-dasharray:1481 1483;stroke-dashoffset:1482;animation:tgLozjhs_draw_40 44000ms ease-in-out 0ms infinite,tgLozjhs_fade 44000ms linear 0ms infinite;}.tgLozjhs_41{stroke-dasharray:1481 1483;stroke-dashoffset:1482;animation:tgLozjhs_draw_41 44000ms ease-in-out 0ms infinite,tgLozjhs_fade 44000ms linear 0ms infinite;}.tgLozjhs_42{stroke-dasharray:1481 1483;stroke-dashoffset:1482;animation:tgLozjhs_draw_42 44000ms ease-in-out 0ms infinite,tgLozjhs_fade 44000ms linear 0ms infinite;}.tgLozjhs_43{stroke-dasharray:1481 1483;stroke-dashoffset:1482;animation:tgLozjhs_draw_43 44000ms ease-in-out 0ms infinite,tgLozjhs_fade 44000ms linear 0ms infinite;}.tgLozjhs_44{stroke-dasharray:1481 1483;stroke-dashoffset:1482;animation:tgLozjhs_draw_44 44000ms ease-in-out 0ms infinite,tgLozjhs_fade 44000ms linear 0ms infinite;}.tgLozjhs_45{stroke-dasharray:1481 1483;stroke-dashoffset:1482;animation:tgLozjhs_draw_45 44000ms ease-in-out 0ms infinite,tgLozjhs_fade 44000ms linear 0ms infinite;}.tgLozjhs_46{stroke-dasharray:1481 1483;stroke-dashoffset:1482;animation:tgLozjhs_draw_46 44000ms ease-in-out 0ms infinite,tgLozjhs_fade 44000ms linear 0ms infinite;}.tgLozjhs_47{stroke-dasharray:1481 1483;stroke-dashoffset:1482;animation:tgLozjhs_draw_47 44000ms ease-in-out 0ms infinite,tgLozjhs_fade 44000ms linear 0ms infinite;}.tgLozjhs_48{stroke-dasharray:334 336;stroke-dashoffset:335;animation:tgLozjhs_draw_48 44000ms ease-in-out 0ms infinite,tgLozjhs_fade 44000ms linear 0ms infinite;}.tgLozjhs_49{stroke-dasharray:394 396;stroke-dashoffset:395;animation:tgLozjhs_draw_49 44000ms ease-in-out 0ms infinite,tgLozjhs_fade 44000ms linear 0ms infinite;}.tgLozjhs_50{stroke-dasharray:437 439;stroke-dashoffset:438;animation:tgLozjhs_draw_50 44000ms ease-in-out 0ms infinite,tgLozjhs_fade 44000ms linear 0ms infinite;}.tgLozjhs_51{stroke-dasharray:437 439;stroke-dashoffset:438;animation:tgLozjhs_draw_51 44000ms ease-in-out 0ms infinite,tgLozjhs_fade 44000ms linear 0ms infinite;}.tgLozjhs_52{stroke-dasharray:437 439;stroke-dashoffset:438;animation:tgLozjhs_draw_52 44000ms ease-in-out 0ms infinite,tgLozjhs_fade 44000ms linear 0ms infinite;}.tgLozjhs_53{stroke-dasharray:437 439;stroke-dashoffset:438;animation:tgLozjhs_draw_53 44000ms ease-in-out 0ms infinite,tgLozjhs_fade 44000ms linear 0ms infinite;}.tgLozjhs_54{stroke-dasharray:247 249;stroke-dashoffset:248;animation:tgLozjhs_draw_54 44000ms ease-in-out 0ms infinite,tgLozjhs_fade 44000ms linear 0ms infinite;}@keyframes tgLozjhs_draw{100%{stroke-dashoffset:0;}}@keyframes tgLozjhs_fade{0%{stroke-opacity:1;}99.54545454545455%{stroke-opacity:1;}100%{stroke-opacity:0;}}@keyframes tgLozjhs_draw_0{1.8181818181818181%{stroke-dashoffset: 1482}3.6421234520495345%{ stroke-dashoffset: 0;}100%{ stroke-dashoffset: 0;}}@keyframes tgLozjhs_draw_1{3.6421234520495345%{stroke-dashoffset: 1482}5.466065085917251%{ stroke-dashoffset: 0;}100%{ stroke-dashoffset: 0;}}@keyframes tgLozjhs_draw_2{5.466065085917251%{stroke-dashoffset: 1482}7.290006719784968%{ stroke-dashoffset: 0;}100%{ stroke-dashoffset: 0;}}@keyframes tgLozjhs_draw_3{7.290006719784968%{stroke-dashoffset: 1482}9.113948353652683%{ stroke-dashoffset: 0;}100%{ stroke-dashoffset: 0;}}@keyframes tgLozjhs_draw_4{9.113948353652683%{stroke-dashoffset: 1482}10.937889987520398%{ stroke-dashoffset: 0;}100%{ stroke-dashoffset: 0;}}@keyframes tgLozjhs_draw_5{10.937889987520402%{stroke-dashoffset: 1482}12.761831621388117%{ stroke-dashoffset: 0;}100%{ stroke-dashoffset: 0;}}@keyframes tgLozjhs_draw_6{12.761831621388117%{stroke-dashoffset: 1482}14.585773255255832%{ stroke-dashoffset: 0;}100%{ stroke-dashoffset: 0;}}@keyframes tgLozjhs_draw_7{14.585773255255832%{stroke-dashoffset: 1482}16.409714889123546%{ stroke-dashoffset: 0;}100%{ stroke-dashoffset: 0;}}@keyframes tgLozjhs_draw_8{16.409714889123546%{stroke-dashoffset: 1482}18.23365652299126%{ stroke-dashoffset: 0;}100%{ stroke-dashoffset: 0;}}@keyframes tgLozjhs_draw_9{18.23365652299126%{stroke-dashoffset: 1482}20.05759815685898%{ stroke-dashoffset: 0;}100%{ stroke-dashoffset: 0;}}@keyframes tgLozjhs_draw_10{20.057598156858983%{stroke-dashoffset: 1482}21.8815397907267%{ stroke-dashoffset: 0;}100%{ stroke-dashoffset: 0;}}@keyframes tgLozjhs_draw_11{21.8815397907267%{stroke-dashoffset: 1482}23.705481424594417%{ stroke-dashoffset: 0;}100%{ stroke-dashoffset: 0;}}@keyframes tgLozjhs_draw_12{23.705481424594417%{stroke-dashoffset: 1482}25.52942305846213%{ stroke-dashoffset: 0;}100%{ stroke-dashoffset: 0;}}@keyframes tgLozjhs_draw_13{25.529423058462125%{stroke-dashoffset: 1482}27.35336469232984%{ stroke-dashoffset: 0;}100%{ stroke-dashoffset: 0;}}@keyframes tgLozjhs_draw_14{27.353364692329844%{stroke-dashoffset: 1482}29.17730632619756%{ stroke-dashoffset: 0;}100%{ stroke-dashoffset: 0;}}@keyframes tgLozjhs_draw_15{29.17730632619756%{stroke-dashoffset: 1482}31.001247960065275%{ stroke-dashoffset: 0;}100%{ stroke-dashoffset: 0;}}@keyframes tgLozjhs_draw_16{31.001247960065275%{stroke-dashoffset: 1482}32.82518959393299%{ stroke-dashoffset: 0;}100%{ stroke-dashoffset: 0;}}@keyframes tgLozjhs_draw_17{32.82518959393299%{stroke-dashoffset: 1482}34.64913122780071%{ stroke-dashoffset: 0;}100%{ stroke-dashoffset: 0;}}@keyframes tgLozjhs_draw_18{34.64913122780071%{stroke-dashoffset: 1482}36.47307286166843%{ stroke-dashoffset: 0;}100%{ stroke-dashoffset: 0;}}@keyframes tgLozjhs_draw_19{36.47307286166843%{stroke-dashoffset: 1482}38.297014495536146%{ stroke-dashoffset: 0;}100%{ stroke-dashoffset: 0;}}@keyframes tgLozjhs_draw_20{38.297014495536146%{stroke-dashoffset: 1482}40.120956129403865%{ stroke-dashoffset: 0;}100%{ stroke-dashoffset: 0;}}@keyframes tgLozjhs_draw_21{40.120956129403865%{stroke-dashoffset: 1482}41.944897763271584%{ stroke-dashoffset: 0;}100%{ stroke-dashoffset: 0;}}@keyframes tgLozjhs_draw_22{41.944897763271584%{stroke-dashoffset: 1482}43.768839397139295%{ stroke-dashoffset: 0;}100%{ stroke-dashoffset: 0;}}@keyframes tgLozjhs_draw_23{43.768839397139295%{stroke-dashoffset: 1482}45.592781031007014%{ stroke-dashoffset: 0;}100%{ stroke-dashoffset: 0;}}@keyframes tgLozjhs_draw_24{45.592781031007014%{stroke-dashoffset: 1482}47.416722664874726%{ stroke-dashoffset: 0;}100%{ stroke-dashoffset: 0;}}@keyframes tgLozjhs_draw_25{47.41672266487472%{stroke-dashoffset: 1482}49.24066429874244%{ stroke-dashoffset: 0;}100%{ stroke-dashoffset: 0;}}@keyframes tgLozjhs_draw_26{49.24066429874244%{stroke-dashoffset: 1482}51.06460593261015%{ stroke-dashoffset: 0;}100%{ stroke-dashoffset: 0;}}@keyframes tgLozjhs_draw_27{51.064605932610164%{stroke-dashoffset: 1482}52.888547566477875%{ stroke-dashoffset: 0;}100%{ stroke-dashoffset: 0;}}@keyframes tgLozjhs_draw_28{52.888547566477875%{stroke-dashoffset: 1482}54.712489200345594%{ stroke-dashoffset: 0;}100%{ stroke-dashoffset: 0;}}@keyframes tgLozjhs_draw_29{54.712489200345594%{stroke-dashoffset: 1482}56.536430834213306%{ stroke-dashoffset: 0;}100%{ stroke-dashoffset: 0;}}@keyframes tgLozjhs_draw_30{56.536430834213306%{stroke-dashoffset: 1482}58.360372468081025%{ stroke-dashoffset: 0;}100%{ stroke-dashoffset: 0;}}@keyframes tgLozjhs_draw_31{58.360372468081025%{stroke-dashoffset: 1482}60.18431410194873%{ stroke-dashoffset: 0;}100%{ stroke-dashoffset: 0;}}@keyframes tgLozjhs_draw_32{60.18431410194873%{stroke-dashoffset: 1482}62.008255735816455%{ stroke-dashoffset: 0;}100%{ stroke-dashoffset: 0;}}@keyframes tgLozjhs_draw_33{62.008255735816455%{stroke-dashoffset: 1482}63.83219736968416%{ stroke-dashoffset: 0;}100%{ stroke-dashoffset: 0;}}@keyframes tgLozjhs_draw_34{63.83219736968416%{stroke-dashoffset: 1482}65.65613900355189%{ stroke-dashoffset: 0;}100%{ stroke-dashoffset: 0;}}@keyframes tgLozjhs_draw_35{65.65613900355189%{stroke-dashoffset: 1482}67.4800806374196%{ stroke-dashoffset: 0;}100%{ stroke-dashoffset: 0;}}@keyframes tgLozjhs_draw_36{67.4800806374196%{stroke-dashoffset: 1482}69.30402227128731%{ stroke-dashoffset: 0;}100%{ stroke-dashoffset: 0;}}@keyframes tgLozjhs_draw_37{69.30402227128732%{stroke-dashoffset: 1482}71.12796390515503%{ stroke-dashoffset: 0;}100%{ stroke-dashoffset: 0;}}@keyframes tgLozjhs_draw_38{71.12796390515503%{stroke-dashoffset: 1482}72.95190553902276%{ stroke-dashoffset: 0;}100%{ stroke-dashoffset: 0;}}@keyframes tgLozjhs_draw_39{72.95190553902276%{stroke-dashoffset: 1482}74.77584717289048%{ stroke-dashoffset: 0;}100%{ stroke-dashoffset: 0;}}@keyframes tgLozjhs_draw_40{74.77584717289048%{stroke-dashoffset: 1482}76.5997888067582%{ stroke-dashoffset: 0;}100%{ stroke-dashoffset: 0;}}@keyframes tgLozjhs_draw_41{76.59978880675817%{stroke-dashoffset: 1482}78.42373044062589%{ stroke-dashoffset: 0;}100%{ stroke-dashoffset: 0;}}@keyframes tgLozjhs_draw_42{78.4237304406259%{stroke-dashoffset: 1482}80.24767207449362%{ stroke-dashoffset: 0;}100%{ stroke-dashoffset: 0;}}@keyframes tgLozjhs_draw_43{80.24767207449362%{stroke-dashoffset: 1482}82.07161370836134%{ stroke-dashoffset: 0;}100%{ stroke-dashoffset: 0;}}@keyframes tgLozjhs_draw_44{82.07161370836134%{stroke-dashoffset: 1482}83.89555534222906%{ stroke-dashoffset: 0;}100%{ stroke-dashoffset: 0;}}@keyframes tgLozjhs_draw_45{83.89555534222906%{stroke-dashoffset: 1482}85.71949697609678%{ stroke-dashoffset: 0;}100%{ stroke-dashoffset: 0;}}@keyframes tgLozjhs_draw_46{85.71949697609678%{stroke-dashoffset: 1482}87.54343860996448%{ stroke-dashoffset: 0;}100%{ stroke-dashoffset: 0;}}@keyframes tgLozjhs_draw_47{87.54343860996448%{stroke-dashoffset: 1482}89.3673802438322%{ stroke-dashoffset: 0;}100%{ stroke-dashoffset: 0;}}@keyframes tgLozjhs_draw_48{89.3673802438322%{stroke-dashoffset: 335}89.77967474271594%{ stroke-dashoffset: 0;}100%{ stroke-dashoffset: 0;}}@keyframes tgLozjhs_draw_49{89.77967474271593%{stroke-dashoffset: 395}90.2658130324445%{ stroke-dashoffset: 0;}100%{ stroke-dashoffset: 0;}}@keyframes tgLozjhs_draw_50{90.2658130324445%{stroke-dashoffset: 438}90.80487270561188%{ stroke-dashoffset: 0;}100%{ stroke-dashoffset: 0;}}@keyframes tgLozjhs_draw_51{90.80487270561188%{stroke-dashoffset: 438}91.34393237877929%{ stroke-dashoffset: 0;}100%{ stroke-dashoffset: 0;}}@keyframes tgLozjhs_draw_52{91.34393237877926%{stroke-dashoffset: 438}91.88299205194664%{ stroke-dashoffset: 0;}100%{ stroke-dashoffset: 0;}}@keyframes tgLozjhs_draw_53{91.88299205194664%{stroke-dashoffset: 438}92.42205172511403%{ stroke-dashoffset: 0;}100%{ stroke-dashoffset: 0;}}@keyframes tgLozjhs_draw_54{92.42205172511402%{stroke-dashoffset: 248}92.72727272727272%{ stroke-dashoffset: 0;}100%{ stroke-dashoffset: 0;}}</style></svg>
