<?xml version="1.0" encoding="UTF-8"?>
<!DOCTYPE svg PUBLIC "-//W3C//DTD SVG 1.1//EN" "http://www.w3.org/Graphics/SVG/1.1/DTD/svg11.dtd">
<!-- Creator: CorelDRAW 2021 (64-Bit) -->
<svg xmlns="http://www.w3.org/2000/svg" xml:space="preserve" width="863.979mm" height="117.822mm" version="1.1" style="shape-rendering:geometricPrecision; text-rendering:geometricPrecision; image-rendering:optimizeQuality; fill-rule:evenodd; clip-rule:evenodd"
viewBox="0 0 41145.3 5611.05"
 xmlns:xlink="http://www.w3.org/1999/xlink"
 xmlns:xodm="http://www.corel.com/coreldraw/odm/2003">
 <defs>
  <style type="text/css">
   <![CDATA[
    .str1 {stroke:#FEFEFE;stroke-width:3.63;stroke-miterlimit:22.9256}
    .str0 {stroke:#FEFEFE;stroke-width:134.4;stroke-linecap:round;stroke-linejoin:round;stroke-miterlimit:22.9256}
    .fil0 {fill:none}
    .fil1 {fill:#FEFEFE;fill-rule:nonzero}
   ]]>
  </style>
 </defs>
 <g id="Plan_x0020_1">
  <metadata id="CorelCorpID_0Corel-Layer"/>
  <circle class="fil0 str0" cx="2805.53" cy="2805.53" r="2738.33"/>
  <circle class="fil0 str0" cx="2805.53" cy="2805.53" r="2381.15"/>
  <circle class="fil0 str0" cx="2805.53" cy="2805.53" r="2023.98"/>
  <circle class="fil0 str0" cx="2805.53" cy="2805.53" r="1663.29"/>
  <line class="fil0 str0" x1="1558.36" y1="2341.66" x2="2347.99" y2= "2341.66" />
  <line class="fil0 str0" x1="1953.18" y1="3292.55" x2="1953.18" y2= "2359.79" />
  <line class="fil0 str0" x1="2529.27" y1="2338.08" x2="2930.07" y2= "3291.59" />
  <line class="fil0 str0" x1="3330.87" y1="2338.08" x2="2930.07" y2= "3291.59" />
  <line class="fil0 str0" x1="3281" y1="3291.59" x2="3681.8" y2= "2338.08" />
  <line class="fil0 str0" x1="4082.6" y1="3291.59" x2="3681.8" y2= "2338.08" />
  <line class="fil0 str0" x1="3393.94" y1="3034.64" x2="3977.37" y2= "3034.64" />
  <path class="fil1 str1" d="M7147.77 3478.89l0 -1441.89 99.57 0 0 1351.26 578.47 0 0 90.64 -678.04 0zm1538.71 0l0 -206.33 -3.78 0c-32.96,70.38 -80.68,126.34 -143.5,168.22 -62.48,41.89 -132.17,62.83 -208.73,62.83 -97.84,0 -175.09,-27.46 -232.07,-82.39 -57,-54.93 -85.48,-124.28 -85.48,-208.05 0,-179.55 118.78,-288.03 357.04,-325.46l316.53 -47.38c0,-221.09 -83.08,-331.63 -249.24,-331.63 -113.3,0 -223.5,45.66 -330.95,136.98l0 -111.92c38.1,-30.21 89.94,-55.96 155.51,-77.24 65.23,-21.63 126.68,-32.27 184.36,-32.27 106.08,0 188.13,32.96 246.15,98.53 58.02,65.57 86.86,161.35 86.86,286.66l0 669.45 -92.7 0zm-283.57 -512.9c-107.8,15.45 -183.67,40.51 -227.27,74.84 -43.6,34.67 -65.23,90.63 -65.23,168.22 0,61.11 20.25,111.23 60.77,150.71 40.51,39.48 97.16,59.39 169.59,59.39 99.22,0 181.62,-36.73 247.19,-109.86 65.92,-73.47 98.53,-168.22 98.53,-283.91l0 -100.59 -283.57 41.2zm1917.38 467.24c-76.56,47.03 -167.54,70.38 -273.62,70.38 -140.07,0 -253.02,-48.06 -338.85,-144.19 -85.83,-96.13 -128.74,-222.12 -128.74,-377.3 0,-163.76 48.07,-297.3 144.88,-401.67 96.47,-104.03 220.4,-156.2 372.15,-156.2 78.27,0 154.49,16.13 228.3,48.4l0 104.37c-73.81,-45.66 -154.83,-68.32 -242.37,-68.32 -120.85,0 -218.69,43.25 -293.88,130.11 -75.18,86.86 -112.6,199.13 -112.6,337.13 0,133.2 34.33,240.66 102.99,321.68 68.66,81.02 159.64,121.53 272.25,121.53 102.99,0 192.94,-27.46 269.49,-82.39l0 96.47zm862.73 45.66l0 -206.33 -3.78 0c-32.96,70.38 -80.68,126.34 -143.5,168.22 -62.48,41.89 -132.17,62.83 -208.73,62.83 -97.84,0 -175.09,-27.46 -232.07,-82.39 -57,-54.93 -85.48,-124.28 -85.48,-208.05 0,-179.55 118.78,-288.03 357.04,-325.46l316.53 -47.38c0,-221.09 -83.08,-331.63 -249.24,-331.63 -113.3,0 -223.5,45.66 -330.95,136.98l0 -111.92c38.1,-30.21 89.95,-55.96 155.51,-77.24 65.23,-21.63 126.68,-32.27 184.36,-32.27 106.09,0 188.13,32.96 246.15,98.53 58.02,65.57 86.86,161.35 86.86,286.66l0 669.45 -92.7 0zm-283.57 -512.9c-107.8,15.45 -183.67,40.51 -227.27,74.84 -43.6,34.67 -65.23,90.63 -65.23,168.22 0,61.11 20.26,111.23 60.77,150.71 40.51,39.48 97.16,59.39 169.59,59.39 99.22,0 181.62,-36.73 247.19,-109.86 65.92,-73.47 98.53,-168.22 98.53,-283.91l0 -100.59 -283.57 41.2zm685.93 512.9l0 -1524.29 92.69 0 0 1524.29 -92.69 0zm1089.32 -45.66c-76.56,47.03 -167.54,70.38 -273.62,70.38 -140.07,0 -253.02,-48.06 -338.85,-144.19 -85.83,-96.13 -128.73,-222.12 -128.73,-377.3 0,-163.76 48.06,-297.3 144.87,-401.67 96.47,-104.03 220.4,-156.2 372.15,-156.2 78.27,0 154.48,16.13 228.3,48.4l0 104.37c-73.81,-45.66 -154.83,-68.32 -242.37,-68.32 -120.85,0 -218.69,43.25 -293.87,130.11 -75.19,86.86 -112.61,199.13 -112.61,337.13 0,133.2 34.33,240.66 102.99,321.68 68.66,81.02 159.64,121.53 272.25,121.53 102.99,0 192.94,-27.46 269.49,-82.39l0 96.47zm927.28 45.66l0 -187.45 -4.12 0c-71.75,141.44 -182.3,212.17 -331.98,212.17 -243.4,0 -364.94,-153.12 -364.94,-459.34l0 -595.3 93.38 0 0 571.95c0,139.38 23,240.66 69.01,303.83 46,62.83 118.1,94.41 216.63,94.41 96.12,0 173.71,-35.36 233.11,-105.74 59.39,-70.38 88.92,-164.1 88.92,-281.17l0 -583.28 92.34 0 0 1029.92 -92.34 0zm422.26 0l0 -1524.29 92.69 0 0 1524.29 -92.69 0zm1037.82 0l0 -206.33 -3.78 0c-32.96,70.38 -80.68,126.34 -143.5,168.22 -62.49,41.89 -132.17,62.83 -208.73,62.83 -97.84,0 -175.09,-27.46 -232.08,-82.39 -56.99,-54.93 -85.48,-124.28 -85.48,-208.05 0,-179.55 118.78,-288.03 357.03,-325.46l316.53 -47.38c0,-221.09 -83.08,-331.63 -249.24,-331.63 -113.3,0 -223.5,45.66 -330.95,136.98l0 -111.92c38.11,-30.21 89.95,-55.96 155.52,-77.24 65.23,-21.63 126.68,-32.27 184.36,-32.27 106.08,0 188.13,32.96 246.15,98.53 58.02,65.57 86.86,161.35 86.86,286.66l0 669.45 -92.69 0zm-283.57 -512.9c-107.8,15.45 -183.67,40.51 -227.27,74.84 -43.6,34.67 -65.23,90.63 -65.23,168.22 0,61.11 20.25,111.23 60.77,150.71 40.51,39.48 97.16,59.39 169.59,59.39 99.22,0 181.61,-36.73 247.18,-109.86 65.92,-73.47 98.53,-168.22 98.53,-283.91l0 -100.59 -283.57 41.2zm1093.43 498.82c-48.41,23 -93.38,34.67 -135.61,34.67 -152.43,0 -228.64,-91.32 -228.64,-273.62l0 -692.45 -185.05 0 0 -84.45 185.05 0 0 -267.44c14.76,-5.49 30.21,-10.64 46.34,-16.13 16.14,-4.81 31.59,-9.62 46.35,-15.11l0 298.68 271.56 0 0 84.45 -271.56 0 0 679.41c0,71.06 11.33,122.56 33.65,154.48 22.65,31.93 60.42,47.72 114.32,47.72 38.11,0 79.31,-12.36 123.59,-37.07l0 86.85zm690.05 -918.69c-30.89,-22.32 -67.29,-33.3 -108.83,-33.3 -81.02,0 -149,41.88 -204.26,125.65 -54.93,83.77 -82.4,202.9 -82.4,356.7l0 483.72 -90.64 0 0 -1029.92 90.64 0 0 227.96 4.12 0c23.34,-78.62 60.77,-139.73 111.58,-183.33 50.81,-43.6 109.86,-65.23 177.15,-65.23 38.1,0 72.43,6.18 102.65,18.2l0 99.56zm238.94 -356.7c-19.91,0 -37.76,-7.21 -53.21,-21.97 -15.45,-14.76 -23,-33.64 -23,-56.3 0,-21.96 7.9,-39.82 23.34,-53.55 15.8,-13.73 33.65,-20.6 52.87,-20.6 20.94,0 39.14,6.52 54.93,19.91 15.8,13.4 23.69,31.59 23.69,54.24 0,21.29 -7.9,39.83 -23.34,55.28 -15.11,15.45 -33.65,23 -55.28,23zm-45.32 1289.47l0 -1029.92 92.7 0 0 1029.92 -92.7 0zm1089.32 -45.66c-76.55,47.03 -167.53,70.38 -273.62,70.38 -140.07,0 -253.02,-48.06 -338.84,-144.19 -85.83,-96.13 -128.74,-222.12 -128.74,-377.3 0,-163.76 48.06,-297.3 144.87,-401.67 96.47,-104.03 220.4,-156.2 372.15,-156.2 78.27,0 154.49,16.13 228.3,48.4l0 104.37c-73.81,-45.66 -154.83,-68.32 -242.37,-68.32 -120.84,0 -218.69,43.25 -293.87,130.11 -75.19,86.86 -112.6,199.13 -112.6,337.13 0,133.2 34.33,240.66 102.99,321.68 68.66,81.02 159.64,121.53 272.25,121.53 102.99,0 192.94,-27.46 269.49,-82.39l0 96.47zm269.5 -465.19c0,141.45 32.61,251.99 98.18,331.64 65.22,79.64 154.83,119.47 268.81,119.47 115.35,0 227.96,-42.57 338.16,-127.71l0 98.53c-106.77,75.87 -225.9,113.63 -357.04,113.63 -132.86,0 -240.32,-47.72 -322.02,-142.81 -81.7,-95.1 -122.56,-229.33 -122.56,-403.05 0,-150.03 42.57,-276.36 128.05,-379.36 85.48,-102.65 196.72,-154.14 333.35,-154.14 128.05,0 226.58,44.97 294.9,134.58 68.32,89.94 102.65,212.5 102.65,368.02l0 41.19 -762.48 0zm665.68 -84.45c-3.78,-118.44 -32.27,-210.78 -85.49,-276.36 -52.87,-65.57 -125.99,-98.53 -219.03,-98.53 -96.81,0 -176.46,32.27 -239.98,97.15 -63.51,64.54 -102.3,157.24 -117.07,277.73l661.56 0zm1647.53 595.3l0 -187.45 -3.78 0c-33.64,65.23 -83.42,116.72 -148.99,154.83 -65.57,38.11 -139.73,57.33 -222.12,57.33 -127.02,0 -230.36,-46.35 -310.35,-138.7 -80.34,-92.35 -120.16,-220.06 -120.16,-382.79 0,-166.16 43.6,-300.73 131.14,-403.73 87.55,-102.65 200.83,-154.14 340.56,-154.14 154.14,0 264,63.16 329.91,189.84l3.78 0 0 -659.49 92.69 0 0 1524.29 -92.69 0zm0 -626.53c0,-95.79 -30.21,-177.15 -90.98,-243.75 -60.42,-66.61 -142.13,-99.9 -244.78,-99.9 -108.14,0 -197.06,41.19 -267.44,123.93 -70.38,82.74 -105.74,196.72 -105.74,341.25 0,142.13 31.58,251.64 95.09,329.23 63.17,77.24 144.87,116.03 244.78,116.03 117.41,0 208.39,-36.39 272.59,-109.17 64.54,-72.43 96.47,-161.01 96.47,-265.72l0 -191.91zm444.59 115.69c0,141.45 32.61,251.99 98.18,331.64 65.22,79.64 154.83,119.47 268.81,119.47 115.35,0 227.96,-42.57 338.16,-127.71l0 98.53c-106.77,75.87 -225.9,113.63 -357.04,113.63 -132.86,0 -240.32,-47.72 -322.02,-142.81 -81.7,-95.1 -122.56,-229.33 -122.56,-403.05 0,-150.03 42.57,-276.36 128.05,-379.36 85.48,-102.65 196.72,-154.14 333.35,-154.14 128.05,0 226.58,44.97 294.9,134.58 68.32,89.94 102.65,212.5 102.65,368.02l0 41.19 -762.48 0zm665.68 -84.45c-3.78,-118.44 -32.27,-210.78 -85.49,-276.36 -52.87,-65.57 -125.99,-98.53 -219.03,-98.53 -96.81,0 -176.46,32.27 -239.98,97.15 -63.51,64.54 -102.3,157.24 -117.07,277.73l661.56 0zm1327.92 -755.96l0 1351.26 -98.53 0 0 -1351.26 -416.43 0 0 -90.63 931.39 0 0 90.63 -416.43 0zm1119.18 1351.26l-74.5 0 -526.98 -1441.89 111.57 0 417.46 1161.41c17.51,48.06 29.86,93.72 37.42,136.63l3.77 0c6.87,-33.98 20.6,-80.33 41.2,-138.69l443.55 -1159.35 106.77 0 -560.28 1441.89zm1643.41 0l-164.79 -449.05 -625.51 0 -165.13 449.05 -109.51 0 544.14 -1441.89 94.41 0 538.3 1441.89 -111.92 0zm-442.52 -1206.73c-7.21,-19.91 -13.39,-39.82 -17.85,-59.05 -4.81,-16.82 -9.96,-33.64 -15.11,-50.47l-4.11 0c-11.33,44.29 -22.32,80.34 -33.3,107.8l-242.38 668.77 556.16 0 -243.41 -667.05zm1289.46 1161.07l0 -111.58c35.02,30.21 77.25,53.9 126.68,71.41 49.78,17.51 92.69,26.09 128.74,26.09 161.69,0 242.37,-65.91 242.37,-198.09 0,-45.32 -17.5,-84.11 -53.2,-116.38 -35.36,-32.27 -93.04,-65.22 -173.03,-99.56 -98.52,-42.92 -167.88,-87.21 -207.69,-133.21 -39.83,-46 -59.74,-101.62 -59.74,-167.19 0,-83.76 31.92,-151.4 96.12,-203.24 63.86,-51.49 142.82,-77.24 236.88,-77.24 88.58,0 164.1,18.19 227.27,54.24l0 104.71c-76.55,-49.78 -155.52,-74.5 -237.57,-74.5 -67.63,0 -122.22,17.51 -163.76,52.87 -41.54,35.02 -62.48,80.68 -62.48,136.98 0,49.09 13.04,88.57 39.14,119.13 26.43,30.55 84.11,65.57 173.02,105.05 107.46,48.07 181.27,93.04 221.43,134.23 40.17,41.2 60.42,95.78 60.42,164.1 0,81.71 -30.9,149.34 -92.01,202.55 -61.45,53.21 -146.25,79.99 -254.05,79.99 -99.21,0 -181.95,-23.34 -248.55,-70.38zm898.09 -1243.8c-19.91,0 -37.76,-7.21 -53.21,-21.97 -15.45,-14.76 -23,-33.64 -23,-56.3 0,-21.96 7.9,-39.82 23.34,-53.55 15.79,-13.73 33.65,-20.6 52.87,-20.6 20.94,0 39.14,6.52 54.93,19.91 15.79,13.4 23.69,31.59 23.69,54.24 0,21.29 -7.9,39.83 -23.34,55.28 -15.1,15.45 -33.65,23 -55.28,23zm-45.31 1289.47l0 -1029.92 92.69 0 0 1029.92 -92.69 0zm1713.79 0l0 -619.33c0,-129.43 -20.25,-220.06 -60.76,-272.58 -40.51,-52.19 -104.71,-78.27 -192.6,-78.27 -81.02,0 -151.05,35.01 -210.1,104.71 -59.05,69.69 -88.57,156.89 -88.57,262.29l0 603.19 -92.69 0 0 -626.2c0,-229.33 -87.2,-343.99 -261.26,-343.99 -84.11,0 -153.8,35.01 -209.41,105.05 -55.62,70.04 -83.43,160.67 -83.43,271.9l0 593.24 -92.7 0 0 -1029.92 92.7 0 0 171.31 4.11 0c71.75,-130.8 176.46,-196.03 314.82,-196.03 74.84,0 139.04,21.63 192.59,64.88 53.21,43.26 89.26,99.9 108.15,170.28 31.92,-74.15 78.27,-132.17 138.35,-173.37 59.74,-41.19 124.96,-61.79 195.35,-61.79 225.55,0 338.15,139.38 338.15,418.15l0 636.49 -92.69 0zm498.14 -183.33l-4.12 0 0 657.09 -92.69 0 0 -1503.68 92.69 0 0 212.51 4.12 0c36.74,-75.87 89.6,-134.24 158.27,-175.43 68.66,-41.19 144.53,-61.79 226.93,-61.79 130.8,0 232.76,44.97 306.23,135.26 73.47,89.95 110.21,212.51 110.21,367.34 0,172 -42.23,311.38 -126.34,417.46 -84.11,106.08 -195.35,159.29 -333.36,159.29 -154.14,0 -268.12,-69.34 -341.93,-208.05zm-4.12 -382.78l0 129.43c0,103.34 32.61,191.91 97.5,266.06 65.23,73.82 150.71,110.89 256.45,110.89 105.4,0 190.88,-44.97 256.45,-135.26 65.92,-89.94 98.53,-208.38 98.53,-354.98 0,-128.73 -29.86,-231.04 -90.29,-306.57 -60.42,-75.87 -140.75,-113.63 -241.35,-113.63 -120.16,0 -212.85,40.17 -278.76,120.5 -65.57,80.33 -98.53,175.08 -98.53,283.57zm1060.82 566.11l0 -1524.29 92.69 0 0 1524.29 -92.69 0zm444.58 -510.85c0,141.45 32.62,251.99 98.19,331.64 65.22,79.64 154.83,119.47 268.81,119.47 115.35,0 227.96,-42.57 338.16,-127.71l0 98.53c-106.77,75.87 -225.9,113.63 -357.04,113.63 -132.86,0 -240.32,-47.72 -322.02,-142.81 -81.71,-95.1 -122.56,-229.33 -122.56,-403.05 0,-150.03 42.57,-276.36 128.05,-379.36 85.48,-102.65 196.72,-154.14 333.35,-154.14 128.05,0 226.59,44.97 294.9,134.58 68.32,89.94 102.65,212.5 102.65,368.02l0 41.19 -762.49 0zm665.68 -84.45c-3.78,-118.44 -32.27,-210.78 -85.49,-276.36 -52.87,-65.57 -125.99,-98.53 -219.03,-98.53 -96.81,0 -176.46,32.27 -239.98,97.15 -63.51,64.54 -102.3,157.24 -117.07,277.73l661.56 0zm938.6 84.45c0,141.45 32.62,251.99 98.19,331.64 65.22,79.64 154.83,119.47 268.81,119.47 115.35,0 227.96,-42.57 338.16,-127.71l0 98.53c-106.77,75.87 -225.9,113.63 -357.04,113.63 -132.86,0 -240.32,-47.72 -322.02,-142.81 -81.71,-95.1 -122.56,-229.33 -122.56,-403.05 0,-150.03 42.57,-276.36 128.05,-379.36 85.48,-102.65 196.72,-154.14 333.35,-154.14 128.06,0 226.59,44.97 294.91,134.58 68.32,89.94 102.65,212.5 102.65,368.02l0 41.19 -762.49 0zm665.68 -84.45c-3.78,-118.44 -32.27,-210.78 -85.49,-276.36 -52.87,-65.57 -125.99,-98.53 -219.03,-98.53 -96.81,0 -176.46,32.27 -239.98,97.15 -63.51,64.54 -102.3,157.24 -117.07,277.73l661.56 0zm759.39 581.23c-48.4,23 -93.37,34.67 -135.6,34.67 -152.43,0 -228.64,-91.32 -228.64,-273.62l0 -692.45 -185.04 0 0 -84.45 185.04 0 0 -267.44c14.76,-5.49 30.21,-10.64 46.35,-16.13 16.13,-4.81 31.58,-9.62 46.34,-15.11l0 298.68 271.56 0 0 84.45 -271.56 0 0 679.41c0,71.06 11.33,122.56 33.65,154.48 22.65,31.93 60.42,47.72 114.31,47.72 38.11,0 79.31,-12.36 123.59,-37.07l0 86.85zm790.64 -496.77c0,141.45 32.61,251.99 98.18,331.64 65.23,79.64 154.84,119.47 268.81,119.47 115.35,0 227.96,-42.57 338.16,-127.71l0 98.53c-106.77,75.87 -225.9,113.63 -357.04,113.63 -132.86,0 -240.32,-47.72 -322.03,-142.81 -81.7,-95.1 -122.56,-229.33 -122.56,-403.05 0,-150.03 42.58,-276.36 128.05,-379.36 85.48,-102.65 196.72,-154.14 333.35,-154.14 128.05,0 226.59,44.97 294.9,134.58 68.32,89.94 102.65,212.5 102.65,368.02l0 41.19 -762.48 0zm665.68 -84.45c-3.78,-118.44 -32.28,-210.78 -85.49,-276.36 -52.87,-65.57 -126,-98.53 -219.03,-98.53 -96.81,0 -176.46,32.27 -239.98,97.15 -63.51,64.54 -102.3,157.24 -117.07,277.73l661.56 0zm508.09 -473.76l480.63 0 0 -234.14c0,-181.61 85.15,-272.58 255.43,-272.58 12.7,0 48.4,3.09 106.77,8.92l-12.36 73.47c-39.48,-6.87 -70.73,-10.3 -94.41,-10.3 -116.73,0 -175.09,65.91 -175.09,198.09l0 236.54 246.49 0 0 70.03 -246.49 0 0 961.95 -80.34 0 0 -961.95 -480.63 0 0 961.95 -80.67 0 0 -961.95 -193.97 0 0 -70.03 193.97 0 0 -210.1c0,-95.78 29.87,-170.97 89.6,-225.21 52.87,-47.71 121.19,-71.41 204.27,-71.41 42.91,0 89.26,5.15 139.72,15.11l-12.01 73.47c-40.86,-10.99 -83.43,-16.48 -127.71,-16.48 -69.7,0 -123.94,21.63 -162.04,65.23 -34.33,39.82 -51.16,92 -51.16,157.23l0 212.17zm1123.3 0l0 1031.98 -80.33 0 0 -1031.98 80.33 0zm25.06 -364.59l0 138.01 -129.76 0 0 -138.01 129.76 0zm995.94 1387.99c-76.56,47.03 -167.54,70.38 -273.62,70.38 -140.07,0 -253.02,-48.06 -338.85,-144.19 -85.83,-96.13 -128.74,-222.12 -128.74,-377.3 0,-163.76 48.07,-297.3 144.88,-401.67 96.47,-104.03 220.4,-156.2 372.15,-156.2 78.27,0 154.49,16.13 228.3,48.4l0 104.37c-73.81,-45.66 -154.83,-68.32 -242.37,-68.32 -120.85,0 -218.69,43.25 -293.88,130.11 -75.18,86.86 -112.6,199.13 -112.6,337.13 0,133.2 34.33,240.66 102.99,321.68 68.66,81.02 159.64,121.53 272.24,121.53 102.99,0 192.94,-27.46 269.5,-82.39l0 96.47zm862.73 45.66l0 -206.33 -3.78 0c-32.96,70.38 -80.68,126.34 -143.5,168.22 -62.48,41.89 -132.17,62.83 -208.73,62.83 -97.84,0 -175.09,-27.46 -232.07,-82.39 -57,-54.93 -85.48,-124.28 -85.48,-208.05 0,-179.55 118.78,-288.03 357.04,-325.46l316.53 -47.38c0,-221.09 -83.08,-331.63 -249.24,-331.63 -113.3,0 -223.5,45.66 -330.95,136.98l0 -111.92c38.1,-30.21 89.94,-55.96 155.51,-77.24 65.23,-21.63 126.68,-32.27 184.36,-32.27 106.08,0 188.13,32.96 246.15,98.53 58.02,65.57 86.86,161.35 86.86,286.66l0 669.45 -92.7 0zm-283.57 -512.9c-107.8,15.45 -183.67,40.51 -227.27,74.84 -43.6,34.67 -65.23,90.63 -65.23,168.22 0,61.11 20.26,111.23 60.77,150.71 40.51,39.48 97.16,59.39 169.59,59.39 99.22,0 181.62,-36.73 247.19,-109.86 65.92,-73.47 98.53,-168.22 98.53,-283.91l0 -100.59 -283.57 41.2zm1352.98 467.24c-76.55,47.03 -167.53,70.38 -273.62,70.38 -140.06,0 -253.02,-48.06 -338.84,-144.19 -85.83,-96.13 -128.74,-222.12 -128.74,-377.3 0,-163.76 48.06,-297.3 144.87,-401.67 96.47,-104.03 220.41,-156.2 372.15,-156.2 78.27,0 154.49,16.13 228.3,48.4l0 104.37c-73.81,-45.66 -154.83,-68.32 -242.37,-68.32 -120.84,0 -218.69,43.25 -293.87,130.11 -75.18,86.86 -112.6,199.13 -112.6,337.13 0,133.2 34.33,240.66 102.99,321.68 68.66,81.02 159.64,121.53 272.25,121.53 102.99,0 192.94,-27.46 269.49,-82.39l0 96.47zm269.5 -465.19c0,141.45 32.61,251.99 98.18,331.64 65.23,79.64 154.83,119.47 268.81,119.47 115.35,0 227.96,-42.57 338.16,-127.71l0 98.53c-106.77,75.87 -225.9,113.63 -357.04,113.63 -132.86,0 -240.32,-47.72 -322.03,-142.81 -81.7,-95.1 -122.56,-229.33 -122.56,-403.05 0,-150.03 42.57,-276.36 128.05,-379.36 85.48,-102.65 196.72,-154.14 333.35,-154.14 128.05,0 226.58,44.97 294.9,134.58 68.32,89.94 102.65,212.5 102.65,368.02l0 41.19 -762.48 0zm665.68 -84.45c-3.78,-118.44 -32.27,-210.78 -85.49,-276.36 -52.87,-65.57 -125.99,-98.53 -219.03,-98.53 -96.81,0 -176.46,32.27 -239.97,97.15 -63.51,64.54 -102.3,157.24 -117.07,277.73l661.56 0z"/>
 </g>
</svg>
