<?xml version="1.0" encoding="UTF-8"?>
<!DOCTYPE svg PUBLIC "-//W3C//DTD SVG 1.1//EN" "http://www.w3.org/Graphics/SVG/1.1/DTD/svg11.dtd">
<!-- Creator: CorelDRAW 2021 (64-Bit) -->
<svg xmlns="http://www.w3.org/2000/svg" xml:space="preserve" width="419.624mm" height="209.135mm" version="1.1" style="shape-rendering:geometricPrecision; text-rendering:geometricPrecision; image-rendering:optimizeQuality; fill-rule:evenodd; clip-rule:evenodd"
viewBox="0 0 14900.4 7426.16"
 xmlns:xlink="http://www.w3.org/1999/xlink"
 xmlns:xodm="http://www.corel.com/coreldraw/odm/2003">
 <defs>
  <style type="text/css">
   <![CDATA[
    .str0 {stroke:#EBECEC;stroke-width:50.11;stroke-linecap:round;stroke-linejoin:round;stroke-miterlimit:22.9256}
    .fil0 {fill:none}
   ]]>
  </style>
 </defs>
 <g id="Plan_x0020_1">
  <metadata id="CorelCorpID_0Corel-Layer"/>
  <polygon class="fil0 str0" points="1343.4,512.02 1117.73,25.06 1865.99,452.65 "/>
  <polygon class="fil0 str0" points="1865.99,452.65 2614.19,1343.4 2483.57,820.81 "/>
  <polyline class="fil0 str0" points="2483.57,820.81 3041.78,1082.11 3433.69,1533.39 2566.29,1286.28 2602.31,1675.94 3433.69,1533.39 3588.12,2174.78 2602.31,1675.94 2400.45,2341.02 3588.12,2174.78 2958.66,3386.2 2400.45,2341.02 2269.77,3433.7 1521.57,2922.98 2400.45,2341.02 1509.7,1806.56 2602.31,1675.94 "/>
  <polygon class="fil0 str0" points="1248.4,2673.56 618.89,2008.48 1842.24,2269.78 "/>
  <polygon class="fil0 str0" points="844.56,820.81 25.06,903.94 1010.86,1331.53 "/>
  <polygon class="fil0 str0" points="1046.48,3196.15 488.27,2922.98 1521.57,2922.98 "/>
  <line class="fil0 str0" x1="1046.48" y1="3196.15" x2="3101.15" y2= "4276.95" />
  <polyline class="fil0 str0" points="3039.99,4244.73 2269.77,3433.7 1046.48,3196.15 "/>
  <polygon class="fil0 str0" points="3873.16,3540.57 3588.12,2174.78 4633.29,2673.56 "/>
  <polygon class="fil0 str0" points="3493.12,4110.65 2958.66,3386.2 3873.16,3540.57 "/>
  <polyline class="fil0 str0" points="2958.66,3386.2 3101.15,4276.95 4015.65,4989.59 4086.96,4395.7 3472.55,4566.32 3493.12,4110.65 4086.96,4395.7 4502.62,5120.21 5286.5,4538.25 4086.96,4395.7 "/>
  <polygon class="fil0 str0" points="3873.16,3540.57 4180.69,4406.82 4728.29,3219.9 "/>
  <line class="fil0 str0" x1="4015.65" y1="4989.59" x2="4502.62" y2= "5120.21" />
  <polyline class="fil0 str0" points="3041.78,1082.11 4918.34,2055.98 3588.12,2174.78 3980.09,1628.45 "/>
  <line class="fil0 str0" x1="4576.11" y1="2646.24" x2="5143.95" y2= "2091.6" />
  <line class="fil0 str0" x1="2232.55" y1="3426.47" x2="2958.66" y2= "3386.2" />
  <polyline class="fil0 str0" points="5143.95,2091.6 5306.03,2548.68 4633.29,2673.57 4728.29,3219.9 5306.03,2548.68 5453.9,2659.59 4728.29,3219.9 5574.03,3503.48 5286.5,4538.24 4728.29,3219.9 "/>
  <polyline class="fil0 str0" points="5286.5,4538.24 5209.78,5339.01 4502.62,5120.21 "/>
  <polyline class="fil0 str0" points="5209.78,5339.01 5945.24,5002.06 5286.5,4538.24 6376.49,4388.59 5945.24,5002.06 6655.89,5190.35 "/>
  <polyline class="fil0 str0" points="6610.54,5178.33 6099.89,5428.53 5945.24,5002.06 5907.1,5492.79 6098.08,5423.53 "/>
  <polyline class="fil0 str0" points="5941.33,5052.38 5553.64,5645.41 5907.1,5492.79 "/>
  <polyline class="fil0 str0" points="5558.43,5645.41 5296.58,5653.45 5945.24,5002.06 "/>
  <polygon class="fil0 str0" points="4555.52,5351.93 5209.78,5339.01 5296.58,5653.45 "/>
  <line class="fil0 str0" x1="4555.52" y1="5351.93" x2="4015.65" y2= "4989.58" />
  <polyline class="fil0 str0" points="6173.41,5392.49 6341.84,5520.8 6610.54,5178.33 6425.73,5709.38 6341.84,5520.8 "/>
  <polyline class="fil0 str0" points="6655.89,5190.35 6925.61,5515.38 6425.73,5709.38 "/>
  <polygon class="fil0 str0" points="6376.49,4388.59 6610.54,5178.33 7028.88,4810.71 "/>
  <polygon class="fil0 str0" points="6154.11,3711.18 6376.49,4388.59 6731.21,3686.87 "/>
  <polyline class="fil0 str0" points="6154.11,3711.18 5574.03,3503.48 6376.49,4388.59 "/>
  <polyline class="fil0 str0" points="5574.03,3503.48 6044.77,3128 6154.11,3711.18 "/>
  <line class="fil0 str0" x1="6731.21" y1="3686.87" x2="6044.77" y2= "3128" />
  <polyline class="fil0 str0" points="5574.03,3503.48 5453.9,2659.59 6044.77,3128 "/>
  <polyline class="fil0 str0" points="5690.99,2847.53 5956.7,2835.12 6044.77,3128 6326.97,2807.16 5956.7,2835.12 "/>
  <polyline class="fil0 str0" points="6326.97,2807.16 6620.4,3065.66 6044.77,3128 "/>
  <polygon class="fil0 str0" points="7423.81,3498.8 6620.4,3065.66 6731.21,3686.87 "/>
  <polyline class="fil0 str0" points="6620.4,3065.66 6557.88,2718.15 6326.97,2807.16 "/>
  <polyline class="fil0 str0" points="6557.88,2718.15 6716.36,2649.47 6620.4,3065.66 "/>
  <polyline class="fil0 str0" points="6716.36,2649.47 6906.54,2749.85 6620.4,3065.66 7841.58,2945.31 6906.54,2749.85 "/>
  <polyline class="fil0 str0" points="7841.58,2945.31 7423.81,3498.8 7112.56,4223.72 6731.21,3686.87 "/>
  <polyline class="fil0 str0" points="6376.49,4388.59 7112.55,4223.72 7028.88,4810.71 7852.14,4545.98 7112.56,4223.72 7963.08,3964.88 7423.81,3498.8 8237.78,3124.92 7841.58,2945.31 "/>
  <polyline class="fil0 str0" points="8237.78,3124.92 8327.59,3790.54 7423.81,3498.8 "/>
  <polyline class="fil0 str0" points="8327.59,3790.54 7963.08,3964.88 7852.14,4545.98 7336.64,5473.51 7028.88,4810.71 "/>
  <polyline class="fil0 str0" points="6610.54,5178.33 7336.64,5473.51 6925.61,5515.38 6538.02,5826.26 6425.73,5709.38 "/>
  <polyline class="fil0 str0" points="6538.02,5826.26 6781.71,5914.14 6925.61,5515.38 6977.45,5934.12 6781.71,5914.14 "/>
  <polyline class="fil0 str0" points="6925.61,5515.38 7245.09,5806.29 6977.45,5934.12 "/>
  <polyline class="fil0 str0" points="7336.64,5473.51 7245.09,5806.29 7177.19,6045.97 6977.45,5934.12 "/>
  <polyline class="fil0 str0" points="7177.19,6045.97 7432.85,6105.89 7245.09,5806.29 7636.58,5830.25 7432.85,6105.89 "/>
  <polyline class="fil0 str0" points="7636.58,5830.25 7336.64,5473.51 8064.02,5278.98 7852.14,4545.98 "/>
  <polyline class="fil0 str0" points="7963.08,3964.88 8368.67,4910.56 7852.14,4545.98 "/>
  <polyline class="fil0 str0" points="8368.67,4910.56 8064.02,5278.98 8368.67,5826.57 7336.64,5473.51 "/>
  <polygon class="fil0 str0" points="8119.59,6035.49 7636.58,5830.25 8368.67,5826.57 "/>
  <polyline class="fil0 str0" points="7636.58,5830.25 7974.94,6123.88 7432.85,6105.89 7701.75,6340.83 7974.94,6123.88 8119.59,6035.49 8473.13,6276.55 7974.94,6123.88 8095.48,6517.6 7701.75,6340.83 "/>
  <polygon class="fil0 str0" points="8585.62,6421.18 8095.48,6517.6 8473.13,6276.55 "/>
  <polygon class="fil0 str0" points="8320.46,6830.97 8095.48,6517.6 8489.2,6750.62 "/>
  <line class="fil0 str0" x1="8489.2" y1="6750.62" x2="8585.62" y2= "6421.18" />
  <polyline class="fil0 str0" points="8473.13,6276.55 8513.3,6011.39 8119.59,6035.49 "/>
  <line class="fil0 str0" x1="8368.67" y1="5826.57" x2="8513.3" y2= "6011.39" />
  <polyline class="fil0 str0" points="8320.46,6830.97 8762.4,6959.54 8489.2,6750.62 "/>
  <polyline class="fil0 str0" points="8585.62,6421.18 8762.4,6959.54 8971.31,6742.58 8987.38,6959.54 8762.4,6959.54 "/>
  <polygon class="fil0 str0" points="8987.38,6959.54 9206.77,6950.74 9190.78,6822.89 "/>
  <polyline class="fil0 str0" points="9206.77,6950.74 9386.54,6774.95 9190.78,6822.89 8971.31,6742.58 8683.41,6718.97 "/>
  <polyline class="fil0 str0" points="8708.22,6721 8887.16,6407.42 8971.31,6742.58 9134.85,6591.19 8887.16,6407.42 8585.62,6421.18 8811.26,6203.67 8473.13,6276.55 "/>
  <polyline class="fil0 str0" points="8513.3,6011.39 8811.26,6203.67 8887.16,6407.42 9158.83,6391.44 9134.85,6591.19 9190.78,6822.89 "/>
  <polygon class="fil0 str0" points="9398.53,6591.19 9134.85,6591.19 9418.49,6746.99 "/>
  <polygon class="fil0 str0" points="9260.79,6281.52 8811.26,6203.67 9158.83,6391.44 9398.53,6591.19 9743.2,6621.5 9807.52,6460.7 9398.53,6591.19 9522.67,6332.06 9158.83,6391.44 "/>
  <polyline class="fil0 str0" points="8368.67,5826.57 8660.29,5849.65 8811.26,6203.67 "/>
  <polyline class="fil0 str0" points="8660.29,5849.65 8760.01,5426.97 8368.67,5826.57 "/>
  <polyline class="fil0 str0" points="8368.67,4910.56 8769.2,4990.51 8792.17,4627.55 8368.67,4910.56 8760.01,5426.97 8064.02,5278.98 "/>
  <polyline class="fil0 str0" points="8769.2,4990.51 8760.01,5426.97 9100,5688.84 8660.29,5849.65 "/>
  <polyline class="fil0 str0" points="8660.29,5849.65 9058.65,6060.99 9100,5688.84 "/>
  <polyline class="fil0 str0" points="8811.26,6203.67 9058.65,6060.99 9260.79,6281.52 9522.67,6332.06 9559.42,6038.02 9260.79,6281.52 "/>
  <polyline class="fil0 str0" points="9100,5688.84 9559.42,6038.02 9058.65,6060.99 "/>
  <polyline class="fil0 str0" points="9559.42,6038.02 9807.52,6203.41 9522.67,6332.06 9807.52,6460.7 9807.52,6203.41 10037.23,6318.27 9807.52,6460.7 "/>
  <polyline class="fil0 str0" points="9743.2,6621.5 9945.35,6543.4 10037.23,6318.27 "/>
  <polyline class="fil0 str0" points="9945.35,6543.4 10247.22,6229.04 10037.23,6318.27 10162.68,6059.96 9807.52,6203.41 9930.2,5864.46 9559.42,6038.02 9491.67,5668.98 9100,5688.84 9465.25,5378.38 9137.67,5383.66 9100,5688.84 "/>
  <polyline class="fil0 str0" points="8760.01,5426.97 9137.67,5383.66 8769.2,4990.51 9142.95,4945.12 9137.67,5383.66 "/>
  <polyline class="fil0 str0" points="9142.95,4945.12 9465.25,5378.38 9491.67,5668.98 9930.2,5864.46 10162.68,6059.96 10247.22,6229.04 10294.77,5816.91 10162.68,6059.96 "/>
  <polyline class="fil0 str0" points="9930.2,5864.46 10294.77,5816.91 9983.04,5668.98 10112.49,5840.69 "/>
  <polyline class="fil0 str0" points="9491.67,5669 9983.04,5669 9465.25,5378.38 "/>
  <polyline class="fil0 str0" points="9142.95,4945.12 8792.17,4627.55 7963.08,3964.88 "/>
  <polyline class="fil0 str0" points="7963.08,3964.88 8635.17,4141.95 8327.59,3790.54 8719.02,3429.19 8237.78,3124.92 "/>
  <polyline class="fil0 str0" points="8792.17,4627.55 9403.83,4533.27 9117.33,4246.77 8792.17,4627.55 8635.17,4141.95 "/>
  <polygon class="fil0 str0" points="9142.95,4945.12 9438.77,4924.58 9403.83,4533.27 "/>
  <line class="fil0 str0" x1="9438.77" y1="4924.58" x2="9465.25" y2= "5378.38" />
  <polygon class="fil0 str0" points="9040.47,3722.68 9117.33,4246.77 8635.17,4141.95 "/>
  <polyline class="fil0 str0" points="8327.59,3790.54 9040.47,3722.68 8719.02,3429.19 "/>
  <polyline class="fil0 str0" points="6716.36,2649.47 7325.89,2550.71 7841.58,2945.31 8146.22,2763.39 8237.78,3124.92 "/>
  <polyline class="fil0 str0" points="8237.78,3124.92 8614.1,3121.89 8146.22,2763.39 7325.89,2550.71 "/>
  <polygon class="fil0 str0" points="8719.02,3429.19 9136.68,3383.18 8614.1,3121.89 "/>
  <polygon class="fil0 str0" points="9040.47,3722.68 9501.26,3778.15 9136.68,3383.18 "/>
  <polyline class="fil0 str0" points="9040.47,3722.68 9373.66,3990.83 9501.26,3778.15 "/>
  <polygon class="fil0 str0" points="9373.66,3990.83 9634.94,4185.27 9117.33,4246.77 "/>
  <polyline class="fil0 str0" points="9501.26,3778.15 9634.94,4185.27 9403.83,4533.27 9799,4300.72 9634.94,4185.27 "/>
  <polyline class="fil0 str0" points="9799,4300.72 10035.99,4932.67 9403.83,4533.27 "/>
  <polyline class="fil0 str0" points="9465.25,5378.38 10035.99,4932.67 9438.77,4924.58 "/>
  <polyline class="fil0 str0" points="9465.25,5378.38 10193.97,5388.41 10035.99,4932.67 "/>
  <polyline class="fil0 str0" points="10193.97,5388.41 10804.34,5920.93 10294.77,5816.91 10193.97,5388.41 9983.04,5668.98 "/>
  <polyline class="fil0 str0" points="10636.7,5774.67 11000.13,5797.07 10804.34,5920.93 "/>
  <polyline class="fil0 str0" points="10636.7,5774.67 11127.98,5605.29 11000.13,5797.07 "/>
  <polyline class="fil0 str0" points="11127.98,5605.29 11108,5165.78 10981.08,5655.93 "/>
  <polyline class="fil0 str0" points="11036.09,5345.57 10852.29,5429.49 10981.08,5655.93 "/>
  <line class="fil0 str0" x1="10852.29" y1="5429.49" x2="10636.7" y2= "5774.67" />
  <polygon class="fil0 str0" points="10193.97,5388.41 10600.57,5429.49 10468.73,5029.93 "/>
  <polyline class="fil0 str0" points="10636.7,5774.67 10600.57,5429.49 10852.29,5429.49 "/>
  <polyline class="fil0 str0" points="10468.73,5029.93 10748.42,4902.08 11108,5165.78 "/>
  <polyline class="fil0 str0" points="11000.27,5086.76 10852.29,5429.49 10748.42,4902.08 10600.57,5429.49 "/>
  <line class="fil0 str0" x1="10035.99" y1="4932.67" x2="10468.73" y2= "5029.93" />
  <line class="fil0 str0" x1="10748.42" y1="4902.08" x2="9799" y2= "4300.72" />
  <polyline class="fil0 str0" points="10035.99,4932.67 10335.22,4640.35 10468.73,5029.93 "/>
  <polygon class="fil0 str0" points="13753.75,1509 14062,1094.44 13307.31,1381.44 "/>
  <polygon class="fil0 str0" points="14875.35,2155.34 13573.97,2684.78 13315.37,1860.06 "/>
  <polygon class="fil0 str0" points="14682.43,3103.79 13412.5,3553.9 13557.16,3095.76 "/>
  <polygon class="fil0 str0" points="13324.06,3722.69 13227.62,4044.2 14344.86,3642.31 "/>
  <polyline class="fil0 str0" points="13227.62,4044.22 12705.16,4196.92 13324.06,3722.71 12496.18,3795.03 12865.92,3208.28 13324.06,3722.69 "/>
  <polygon class="fil0 str0" points="12890.03,1906.17 12865.92,3208.28 13573.97,2684.78 "/>
  <polyline class="fil0 str0" points="12865.92,3208.28 12279.17,2734.05 12890.03,1906.17 13307.31,1381.44 12817.69,1552.52 12890.03,1906.17 "/>
  <polyline class="fil0 str0" points="12817.69,1552.52 12214.87,1994.58 12890.03,1906.17 "/>
  <polyline class="fil0 str0" points="12214.87,1994.58 12279.17,2734.05 11708.48,3256.51 12865.92,3208.28 "/>
  <polyline class="fil0 str0" points="12496.18,3795.03 11756.71,4558.62 12705.16,4196.92 12515.2,3764.85 11708.48,3256.51 "/>
  <polyline class="fil0 str0" points="11756.71,4558.62 11354.83,4293.37 12126.45,4176.83 11660.27,3787 12527.28,3792.31 "/>
  <polyline class="fil0 str0" points="10768.08,3489.6 11708.48,3256.51 11660.27,3787 11354.83,4293.37 10768.08,3489.6 11660.27,3787 "/>
  <polyline class="fil0 str0" points="11708.48,3256.51 11684.37,2525.07 12279.17,2734.05 "/>
  <line class="fil0 str0" x1="12214.87" y1="1994.58" x2="11684.37" y2= "2525.07" />
  <polyline class="fil0 str0" points="11354.83,2147.3 12214.87,1994.58 11250.34,2364.32 11354.83,2147.3 12817.69,1552.52 "/>
  <polyline class="fil0 str0" points="11250.34,2364.32 11684.37,2525.07 11017.24,3103.79 11708.48,3256.51 "/>
  <polyline class="fil0 str0" points="10768.08,3489.6 11017.24,3103.79 10719.85,2573.3 11073.5,2557.22 11017.24,3103.79 "/>
  <polyline class="fil0 str0" points="11684.37,2525.07 11073.5,2557.22 11250.34,2364.32 11009.21,2243.76 11354.83,2147.3 "/>
  <polygon class="fil0 str0" points="10494.8,2500.96 10719.85,2573.3 11009.21,2243.76 "/>
  <polygon class="fil0 str0" points="10526.95,2991.26 10768.08,3489.6 10719.85,2573.3 "/>
  <polyline class="fil0 str0" points="10078.38,2757.46 10526.95,2991.26 10494.8,2500.96 10139.15,2514.35 10078.38,2757.46 10494.8,2500.96 "/>
  <polyline class="fil0 str0" points="10078.38,2757.46 9786.65,3274.07 10526.95,2991.26 "/>
  <polyline class="fil0 str0" points="9786.65,3274.07 10588.91,3614.42 10526.95,2991.26 "/>
  <polygon class="fil0 str0" points="10965.72,4045.94 10768.08,3489.6 10588.91,3614.42 "/>
  <polygon class="fil0 str0" points="11756.71,4558.62 10965.72,4045.94 11526.09,4721.27 "/>
  <polyline class="fil0 str0" points="10965.72,4045.94 10933.21,4427.14 11526.09,4721.27 11116.6,4812.63 11396.73,4891.92 11547.78,4705.97 "/>
  <polyline class="fil0 str0" points="11396.73,4891.92 11108,5165.78 11116.6,4812.63 10748.42,4902.08 "/>
  <polyline class="fil0 str0" points="11116.6,4812.63 10933.21,4427.14 10748.42,4902.08 "/>
  <polyline class="fil0 str0" points="10543.23,4772.11 10933.21,4427.14 10273.71,4601.39 10461.19,4183.66 10933.21,4427.14 "/>
  <polyline class="fil0 str0" points="10963.45,4072.67 10461.19,4183.66 10588.91,3614.42 10276.2,4025.09 10461.19,4183.66 9799,4300.72 9501.26,3778.15 10054.22,3670.97 9699.72,4126.46 "/>
  <polyline class="fil0 str0" points="10099.4,4247.61 10054.22,3670.97 10276.2,4025.09 "/>
  <polyline class="fil0 str0" points="10588.91,3614.42 10054.22,3670.97 9786.65,3274.07 9501.26,3778.15 "/>
  <polygon class="fil0 str0" points="9006.3,2974.24 9136.68,3383.18 9786.65,3274.07 "/>
  <polygon class="fil0 str0" points="8657.44,2836.81 9006.3,2974.24 8614.1,3121.89 "/>
  <polygon class="fil0 str0" points="9006.3,2974.24 9608.87,2868.53 9090.88,2503.81 "/>
  <polyline class="fil0 str0" points="9786.65,3274.07 9608.87,2868.53 10078.38,2757.46 "/>
  <polyline class="fil0 str0" points="9608.87,2868.53 9809.73,2514.39 10078.38,2757.46 "/>
  <polygon class="fil0 str0" points="9979.15,2379.12 10139.15,2514.35 9809.73,2514.39 "/>
  <polyline class="fil0 str0" points="9090.88,2503.81 9801.55,2528.82 9617.71,2306.14 9979.15,2379.12 "/>
  <polyline class="fil0 str0" points="9617.71,2306.14 9207.61,2250.54 9801.55,2528.82 "/>
  <polyline class="fil0 str0" points="9207.61,2250.54 9090.88,2503.81 8657.44,2836.81 8700.19,2413.88 9110.29,2504.49 "/>
  <polyline class="fil0 str0" points="9092.4,2500.53 8710.61,1941.22 9207.61,2250.54 "/>
  <polygon class="fil0 str0" points="8491.37,1801.89 8700.19,2413.88 8710.61,1941.22 "/>
  <polygon class="fil0 str0" points="8307.5,2123.64 8700.19,2413.88 8348.87,2643.05 8657.44,2836.81 8146.22,2763.39 8348.87,2643.05 "/>
  <polyline class="fil0 str0" points="8491.37,1801.89 8266.14,1925.99 8353.47,1700.76 8491.37,1801.89 8307.5,2123.64 8266.14,1925.99 8109.86,1806.48 8353.47,1700.76 "/>
  <polyline class="fil0 str0" points="8109.86,1806.48 8017.92,2036.31 8266.14,1925.99 "/>
  <polygon class="fil0 str0" points="8017.92,2036.31 7843.26,2261.54 8307.5,2123.64 "/>
  <polygon class="fil0 str0" points="7843.26,2261.54 7582.99,2617.36 8348.87,2643.05 "/>
  <polyline class="fil0 str0" points="7582.99,2617.36 7397.4,2270.72 7843.26,2261.54 7608.84,1912.19 8017.92,2036.31 "/>
  <polygon class="fil0 str0" points="7429.57,1755.92 7608.84,1912.19 8109.86,1806.48 "/>
  <polyline class="fil0 str0" points="7608.84,1912.19 7397.4,2270.72 7089.44,2408.62 7325.89,2550.71 "/>
  <polygon class="fil0 str0" points="6813.64,2417.81 7089.44,2408.62 6716.36,2649.47 "/>
  <polyline class="fil0 str0" points="6813.64,2417.81 6836.63,2215.57 7089.44,2408.62 "/>
  <polygon class="fil0 str0" points="7397.4,2270.72 6836.63,2215.57 7185.96,2105.25 "/>
  <polyline class="fil0 str0" points="6836.63,2215.57 6832.03,1774.3 7206.29,2121.15 7356.03,1824.87 7397.4,2270.72 "/>
  <polyline class="fil0 str0" points="7356.03,1824.87 7429.57,1755.92 6832.03,1774.3 6983.72,1663.99 7452.09,1757.6 "/>
  <polyline class="fil0 str0" points="6983.72,1663.99 6707.92,1595.04 6836.12,1771.32 6482.7,1806.48 6707.92,1595.04 6436.73,1691.57 6482.7,1806.48 "/>
  <polyline class="fil0 str0" points="6436.73,1691.57 6234.49,1967.36 6482.7,1806.48 6680.35,1953.57 6839.81,1781.5 "/>
  <polygon class="fil0 str0" points="6551.65,2247.75 6680.35,1953.57 6836.63,2215.57 "/>
  <polyline class="fil0 str0" points="6680.35,1953.57 6363.19,2068.48 6482.7,1806.48 "/>
  <polyline class="fil0 str0" points="6234.49,1967.36 6363.19,2068.48 6551.65,2247.75 6813.64,2417.81 6482.7,2564.9 6551.65,2247.75 "/>
  <polyline class="fil0 str0" points="6716.36,2649.47 6482.7,2564.9 6557.88,2718.15 "/>
  <polyline class="fil0 str0" points="6326.97,2807.16 6482.7,2564.9 5690.99,2847.53 "/>
  <polyline class="fil0 str0" points="6086.85,2706.22 5926.52,2505.15 6216.1,2339.67 6482.7,2564.9 "/>
  <polyline class="fil0 str0" points="6551.65,2247.75 6216.1,2339.67 6216.1,2160.41 6363.19,2068.48 "/>
  <polygon class="fil0 str0" points="5774.47,2024.11 6216.1,2160.41 6234.49,1967.36 "/>
  <polyline class="fil0 str0" points="6216.1,2160.41 6058.26,2251.93 6216.1,2339.67 "/>
  <polyline class="fil0 str0" points="6058.26,2251.93 5926.52,2505.15 5690.99,2847.53 "/>
  <polyline class="fil0 str0" points="5926.52,2505.15 5518.66,2475.77 5542.65,2207.97 5722.59,2356.56 6058.26,2251.93 5726.51,2008.12 5542.65,2207.97 5143.95,2091.6 5726.51,2008.12 "/>
  <polyline class="fil0 str0" points="5542.65,2207.97 5306.03,2548.68 5518.66,2475.77 5468.64,2671.28 "/>
  <line class="fil0 str0" x1="5518.66" y1="2475.77" x2="5722.59" y2= "2356.56" />
  <line class="fil0 str0" x1="5542.65" y1="2207.97" x2="6058.26" y2= "2251.93" />
  <line class="fil0 str0" x1="5518.66" y1="2475.77" x2="5690.99" y2= "2847.53" />
  <polygon class="fil0 str0" points="3933.51,5371.22 4015.65,4989.58 3777.08,5218.28 "/>
  <polyline class="fil0 str0" points="3777.08,5218.28 3704.09,5392.08 3933.51,5371.22 3857.04,5645.83 3704.09,5392.08 "/>
  <polyline class="fil0 str0" points="4015.65,4989.58 4232.45,5263.47 3933.51,5371.22 "/>
  <polyline class="fil0 str0" points="4232.45,5263.47 4465.35,5454.65 4555.52,5351.93 "/>
  <polyline class="fil0 str0" points="4465.35,5454.65 4281.12,5607.6 3933.51,5371.22 "/>
  <polygon class="fil0 str0" points="4065.6,5715.36 4281.12,5607.6 3857.04,5645.83 "/>
  <polyline class="fil0 str0" points="5296.58,5653.45 5257.89,5816.16 4465.35,5454.65 "/>
  <polyline class="fil0 str0" points="5553.64,5645.41 5257.89,5816.16 4555.52,5351.93 "/>
  <polyline class="fil0 str0" points="5257.89,5816.16 5223.13,6042.11 5281.71,6325.09 5514.47,6560.87 5719.6,6564.36 6160.97,6362.06 6275.9,6440.21 6147.17,6587.33 6101.2,6876.98 6404.64,7083.88 6731.07,7102.27 6800.03,7276.98 6974.73,7401.11 7282.77,7355.13 7577.02,7116.06 7747.13,7226.4 8142.52,7208.01 8398.16,7054.86 8541.43,6895.25 8145.3,6985.89 "/>
  <polyline class="fil0 str0" points="8398.16,7054.86 8172.51,6979.67 8142.52,7208.01 "/>
  <polyline class="fil0 str0" points="7747.13,7226.4 8145.3,6985.89 7577.02,7116.06 7726.91,6769.8 8145.3,6985.89 8021.16,6714.63 8320.46,6830.97 "/>
  <polyline class="fil0 str0" points="8095.48,6517.6 8021.16,6714.63 7746.94,6780.14 "/>
  <polyline class="fil0 str0" points="8062.27,6502.69 7915.41,6572.1 8021.16,6714.63 "/>
  <polyline class="fil0 str0" points="7726.91,6769.8 7915.41,6572.1 7701.75,6340.83 "/>
  <polyline class="fil0 str0" points="7403.61,6099.03 7143.01,6310.04 7037.27,6493.95 6807.38,6801.99 6731.07,7102.27 6894.73,6949.11 6807.38,6801.99 "/>
  <polygon class="fil0 str0" points="7046.46,7087.04 6800.03,7276.98 6894.73,6949.11 "/>
  <line class="fil0 str0" x1="7046.46" y1="7087.04" x2="6974.73" y2= "7401.11" />
  <polyline class="fil0 str0" points="6894.73,6949.11 7055.66,6824.97 7377.49,7091.63 7243.87,7360.94 "/>
  <polyline class="fil0 str0" points="7055.66,6824.97 7046.46,7087.04 7377.49,7091.63 "/>
  <line class="fil0 str0" x1="7046.46" y1="7087.04" x2="7243.87" y2= "7360.94" />
  <polyline class="fil0 str0" points="7055.66,6824.97 7216.57,6553.71 7143.01,6310.04 "/>
  <polyline class="fil0 str0" points="6807.38,6801.99 7055.66,6824.97 7007.58,6533.73 7216.57,6553.71 7432.85,6105.89 "/>
  <line class="fil0 str0" x1="7216.57" y1="6553.71" x2="7701.75" y2= "6340.83" />
  <polyline class="fil0 str0" points="7726.91,6769.8 7367.45,7111.88 7577.02,7116.06 "/>
  <polyline class="fil0 str0" points="7501.62,6645.67 7377.49,7091.63 7216.57,6553.71 7501.62,6645.67 7488.03,6434.61 7915.41,6572.1 7501.62,6645.67 7726.91,6769.8 "/>
  <polyline class="fil0 str0" points="6275.9,6440.21 6781.71,5914.14 6913.12,6116.94 6977.45,5934.12 "/>
  <polyline class="fil0 str0" points="7177.19,6045.97 6913.12,6116.94 7143.01,6310.04 "/>
  <line class="fil0 str0" x1="6936.52" y1="6136.59" x2="7403.61" y2= "6099.03" />
  <polyline class="fil0 str0" points="6913.12,6116.94 6807.38,6369.8 6757.92,5938.88 "/>
  <polyline class="fil0 str0" points="6275.9,6440.21 6542.21,6440.21 6761.88,5973.29 "/>
  <polyline class="fil0 str0" points="6542.21,6440.21 6228.08,6668.66 6147.17,6587.33 "/>
  <polyline class="fil0 str0" points="6101.2,6876.98 6228.08,6668.66 6404.64,7083.88 "/>
  <polyline class="fil0 str0" points="6542.21,6440.21 6517.72,6641.07 6228.08,6668.66 "/>
  <polygon class="fil0 str0" points="6404.64,7083.88 6807.38,6801.99 6517.72,6641.07 "/>
  <polyline class="fil0 str0" points="6542.21,6440.21 6807.38,6369.8 6517.72,6641.07 "/>
  <polyline class="fil0 str0" points="6783.96,6788.97 6807.38,6369.8 7007.58,6533.73 "/>
  <line class="fil0 str0" x1="6807.38" y1="6369.8" x2="7143.01" y2= "6310.04" />
  <polygon class="fil0 str0" points="6160.97,6362.06 6425.73,5709.38 6442.45,6267 "/>
  <line class="fil0 str0" x1="6538.02" y1="5826.26" x2="6442.45" y2= "6267" />
  <polyline class="fil0 str0" points="6173.41,5392.49 6186.69,5588.21 6341.84,5520.8 "/>
  <polygon class="fil0 str0" points="5662.56,5716.94 5907.1,5492.79 6186.69,5588.21 6356.96,5878.91 6044.17,6121.54 5795.89,6107.74 5657.97,5988.2 "/>
  <polyline class="fil0 str0" points="5662.56,5716.94 5929.23,5854.87 5907.1,5492.79 "/>
  <polyline class="fil0 str0" points="5657.97,5988.2 5929.23,5854.87 5795.89,6107.74 "/>
  <polyline class="fil0 str0" points="6044.17,6121.54 5929.23,5854.87 6356.96,5878.91 "/>
  <line class="fil0 str0" x1="6186.69" y1="5588.21" x2="5929.23" y2= "5854.87" />
  <polyline class="fil0 str0" points="5223.13,6042.11 5662.56,5716.94 5257.89,5816.16 "/>
  <polygon class="fil0 str0" points="5520.04,6061.76 5281.71,6325.09 5390.57,5918.22 "/>
  <polyline class="fil0 str0" points="5795.89,6107.74 5713.14,6199.69 5520.04,6061.76 5657.97,5988.2 "/>
  <polyline class="fil0 str0" points="6044.17,6121.54 5991.54,6439.71 5713.14,6199.69 5719.6,6564.36 "/>
  <polyline class="fil0 str0" points="5281.71,6325.09 5713.14,6199.69 5514.47,6560.87 "/>
 </g>
</svg>
