<?xml version="1.0" encoding="UTF-8"?>
<!DOCTYPE svg PUBLIC "-//W3C//DTD SVG 1.1//EN" "http://www.w3.org/Graphics/SVG/1.1/DTD/svg11.dtd">
<!-- Creator: CorelDRAW 2021 (64-Bit) -->
<svg xmlns="http://www.w3.org/2000/svg" xml:space="preserve" width="711.259mm" height="109.815mm" version="1.1" style="shape-rendering:geometricPrecision; text-rendering:geometricPrecision; image-rendering:optimizeQuality; fill-rule:evenodd; clip-rule:evenodd"
viewBox="0 0 10011.4 1545.71"
 xmlns:xlink="http://www.w3.org/1999/xlink"
 xmlns:xodm="http://www.corel.com/coreldraw/odm/2003">
 <defs>
  <style type="text/css">
   <![CDATA[
    .str0 {stroke:#FEFEFE;stroke-width:79.45;stroke-linecap:round;stroke-linejoin:round;stroke-miterlimit:22.9256}
    .str1 {stroke:#FEFEFE;stroke-width:69.52;stroke-linecap:round;stroke-linejoin:round;stroke-miterlimit:22.9256}
    .fil0 {fill:none}
    .fil1 {fill:none;fill-rule:nonzero}
   ]]>
  </style>
 </defs>
 <g id="Plan_x0020_1">
  <metadata id="CorelCorpID_0Corel-Layer"/>
  <path class="fil0 str0" d="M151.1 827.37c-166.26,-319.94 -149.21,-620.74 69.95,-738.44 159.36,-85.58 391.39,-55.96 625.41,59.83 234.02,-115.79 466.05,-145.4 625.41,-59.83 219.16,117.7 236.21,418.5 69.95,738.44 -47.25,90.94 -109.29,183.41 -185.74,273.68 -149.84,176.92 -330.32,316.22 -509.62,404.93 -179.31,-88.72 -359.78,-228.01 -509.62,-404.93 -76.45,-90.27 -138.49,-182.74 -185.74,-273.68z"/>
  <path class="fil1 str1" d="M621.31 460.89c-17.72,32.41 -34.43,64.43 -50.13,96.13 -15.8,31.81 -30,63.62 -42.78,95.63 -12.78,32.11 -23.86,64.33 -33.32,96.84 -9.46,32.51 -16.71,65.73 -21.85,99.76l-71.67 0c4.73,-30.3 11.48,-60.5 20.24,-90.6 8.76,-30.2 19.02,-60.3 30.8,-90.5 11.78,-30.1 24.97,-60.4 39.66,-90.9 14.6,-30.4 30.2,-61.2 46.71,-92.21l-200.22 0 0 -58.59 282.57 0 0 34.43zm183.71 395.62c-43.99,0 -78.42,-18.02 -103.08,-53.96 -24.66,-36.04 -36.94,-88.08 -36.94,-156.13 0,-74.79 12.78,-131.27 38.55,-169.62 25.77,-38.35 62.92,-57.58 111.54,-57.58 93.02,0 139.42,72.28 139.42,216.83 0,71.67 -13.09,126.23 -39.36,163.98 -26.17,37.65 -62.92,56.47 -110.13,56.47zm6.84 -382.93c-51.34,0 -77.01,56.57 -77.01,169.72 0,105.9 25.17,158.85 75.5,158.85 49.53,0 74.29,-53.86 74.29,-161.47 0,-111.44 -24.26,-167.11 -72.78,-167.11zm288.1 165.49c-29.9,0 -53.65,-9.56 -71.37,-28.79 -17.72,-19.13 -26.58,-44.8 -26.58,-76.81 0,-35.03 9.36,-62.61 28.19,-82.85 18.72,-20.13 44.09,-30.2 75.9,-30.2 30.9,0 54.86,9.36 71.88,27.99 17.01,18.72 25.47,45 25.47,78.82 0,33.82 -9.56,60.9 -28.59,81.34 -19.13,20.34 -44.09,30.5 -74.9,30.5zm4.13 -177.57c-16.11,0 -28.89,6.24 -38.25,18.62 -9.26,12.38 -13.99,29.39 -13.99,51.14 0,21.24 4.63,37.75 13.69,49.63 9.16,11.78 21.74,17.72 37.65,17.72 15.91,0 28.39,-6.14 37.45,-18.42 9.06,-12.38 13.59,-29.49 13.59,-51.34 0,-21.24 -4.53,-37.75 -13.39,-49.63 -8.96,-11.78 -21.24,-17.72 -36.74,-17.72zm282.27 -35.03l-271.39 425.82 -42.18 0 271.09 -425.82 42.48 0zm-38.05 429.44c-29.9,0 -53.75,-9.56 -71.37,-28.79 -17.72,-19.13 -26.58,-44.8 -26.58,-76.81 0,-35.03 9.36,-62.61 28.19,-82.85 18.72,-20.13 44.09,-30.2 75.9,-30.2 30.9,0 54.86,9.36 71.77,27.99 17.01,18.72 25.57,45 25.57,78.82 0,33.82 -9.56,60.9 -28.59,81.34 -19.13,20.34 -44.09,30.5 -74.9,30.5zm4.13 -177.57c-16.21,0 -28.89,6.24 -38.25,18.62 -9.36,12.38 -13.99,29.4 -13.99,51.14 0,21.24 4.53,37.75 13.69,49.63 9.16,11.78 21.74,17.72 37.65,17.72 15.91,0 28.39,-6.14 37.45,-18.42 9.06,-12.38 13.59,-29.5 13.59,-51.34 0,-21.24 -4.53,-37.75 -13.49,-49.63 -8.96,-11.78 -21.14,-17.72 -36.64,-17.72z"/>
  <path class="fil0 str0" d="M2230.72 827.37c-166.26,-319.94 -149.21,-620.74 69.95,-738.44 159.36,-85.58 391.39,-55.96 625.41,59.83 234.02,-115.79 466.05,-145.4 625.41,-59.83 219.16,117.7 236.21,418.5 69.95,738.44 -47.25,90.94 -109.29,183.41 -185.74,273.68 -149.84,176.92 -330.32,316.22 -509.62,404.93 -179.31,-88.72 -359.78,-228.01 -509.62,-404.93 -76.45,-90.27 -138.49,-182.74 -185.74,-273.68z"/>
  <path class="fil1 str1" d="M2443.42 839.7l0 -65.73c27.78,18.82 55.87,28.19 84.36,28.19 28.69,0 51.84,-7.35 69.26,-22.05 17.52,-14.7 26.27,-34.23 26.27,-58.69 0,-24.06 -8.86,-42.78 -26.68,-56.17 -17.82,-13.39 -43.29,-20.13 -76.51,-20.13 -11.38,0 -34.53,1.21 -69.36,3.52l15.1 -222.17 208.18 0 0 58.59 -151.3 0 -7.05 105.7c13.59,-0.81 25.87,-1.21 36.84,-1.21 44.8,0 79.53,11.48 103.99,34.53 24.46,22.95 36.74,54.46 36.74,94.42 0,41.88 -14.09,75.4 -42.08,100.67 -27.99,25.27 -66.54,37.95 -115.46,37.95 -41.27,0 -72.08,-5.84 -92.31,-17.41zm452.69 16.81c-43.99,0 -78.42,-18.02 -103.08,-53.96 -24.66,-36.04 -36.94,-88.08 -36.94,-156.13 0,-74.79 12.78,-131.27 38.55,-169.62 25.77,-38.35 62.92,-57.58 111.54,-57.58 93.02,0 139.42,72.28 139.42,216.83 0,71.67 -13.09,126.23 -39.36,163.98 -26.17,37.65 -62.92,56.47 -110.13,56.47zm6.84 -382.93c-51.34,0 -77.01,56.57 -77.01,169.72 0,105.9 25.17,158.85 75.5,158.85 49.53,0 74.29,-53.86 74.29,-161.47 0,-111.44 -24.26,-167.11 -72.78,-167.11zm288.1 165.49c-29.9,0 -53.65,-9.56 -71.37,-28.79 -17.72,-19.13 -26.58,-44.8 -26.58,-76.81 0,-35.03 9.36,-62.61 28.19,-82.85 18.72,-20.13 44.09,-30.2 75.9,-30.2 30.9,0 54.86,9.36 71.88,27.99 17.01,18.72 25.47,45 25.47,78.82 0,33.82 -9.56,60.9 -28.59,81.34 -19.13,20.34 -44.09,30.5 -74.9,30.5zm4.13 -177.57c-16.11,0 -28.89,6.24 -38.25,18.62 -9.26,12.38 -13.99,29.39 -13.99,51.14 0,21.24 4.63,37.75 13.69,49.63 9.16,11.78 21.74,17.72 37.65,17.72 15.91,0 28.39,-6.14 37.45,-18.42 9.06,-12.38 13.59,-29.49 13.59,-51.34 0,-21.24 -4.53,-37.75 -13.39,-49.63 -8.96,-11.78 -21.24,-17.72 -36.74,-17.72zm282.27 -35.03l-271.39 425.82 -42.18 0 271.09 -425.82 42.48 0zm-38.05 429.44c-29.9,0 -53.75,-9.56 -71.37,-28.79 -17.72,-19.13 -26.58,-44.8 -26.58,-76.81 0,-35.03 9.36,-62.61 28.19,-82.85 18.72,-20.13 44.09,-30.2 75.9,-30.2 30.9,0 54.86,9.36 71.77,27.99 17.01,18.72 25.57,45 25.57,78.82 0,33.82 -9.56,60.9 -28.59,81.34 -19.13,20.34 -44.09,30.5 -74.9,30.5zm4.13 -177.57c-16.21,0 -28.89,6.24 -38.25,18.62 -9.36,12.38 -13.99,29.4 -13.99,51.14 0,21.24 4.53,37.75 13.69,49.63 9.16,11.78 21.74,17.72 37.65,17.72 15.91,0 28.39,-6.14 37.45,-18.42 9.06,-12.38 13.59,-29.5 13.59,-51.34 0,-21.24 -4.53,-37.75 -13.49,-49.63 -8.96,-11.78 -21.14,-17.72 -36.64,-17.72z"/>
  <path class="fil0 str0" d="M4310.33 827.37c-166.26,-319.94 -149.21,-620.74 69.95,-738.44 159.36,-85.58 391.39,-55.96 625.41,59.83 234.02,-115.79 466.05,-145.4 625.41,-59.83 219.16,117.7 236.21,418.5 69.95,738.44 -47.25,90.94 -109.29,183.41 -185.74,273.68 -149.84,176.92 -330.32,316.22 -509.62,404.93 -179.31,-88.72 -359.78,-228.01 -509.62,-404.93 -76.45,-90.27 -138.49,-182.74 -185.74,-273.68z"/>
  <path class="fil1 str1" d="M4513.57 833.76l0 -64.33c27.58,21.85 58.59,32.72 93.22,32.72 28.09,0 50.64,-6.44 67.45,-19.23 16.81,-12.78 25.17,-30.1 25.17,-51.94 0,-48.02 -36.64,-71.98 -110.03,-71.98l-32.72 0 0 -54.96 31.31 0c65.03,0 97.55,-22.65 97.55,-67.85 0,-41.78 -25.37,-62.61 -76,-62.61 -28.39,0 -54.96,10.17 -79.93,30.5l0 -60.7c28.69,-16.11 62.61,-24.16 101.67,-24.16 37.55,0 67.65,9.46 90.3,28.29 22.55,18.92 33.92,43.08 33.92,72.58 0,55.57 -28.39,91.4 -84.96,107.31l0 1.21c30.5,2.92 54.56,13.59 72.28,32.01 17.72,18.42 26.47,41.37 26.47,68.96 0,37.95 -14.19,68.65 -42.68,91.91 -28.59,23.35 -66.14,35.03 -112.75,35.03 -41.88,0 -75.3,-7.55 -100.26,-22.75zm462.16 22.75c-43.99,0 -78.42,-18.02 -103.08,-53.96 -24.66,-36.04 -36.94,-88.08 -36.94,-156.13 0,-74.79 12.78,-131.27 38.55,-169.62 25.77,-38.35 62.92,-57.58 111.54,-57.58 93.02,0 139.42,72.28 139.42,216.83 0,71.67 -13.09,126.23 -39.36,163.98 -26.17,37.65 -62.92,56.47 -110.13,56.47zm6.84 -382.93c-51.34,0 -77.01,56.57 -77.01,169.72 0,105.9 25.17,158.85 75.5,158.85 49.53,0 74.29,-53.86 74.29,-161.47 0,-111.44 -24.26,-167.11 -72.78,-167.11zm288.1 165.49c-29.9,0 -53.65,-9.56 -71.37,-28.79 -17.72,-19.13 -26.58,-44.8 -26.58,-76.81 0,-35.03 9.36,-62.61 28.19,-82.85 18.72,-20.13 44.09,-30.2 75.9,-30.2 30.9,0 54.86,9.36 71.88,27.99 17.01,18.72 25.47,45 25.47,78.82 0,33.82 -9.56,60.9 -28.59,81.34 -19.13,20.34 -44.09,30.5 -74.9,30.5zm4.13 -177.57c-16.11,0 -28.89,6.24 -38.25,18.62 -9.26,12.38 -13.99,29.39 -13.99,51.14 0,21.24 4.63,37.75 13.69,49.63 9.16,11.78 21.74,17.72 37.65,17.72 15.91,0 28.39,-6.14 37.45,-18.42 9.06,-12.38 13.59,-29.49 13.59,-51.34 0,-21.24 -4.53,-37.75 -13.39,-49.63 -8.96,-11.78 -21.24,-17.72 -36.74,-17.72zm282.27 -35.03l-271.39 425.82 -42.18 0 271.09 -425.82 42.48 0zm-38.05 429.44c-29.9,0 -53.75,-9.56 -71.37,-28.79 -17.72,-19.13 -26.58,-44.8 -26.58,-76.81 0,-35.03 9.36,-62.61 28.19,-82.85 18.72,-20.13 44.09,-30.2 75.9,-30.2 30.9,0 54.86,9.36 71.77,27.99 17.01,18.72 25.57,45 25.57,78.82 0,33.82 -9.56,60.9 -28.59,81.34 -19.13,20.34 -44.09,30.5 -74.9,30.5zm4.13 -177.57c-16.21,0 -28.89,6.24 -38.25,18.62 -9.36,12.38 -13.99,29.4 -13.99,51.14 0,21.24 4.53,37.75 13.69,49.63 9.16,11.78 21.74,17.72 37.65,17.72 15.91,0 28.39,-6.14 37.45,-18.42 9.06,-12.38 13.59,-29.5 13.59,-51.34 0,-21.24 -4.53,-37.75 -13.49,-49.63 -8.96,-11.78 -21.14,-17.72 -36.64,-17.72z"/>
  <path class="fil0 str0" d="M6389.95 827.37c-166.26,-319.94 -149.21,-620.74 69.95,-738.44 159.36,-85.58 391.39,-55.96 625.41,59.83 234.02,-115.79 466.05,-145.4 625.41,-59.83 219.16,117.7 236.21,418.5 69.95,738.44 -47.25,90.94 -109.29,183.41 -185.74,273.68 -149.84,176.92 -330.32,316.22 -509.62,404.93 -179.31,-88.72 -359.78,-228.01 -509.62,-404.93 -76.45,-90.27 -138.49,-182.74 -185.74,-273.68z"/>
  <path class="fil1 str1" d="M6851.3 849.26l-265.46 0 0 -32.72c0,-13.29 1.91,-25.87 5.64,-37.55 3.72,-11.68 8.76,-22.65 15,-33.02 6.34,-10.37 13.69,-20.03 22.15,-29.19 8.46,-9.16 17.52,-18.02 27.08,-26.57 9.66,-8.56 19.53,-16.81 29.5,-24.76 10.07,-7.95 19.93,-16.01 29.5,-24.06 9.06,-7.65 17.31,-15.2 24.76,-22.55 7.55,-7.45 13.89,-15 19.23,-22.85 5.34,-7.95 9.46,-16.21 12.38,-24.97 2.92,-8.76 4.43,-18.22 4.43,-28.49 0,-11.17 -1.71,-20.94 -5.13,-29.29 -3.52,-8.36 -8.25,-15.3 -14.5,-20.94 -6.14,-5.54 -13.49,-9.76 -21.95,-12.68 -8.46,-2.82 -17.72,-4.23 -27.78,-4.23 -17.21,0 -34.83,4.03 -52.75,12.08 -17.92,8.05 -35.13,20.03 -51.64,36.14l0 -65.73c8.66,-6.54 17.41,-12.18 26.27,-17.01 8.86,-4.83 18.02,-8.86 27.48,-12.08 9.36,-3.22 19.33,-5.64 29.7,-7.25 10.47,-1.51 21.54,-2.32 33.32,-2.32 19.13,0 36.44,2.52 51.94,7.55 15.5,5.03 28.79,12.38 39.86,22.15 10.97,9.66 19.43,21.84 25.47,36.34 6.04,14.6 8.96,31.31 8.96,50.23 0,17.11 -2.11,32.52 -6.34,46.11 -4.23,13.69 -10.17,26.47 -17.92,38.25 -7.75,11.78 -17.21,23.05 -28.19,33.62 -10.97,10.67 -23.35,21.54 -36.84,32.72 -11.48,9.26 -22.75,18.32 -34.12,27.08 -11.27,8.76 -21.44,17.31 -30.5,25.67 -9.06,8.36 -16.41,16.71 -21.95,25.07 -5.64,8.36 -8.46,16.71 -8.46,25.17l0 1.51 190.86 0 0 58.59zm204.05 7.25c-43.99,0 -78.42,-18.02 -103.08,-53.96 -24.66,-36.04 -36.94,-88.08 -36.94,-156.13 0,-74.79 12.78,-131.27 38.55,-169.62 25.77,-38.35 62.92,-57.58 111.54,-57.58 93.02,0 139.42,72.28 139.42,216.83 0,71.67 -13.09,126.23 -39.36,163.98 -26.17,37.65 -62.92,56.47 -110.13,56.47zm6.84 -382.93c-51.34,0 -77.01,56.57 -77.01,169.72 0,105.9 25.17,158.85 75.5,158.85 49.53,0 74.29,-53.86 74.29,-161.47 0,-111.44 -24.26,-167.11 -72.78,-167.11zm288.1 165.49c-29.9,0 -53.65,-9.56 -71.37,-28.79 -17.72,-19.13 -26.58,-44.8 -26.58,-76.81 0,-35.03 9.36,-62.61 28.19,-82.85 18.72,-20.13 44.09,-30.2 75.9,-30.2 30.9,0 54.86,9.36 71.88,27.99 17.01,18.72 25.47,45 25.47,78.82 0,33.82 -9.56,60.9 -28.59,81.34 -19.13,20.34 -44.09,30.5 -74.9,30.5zm4.13 -177.57c-16.11,0 -28.89,6.24 -38.25,18.62 -9.26,12.38 -13.99,29.39 -13.99,51.14 0,21.24 4.63,37.75 13.69,49.63 9.16,11.78 21.74,17.72 37.65,17.72 15.91,0 28.39,-6.14 37.45,-18.42 9.06,-12.38 13.59,-29.49 13.59,-51.34 0,-21.24 -4.53,-37.75 -13.39,-49.63 -8.96,-11.78 -21.24,-17.72 -36.74,-17.72zm282.27 -35.03l-271.39 425.82 -42.18 0 271.09 -425.82 42.48 0zm-38.05 429.44c-29.9,0 -53.75,-9.56 -71.37,-28.79 -17.72,-19.13 -26.58,-44.8 -26.58,-76.81 0,-35.03 9.36,-62.61 28.19,-82.85 18.72,-20.13 44.09,-30.2 75.9,-30.2 30.9,0 54.86,9.36 71.77,27.99 17.01,18.72 25.57,45 25.57,78.82 0,33.82 -9.56,60.9 -28.59,81.34 -19.13,20.34 -44.09,30.5 -74.9,30.5zm4.13 -177.57c-16.21,0 -28.89,6.24 -38.25,18.62 -9.36,12.38 -13.99,29.4 -13.99,51.14 0,21.24 4.53,37.75 13.69,49.63 9.16,11.78 21.74,17.72 37.65,17.72 15.91,0 28.39,-6.14 37.45,-18.42 9.06,-12.38 13.59,-29.5 13.59,-51.34 0,-21.24 -4.53,-37.75 -13.49,-49.63 -8.96,-11.78 -21.14,-17.72 -36.64,-17.72z"/>
  <path class="fil0 str0" d="M8469.57 827.37c-166.26,-319.94 -149.21,-620.74 69.95,-738.44 159.36,-85.58 391.39,-55.96 625.41,59.83 234.02,-115.79 466.05,-145.4 625.41,-59.83 219.16,117.7 236.21,418.5 69.95,738.44 -47.25,90.94 -109.29,183.41 -185.74,273.68 -149.84,176.92 -330.32,316.22 -509.62,404.93 -179.31,-88.72 -359.78,-228.01 -509.62,-404.93 -76.45,-90.27 -138.49,-182.74 -185.74,-273.68z"/>
  <path class="fil1 str1" d="M8817.97 416.8l0 432.46 -68.45 0 0 -348.71c-12.38,8.76 -25.67,16.31 -39.96,22.55 -14.19,6.14 -30.5,11.58 -48.82,16.31l0 -58.59c11.48,-3.72 22.45,-7.65 33.02,-11.78 10.67,-4.13 21.14,-8.66 31.41,-13.79 10.37,-5.03 20.74,-10.77 31.31,-17.01 10.47,-6.24 21.34,-13.39 32.62,-21.44l28.89 0zm224.69 439.71c-43.99,0 -78.42,-18.02 -103.08,-53.96 -24.66,-36.04 -36.94,-88.08 -36.94,-156.13 0,-74.79 12.78,-131.27 38.55,-169.62 25.77,-38.35 62.92,-57.58 111.54,-57.58 93.02,0 139.42,72.28 139.42,216.83 0,71.67 -13.09,126.23 -39.36,163.98 -26.17,37.65 -62.92,56.47 -110.13,56.47zm6.84 -382.93c-51.34,0 -77.01,56.57 -77.01,169.72 0,105.9 25.17,158.85 75.5,158.85 49.53,0 74.29,-53.86 74.29,-161.47 0,-111.44 -24.26,-167.11 -72.78,-167.11zm288.1 165.49c-29.9,0 -53.65,-9.56 -71.37,-28.79 -17.72,-19.13 -26.58,-44.8 -26.58,-76.81 0,-35.03 9.36,-62.61 28.19,-82.85 18.72,-20.13 44.09,-30.2 75.9,-30.2 30.9,0 54.86,9.36 71.88,27.99 17.01,18.72 25.47,45 25.47,78.82 0,33.82 -9.56,60.9 -28.59,81.34 -19.13,20.34 -44.09,30.5 -74.9,30.5zm4.13 -177.57c-16.11,0 -28.89,6.24 -38.25,18.62 -9.26,12.38 -13.99,29.39 -13.99,51.14 0,21.24 4.63,37.75 13.69,49.63 9.16,11.78 21.74,17.72 37.65,17.72 15.91,0 28.39,-6.14 37.45,-18.42 9.06,-12.38 13.59,-29.49 13.59,-51.34 0,-21.24 -4.53,-37.75 -13.39,-49.63 -8.96,-11.78 -21.24,-17.72 -36.74,-17.72zm282.27 -35.03l-271.39 425.82 -42.18 0 271.09 -425.82 42.48 0zm-38.05 429.44c-29.9,0 -53.75,-9.56 -71.37,-28.79 -17.72,-19.13 -26.58,-44.8 -26.58,-76.81 0,-35.03 9.36,-62.61 28.19,-82.85 18.72,-20.13 44.09,-30.2 75.9,-30.2 30.9,0 54.86,9.36 71.77,27.99 17.01,18.72 25.57,45 25.57,78.82 0,33.82 -9.56,60.9 -28.59,81.34 -19.13,20.34 -44.09,30.5 -74.9,30.5zm4.13 -177.57c-16.21,0 -28.89,6.24 -38.25,18.62 -9.36,12.38 -13.99,29.4 -13.99,51.14 0,21.24 4.53,37.75 13.69,49.63 9.16,11.78 21.74,17.72 37.65,17.72 15.91,0 28.39,-6.14 37.45,-18.42 9.06,-12.38 13.59,-29.5 13.59,-51.34 0,-21.24 -4.53,-37.75 -13.49,-49.63 -8.96,-11.78 -21.14,-17.72 -36.64,-17.72z"/>
 </g>
</svg>
