<!--?xml version="1.0" encoding="UTF-8"?-->

<!-- Creator: CorelDRAW 2021 (64-Bit) -->
<svg xmlns="http://www.w3.org/2000/svg" xml:space="preserve" width="240.825mm" height="246.277mm" version="1.1" style="shape-rendering: geometricprecision; text-rendering: geometricprecision; fill-rule: evenodd; clip-rule: evenodd;" viewBox="0 0 1503.36 1537.39" xmlns:xlink="http://www.w3.org/1999/xlink" xmlns:xodm="http://www.corel.com/coreldraw/odm/2003">
 <defs>
  <style type="text/css">
   
    .str0 {stroke:#FEFEFE;stroke-width:22.02;stroke-linecap:round;stroke-linejoin:round;stroke-miterlimit:22.9256}
    .fil0 {fill:none}
   
  </style>
 </defs>
 <g id="Plan_x0020_1">
  <metadata id="CorelCorpID_0Corel-Layer"></metadata>
  <path class="fil0 str0 QkPiQcoL_0" d="M744.77 11.01l13.91 0c26.86,4.54 48.48,34.41 73.53,55.36 79.32,66.33 46.25,62.99 153.02,33.42 42.37,-11.74 88.24,-37.71 114.27,1.18 7.89,11.79 13.83,28.96 19.35,42.8 47.8,119.71 29.76,105.93 123.89,121.76 102.62,17.25 116.97,9.54 109.66,100.8 -0.77,9.56 0.47,19.37 -0.59,29 -4.32,39.04 -13.19,76.63 11.46,98.92l71.29 50.06c55.05,37.28 75.62,48.99 39.17,112.05 -74.93,129.61 -67.84,101.99 -19.91,188.34 49.12,88.5 60.58,94.92 -21.04,149.55 -13.36,8.94 -23.75,16.68 -36.69,25.46 -25.85,17.55 -54.63,30.36 -49.06,70.67 4.96,35.89 3.66,71.48 5.65,89.27 2.2,19.64 8.49,50.16 -14.59,69.15 -16.63,13.68 -70.17,18.93 -100.4,23.91 -39.66,6.53 -67.69,2.31 -84.82,36.52 -13.1,26.16 -43.97,116.01 -55.86,130.6 -28.62,35.08 -71.79,8.86 -114.09,-2.88 -102.79,-28.53 -70.38,-33.08 -150.7,34.06l-35.67 32.4c-17.15,16.07 -19.99,22.96 -48.07,22.96 -21.13,0 -48.13,-25.76 -62.94,-40.65 -5.88,-5.91 -10.14,-10.92 -16.26,-16.3 -27.73,-24.42 -51,-52.56 -80.63,-52.56 -6.35,0 -132.48,41.43 -145.03,41.43 -53.88,0 -60.49,-84.71 -94.61,-151.04 -16.07,-31.24 -43.69,-28.37 -88.46,-35.85 -62.93,-10.52 -115.59,-5.13 -113.08,-70.61l9.02 -115.68c2.61,-43.53 -42.95,-58.53 -87.92,-92.31 -12.57,-9.44 -25.02,-16.04 -36.86,-25.29 -43.77,-34.17 -7.71,-79.44 18.41,-124.69 11.72,-20.31 35.38,-53.02 35.38,-77.09 0,-12.66 -46.01,-91.85 -57.49,-111.21 -39.07,-65.84 -6.94,-77.1 56.29,-120.86 34.68,-24 68.88,-38.68 72.05,-73.21l-5.3 -68.08c-1.38,-12.38 0.48,-24.72 -1.24,-37.24 -10.47,-76.27 23.26,-74.6 90.44,-85.8 112.22,-18.72 96.2,-5.19 130.65,-91.32 30.1,-75.25 32.38,-114.04 107.88,-89.69l112.83 32.19c19.22,0 34.65,-12.68 45.2,-22.88l68.05 -62.18c14.87,-15.11 27.97,-22.44 39.92,-24.45z"></path>
  <path class="fil0 str0 QkPiQcoL_1" d="M174.28 795.33c0,-111.22 7.97,-174.47 54.25,-274.28 54.5,-117.54 157.37,-220.59 275.25,-275.25 179.65,-83.31 367.57,-70.02 539.64,23.72 96.31,52.47 182.22,150.13 229.94,249.53 74.99,156.24 73.72,340.37 0.96,497.28 -54.83,118.25 -155.14,217.6 -273.25,274.29 -156.24,74.99 -340.37,73.72 -497.28,0.96 -62.27,-28.87 -132.21,-80.62 -177.85,-129.96 -86.55,-93.57 -151.65,-238.64 -151.65,-366.3z"></path>
  <path class="fil0 str0 QkPiQcoL_2" d="M470.25 1191.93l0 5.92c20.81,5.56 210.11,150.38 469.77,46.54 30.03,-12.01 49.8,-22.42 74.99,-37.48 41.07,-24.57 77.41,-54.17 110.13,-88.17 6.65,-6.91 7.33,-9.58 13.31,-16.29 46.13,-51.78 113.16,-170.44 113.16,-233.13 -17.73,4.13 -31.99,12.27 -49.03,19.04l-388.55 161.95c-15.65,6.29 -32.61,13.52 -48.26,19.81 -41.7,16.76 -278.85,117.92 -295.52,121.8z"></path>
  <path class="fil0 str0 QkPiQcoL_3" d="M251.23 668.07l485.78 -200.87c33.27,-13.62 65.27,-26.01 98.29,-40.82 33.33,-14.94 64.39,-26.46 98.37,-40.73l98.92 -46.11c-8.46,-2.26 -18.93,-10.57 -28.58,-15.82 -10.94,-5.96 -16.73,-10.3 -28.62,-15.77 -22.45,-10.32 -41.38,-17.52 -65.99,-25.76 -143.79,-48.15 -296.43,-26.57 -421.57,48.3 -41.07,24.57 -77.41,54.17 -110.13,88.17l-38.54 47.29c-31.87,42.29 -87.93,147.39 -87.93,202.12z"></path>
  <path class="fil0 str0 QkPiQcoL_4" d="M292.67 821.97c0,29.29 6.06,48.94 24.32,67.43 49.93,50.6 135.99,7.28 167.04,46.06 36.5,45.58 -14.95,84.81 -55.21,84.81 -15.84,0 -26.8,-6.58 -40.9,-9.86 -27.95,-6.49 -33.37,32.27 -9.43,45.38 51.73,28.33 165.75,-10.55 165.75,-85.84 0,-48.83 -31.48,-91 -70.89,-100.78 -62.4,-15.48 -133.33,14.17 -133.33,-47.21 0,-23.06 29.19,-36.93 48.31,-43.44 31.04,-10.56 64.16,10.52 64.16,-27.59 0,-41.36 -89.38,-12.15 -117.9,6.4 -18.01,11.71 -41.92,36.21 -41.92,64.63z"></path>
  <path class="fil0 str0 QkPiQcoL_5" d="M600.48 721.34c7.75,5.19 17.64,20.06 24.61,28.67l59.58 73.6c6.66,8.29 7.88,6.22 10.52,16.12 -12.35,1.03 -28.9,10.32 -38.87,14.41 -13.08,5.36 -27.24,11.97 -41.05,15.19 0,-33.01 -14.8,-105.42 -14.8,-147.98zm-17.76 269.33c67.6,15.75 38.48,-28.57 38.48,-79.91l100.63 -41.44c6.48,9.68 39.71,56.23 50.31,56.23 14.88,0 29.6,-14.72 29.6,-29.6 0,-6.12 -90.41,-113.12 -101.55,-126.35l-76.7 -92.01c-7.31,-8.39 -18.54,-27.3 -31.9,-27.3 -52.78,0 -39.15,48.5 -38.48,59.19 2.26,35.92 23.45,254.77 29.6,281.17z"></path>
  <path class="fil0 str0 QkPiQcoL_6" d="M849.09 893l141.32 -57.06c9.21,-5.92 3.2,1.73 7.32,-7.59 5.73,-12.98 -10.08,-33.02 -15.45,-33.02 -17.47,0 -90.57,38.61 -115.43,44.39l-92.76 -226.89c-4.57,-10.32 -7.91,-27.64 -19.71,-27.64 -17.67,0 -34.2,9.74 -33.79,23.15 0.12,4.01 13.88,36.84 16.11,41.88 11.86,26.83 24.09,56.58 35.05,83.34l60.64 146.54c3.45,7.67 7.17,12.89 16.7,12.89z"></path>
  <path class="fil0 str0 QkPiQcoL_7" d="M917.17 523.04c0,20.46 76.49,192.58 87.51,220.3 35.12,88.36 21.62,77.75 126.01,34.65l62.68 -26.11c34.33,-14.16 11.4,-49.81 -10.18,-43.13l-79.48 33.38c-10.7,4.73 -27.99,13.6 -41.51,14.72 -5.72,-24.55 -29.71,-66.81 -35.52,-91.75 31.43,-15.08 71.03,-21.15 71.03,-41.44 0,-8.37 -9.4,-20.72 -17.76,-20.72 -13.23,0 -53.41,22.53 -71.03,26.64 -5.81,-24.96 -29.61,-66.38 -35.52,-91.75 25.64,-13.57 127.27,-45.47 127.27,-62.15 0,-53.32 -40.57,-20.29 -102.3,4.24 -19.27,7.66 -81.2,28.49 -81.2,43.11z"></path>
 </g>
<style data-made-with="vivus-instant">.QkPiQcoL_0{stroke-dasharray:5241 5243;stroke-dashoffset:5242;animation:QkPiQcoL_draw_0 10200ms linear 0ms infinite,QkPiQcoL_fade 10200ms linear 0ms infinite;}.QkPiQcoL_1{stroke-dasharray:3634 3636;stroke-dashoffset:3635;animation:QkPiQcoL_draw_1 10200ms linear 0ms infinite,QkPiQcoL_fade 10200ms linear 0ms infinite;}.QkPiQcoL_2{stroke-dasharray:1852 1854;stroke-dashoffset:1853;animation:QkPiQcoL_draw_2 10200ms linear 0ms infinite,QkPiQcoL_fade 10200ms linear 0ms infinite;}.QkPiQcoL_3{stroke-dasharray:1848 1850;stroke-dashoffset:1849;animation:QkPiQcoL_draw_3 10200ms linear 0ms infinite,QkPiQcoL_fade 10200ms linear 0ms infinite;}.QkPiQcoL_4{stroke-dasharray:1362 1364;stroke-dashoffset:1363;animation:QkPiQcoL_draw_4 10200ms linear 0ms infinite,QkPiQcoL_fade 10200ms linear 0ms infinite;}.QkPiQcoL_5{stroke-dasharray:1432 1434;stroke-dashoffset:1433;animation:QkPiQcoL_draw_5 10200ms linear 0ms infinite,QkPiQcoL_fade 10200ms linear 0ms infinite;}.QkPiQcoL_6{stroke-dasharray:971 973;stroke-dashoffset:972;animation:QkPiQcoL_draw_6 10200ms linear 0ms infinite,QkPiQcoL_fade 10200ms linear 0ms infinite;}.QkPiQcoL_7{stroke-dasharray:1435 1437;stroke-dashoffset:1436;animation:QkPiQcoL_draw_7 10200ms linear 0ms infinite,QkPiQcoL_fade 10200ms linear 0ms infinite;}@keyframes QkPiQcoL_draw{100%{stroke-dashoffset:0;}}@keyframes QkPiQcoL_fade{0%{stroke-opacity:1;}96.07843137254902%{stroke-opacity:1;}100%{stroke-opacity:0;}}@keyframes QkPiQcoL_draw_0{7.8431372549019605%{stroke-dashoffset: 5242}25.182896641758546%{ stroke-dashoffset: 0;}100%{ stroke-dashoffset: 0;}}@keyframes QkPiQcoL_draw_1{25.182896641758546%{stroke-dashoffset: 3635}37.20693810898931%{ stroke-dashoffset: 0;}100%{ stroke-dashoffset: 0;}}@keyframes QkPiQcoL_draw_2{37.206938108989306%{stroke-dashoffset: 1853}43.33638758320625%{ stroke-dashoffset: 0;}100%{ stroke-dashoffset: 0;}}@keyframes QkPiQcoL_draw_3{43.33638758320625%{stroke-dashoffset: 1849}49.45260565003148%{ stroke-dashoffset: 0;}100%{ stroke-dashoffset: 0;}}@keyframes QkPiQcoL_draw_4{49.45260565003148%{stroke-dashoffset: 1363}53.961207718762026%{ stroke-dashoffset: 0;}100%{ stroke-dashoffset: 0;}}@keyframes QkPiQcoL_draw_5{53.961207718762026%{stroke-dashoffset: 1433}58.70135941684778%{ stroke-dashoffset: 0;}100%{ stroke-dashoffset: 0;}}@keyframes QkPiQcoL_draw_6{58.70135941684778%{stroke-dashoffset: 972}61.91659141303714%{ stroke-dashoffset: 0;}100%{ stroke-dashoffset: 0;}}@keyframes QkPiQcoL_draw_7{61.916591413037125%{stroke-dashoffset: 1436}66.66666666666666%{ stroke-dashoffset: 0;}100%{ stroke-dashoffset: 0;}}</style></svg>
