<!--?xml version="1.0" encoding="UTF-8"?-->

<!-- Creator: CorelDRAW 2021 (64-Bit) -->
<svg xmlns="http://www.w3.org/2000/svg" xml:space="preserve" width="138.495mm" height="32.0022mm" version="1.1" style="shape-rendering: geometricprecision; text-rendering: geometricprecision; fill-rule: evenodd; clip-rule: evenodd;" viewBox="0 0 12827.57 2964.08" xmlns:xlink="http://www.w3.org/1999/xlink" xmlns:xodm="http://www.corel.com/coreldraw/odm/2003">
 <defs>
  <style type="text/css">
   
    .str0 {stroke:#FEFEFE;stroke-width:98.02;stroke-miterlimit:22.9256}
    .fil0 {fill:none}
    .fil1 {fill:#FEFEFE;fill-rule:nonzero}
   
  </style>
 </defs>
 <g id="Plan_x0020_1">
  <metadata id="CorelCorpID_0Corel-Layer"></metadata>
  <path class="fil0 str0 LGmCmibT_0" d="M1409.25 1606.99l-12.7 18.29 -21.79 294c-7.85,105.91 -52.09,202.94 -133.62,272.12 -71.56,60.72 -159.72,93.57 -253.58,93.57 -97.08,0 -186.66,-35.5 -262.53,-94.87 -83.32,-65.21 -136.08,-155.9 -163.1,-257.22 -19.74,-74 -30.74,-150.65 -36.9,-226.91 -6.32,-78.19 -9.05,-156.7 -9.05,-235.14 0,-116.37 5.33,-232.73 15.28,-348.67 1.47,-17.14 3.02,-34.3 4.66,-51.43 -38.19,18.89 -81.4,29.5 -127.49,29.5 -89.6,0 -166.89,-39.09 -229.61,-99.97 -46.56,-43.74 -78.64,-98.37 -100.28,-158.31 -19.3,-53.47 -29.53,-109.51 -29.53,-166.39 0,-103.41 34.92,-201.32 108.74,-275.14 71.31,-71.31 167.8,-109.84 263.49,-135.85 89.29,-24.28 180.74,-41.49 272.39,-53.98 47.11,-6.43 95,-10.29 142.41,-13.94 64.62,-4.97 129.52,-6.93 194.33,-6.93 93.2,0 186.38,5.66 279,15.95 98.53,10.95 196.21,30.15 290.9,59.69 105.38,32.87 203.66,84.05 285,159.42 81.05,75.1 131.44,169.92 149.5,275.17 50.27,2.22 99.34,13.09 145.42,32.65 11.25,-1.17 22.57,-1.91 33.93,-2.26 57.94,-78.95 148.68,-126.66 249.77,-126.66l4.08 0c118.05,0 216.49,63.54 278.05,160.08 22.52,-4.3 45.63,-6.66 69.11,-7.08 8.01,-47.72 19.52,-95.71 38.87,-139.27 29.16,-65.61 77.27,-118.63 137.06,-157.72 66.29,-43.34 142.6,-61.97 221.19,-61.97 21.32,0 42.61,1.63 63.73,4.45 23.13,3.09 46.03,7.82 68.47,14.22l259.48 74.03 4.23 7.47 -68.16 231.76c57.43,-20.26 118.76,-30.13 182.04,-30.13 57.06,0 112.89,11 164.92,33.08 16.28,-1.69 32.7,-2.49 49.19,-2.49 21.29,0 42.56,1.62 63.66,4.43 20.85,2.78 41.51,6.81 61.91,11.91l157.65 39.44c31.05,-20.5 64.2,-37.7 99.49,-50.83 57.11,-21.25 116.98,-33.5 178.05,-33.5 61.11,0 120.98,11.26 177.26,33.99 27.66,-4.79 55.65,-7.47 83.76,-7.47l24.47 0c81.55,0 157.14,28.21 212.58,77.61 90.44,-61.8 195.13,-91.88 305.36,-91.88 79.39,0 155.35,19.55 220.93,59.59 88.83,-56.62 191.8,-82.03 299.06,-82.03 106.36,0 205.74,34.2 283.75,102.63 23.45,-10.51 47.85,-18.89 73,-24.95 27.31,-7.13 55.35,-10.39 83.71,-10.39 35.34,0 69.19,5.49 100.75,15.77 61.8,-39.59 134.16,-60.63 211.23,-60.63 113.9,0 218.47,45.13 286.07,130.87 33.57,-41.14 73.43,-77.17 119.38,-107.03 79.17,-51.47 168.93,-78.9 263.39,-78.9 11.99,0 23.91,0.71 35.8,2.04l1.67 0 16.94 2.12c146.01,18.28 256.07,137.59 256.07,285.92 0,62.4 -19.22,119.78 -52.13,166.63 4.6,20.81 11.16,41.62 18.05,61.05 19.89,56.13 38.85,112.59 56.81,169.36 12.11,2.48 23.91,5.71 35.37,9.64 0.2,-88.1 2.84,-176.19 7.5,-264.16 4.96,-93.6 12.83,-187.08 24,-280.15 10.29,-85.76 23.38,-171.82 42.73,-256.04 12.39,-53.96 31.1,-106.73 51.92,-157.97 28.65,-70.53 68.05,-135.74 118.83,-192.56 79.27,-88.71 186.88,-139.27 306.09,-139.27 261.96,0 394.08,213.47 394.08,455.25 0,60.14 -6.96,122.72 -16.24,183.7 24.55,-3.19 49.54,-4.77 74.85,-4.77 57.07,0 112.89,11 164.92,33.08 16.29,-1.69 32.71,-2.49 49.19,-2.49 21.29,0 42.56,1.62 63.67,4.43 20.84,2.78 41.51,6.81 61.91,11.91l84.88 21.24c-1.97,-25.83 -2.98,-51.78 -2.98,-77.84 0,-83.54 10.98,-166.5 34.63,-246.69 26.99,-91.53 72.87,-174.79 138.88,-244.03 47.84,-50.16 104.35,-90.17 168.99,-115.68 57.51,-22.7 118.24,-34.42 180.06,-34.42 86.93,0 170.9,21.25 248.12,61.19 71.17,36.81 134.36,85.98 184.89,148.4 27.05,33.41 51.37,68.67 73.19,105.39 14.17,-13.29 28.89,-26.02 44.18,-38.07l1.93 -1.52 1.96 -1.48c109.52,-83.16 236.09,-139.33 375.58,-139.33 162.2,0 302.45,73.93 399.48,203.3 76.24,101.64 113.02,220.78 122.54,344.85 68.23,-27.63 142.14,-40.4 218.2,-40.4 45.63,0 89.99,6.29 131.92,18.89 7.25,-32.01 16.75,-63.45 29.82,-92.86 29.16,-65.6 77.27,-118.61 137.06,-157.71 66.28,-43.33 142.59,-61.96 221.18,-61.96 21.31,0 42.61,1.63 63.73,4.45 23.13,3.09 46.03,7.82 68.47,14.22l265.41 75.73 -77.72 264.24c-0.58,2.2 -1.16,4.44 -1.7,6.72 71.49,-33.07 149.43,-49.27 230.34,-49.27 114.26,0 221.38,40.49 300.7,124.22 78.4,82.77 111.72,190.19 111.72,302.47 0,80.13 -14.07,157.9 -43.17,230.71 75.78,59.1 119.82,155.69 111.7,261.32l-0.35 4.63 -0.51 4.6c-6.46,58.09 -19.7,115.16 -40.23,169.9 -16.32,43.5 -35.54,86.21 -59.12,126.29l-1.25 2.13 -1.29 2.1c-46.09,75.21 -106.39,139.45 -181.5,186.21 -84.11,52.37 -179.81,75.01 -278.26,75.01 -96.39,0 -187.8,-23.91 -266.81,-72.97 -56.51,28.94 -119.42,44.42 -185.88,44.42 -112.01,0 -216.48,-40.84 -295.05,-121.54 -5.23,-5.38 -10.33,-10.86 -15.29,-16.44 -7.4,7.69 -15,15.21 -22.79,22.55 -86.09,81.23 -194.84,125.61 -313.27,125.61 -23.54,0 -46.83,-1.57 -69.72,-4.78 -6.44,7.63 -13.15,15.1 -20.15,22.4 -86.37,90.13 -202.11,133.28 -326.13,133.28 -190.86,0 -353.49,-90.31 -443.06,-260.37 -18.32,-34.76 -33.37,-70.86 -45.6,-107.86 -17.86,91.17 -73.49,166.98 -150.45,220.43 -68,47.22 -146.38,74.38 -229.56,74.38l-6.11 0c-63.18,0 -125,-13.87 -181.57,-42.15 -107.42,-53.71 -177.85,-157.06 -177.85,-278.51l0 -27.11 5.32 -26.58c12.36,-61.79 20.74,-125.4 28.24,-187.94 7.17,-59.69 12.78,-119.57 17.16,-179.54 -26.35,-5.73 -52.03,-14.4 -77.36,-25.12 -58.17,-24.61 -108.29,-62.92 -149.28,-110.7 -62.97,-71.91 -113.69,-152.11 -153.05,-238.31 -3.37,15.88 -6.58,31.8 -9.73,47.59 -7.8,39.02 -14.07,78.4 -19.28,117.89 145.04,20.32 242.79,147.25 242.79,295.4l0 18.67 -0.81 10.49c-5.08,65.98 -21.65,130.79 -44.22,192.85 -27.52,75.68 -67.89,145.29 -121.69,205.35 -80.09,89.4 -188.7,140.04 -308.93,140.04 -83.89,0 -163.51,-22.55 -231.38,-67.31 -61.47,41.36 -132.88,65.26 -211.12,65.26l-2.04 0c-55.13,0 -107.31,-11.92 -154.56,-34.01 -55.81,22.78 -116.69,34.01 -179.87,34.01 -122.32,0 -235.57,-45.35 -318.4,-136.08 -40.04,-43.86 -72.04,-93.31 -96.16,-146.8 -34.37,31.44 -73.87,57.49 -116.9,78.26 -30.87,14.9 -62.79,26.77 -95.44,35.9 -24.71,28.52 -52.37,54.65 -82.63,78.25 -94.81,73.91 -209.5,104.75 -328.4,104.75 -77.66,0 -153.26,-13.92 -223.02,-44.12 -55.42,22.65 -115.85,33.94 -178.69,33.94 -81.02,0 -156.85,-23.54 -220.12,-67.77 -21.72,14.18 -44.68,26.38 -68.3,37.11 -48.62,22.09 -100.51,34.73 -154.07,34.73 -86.3,0 -167.13,-31.95 -229.56,-89.86 -79.34,61.02 -174.16,93.94 -276.15,93.94 -77.15,0 -151.57,-16.93 -217.92,-52.52 -82.44,49.42 -175.66,70.87 -271.48,70.87 -76.06,0 -149.02,-14.89 -215.24,-45.27 -10.86,69.15 -26.04,137.27 -46.8,202.85 -46.04,145.38 -116.75,286.59 -229.93,391.44 -110.41,102.28 -245.78,162.65 -397.09,162.65 -140.1,0 -274.69,-42.58 -368.19,-151.99 -76.53,-89.55 -113.57,-200.08 -113.57,-317.53 0,-73.76 13,-146.56 35.37,-216.72 6.52,-20.46 13.57,-40.73 21.15,-60.81 -54.81,-9.77 -106.53,-29.96 -152.79,-60.46 -61.47,41.36 -132.88,65.26 -211.12,65.26l-2.04 0c-53.01,0 -103.28,-11.02 -149.07,-31.51 -50.4,21.93 -105.32,33.56 -162.91,33.56 -67.95,0 -133.12,-15.03 -191.41,-44.87 -63.96,29.44 -132.87,44.87 -204.19,44.87 -105.38,0 -203.9,-35.27 -280.55,-105.2 -75.53,67.59 -170.5,105.2 -274.09,105.2 -83.89,0 -163.51,-22.55 -231.38,-67.31 -61.47,41.36 -132.88,65.26 -211.12,65.26l-2.04 0c-124.03,0 -233.12,-60.37 -304.68,-160.99 -47.22,-66.4 -76.27,-142.88 -93.41,-222.12 -13.02,-59.73 -22.53,-120.62 -22.04,-181.89 0.01,-1.11 0.02,-2.23 0.04,-3.34 0.01,-2.11 -1.64,1.41 -2.42,2.53zm-128.23 -683.41c4.19,-2.67 8.35,-5.39 12.48,-8.17 29.62,-19.94 56.73,-43.08 79.38,-70.41 6.75,-8.15 7.05,-6.71 -3.29,-8 -26.29,-3.33 -52.75,-5.53 -79.23,-6.76 -4.31,21.37 -8.54,42.74 -12.73,64.13 -1.61,8.22 -3.2,16.47 -4.77,24.7 -2.54,13.35 -3.58,11.98 8.16,4.51z"></path>
  <path class="fil1 LGmCmibT_1" d="M5708.19 1911.28c-46.22,0 -83.95,-12.24 -113.17,-36.71 -29.23,-24.47 -51.65,-56.42 -67.3,-95.84 -13.35,-33.66 -23.22,-70.05 -29.63,-109.16 -3.89,15.75 -8.62,31.06 -14.21,45.95 -12.24,32.63 -25.15,60.5 -38.74,83.61 -25.82,42.14 -56.76,74.43 -92.78,96.86 -36.03,22.42 -80.54,33.64 -133.57,33.64 -65.25,0 -117.93,-20.05 -158.03,-60.16 -40.1,-40.1 -69.34,-89.72 -87.68,-148.85 -18.36,-59.14 -27.53,-117.26 -27.53,-174.35 0,-65.25 6.8,-130.85 20.39,-196.77 13.6,-65.94 35.01,-126.09 64.23,-180.47 29.23,-54.37 66.28,-98.22 111.14,-131.52 44.87,-33.31 97.88,-49.96 159.06,-49.96 43.49,0 77.49,12.92 101.96,38.74 24.47,25.83 36.7,63.9 36.7,114.19 0,67.97 -16.64,128.12 -49.95,180.46 -33.31,52.34 -75.12,94.83 -125.41,127.45 -50.3,32.63 -102.63,55.05 -157.02,67.3l0 10.19c0,55.74 5.78,107.74 17.34,156 11.56,48.26 30.58,87 57.09,116.23 26.51,29.22 61.52,43.85 105.02,43.85 53.02,0 93.8,-22.1 122.34,-66.28 28.56,-44.18 50.98,-100.26 67.29,-168.23 1.36,-5.44 3.74,-10.54 7.14,-15.29 2.06,-2.89 3.99,-4.9 5.81,-6.03 -1.83,-25.15 -2.75,-49.99 -2.75,-74.52 0,-33.98 1.36,-65.59 4.08,-94.82 2.71,-29.23 4.75,-54.72 6.11,-76.47 6.8,-57.1 21.76,-114.54 44.87,-172.31 23.11,-57.78 57.09,-106.03 101.96,-144.78 44.86,-38.74 104,-58.12 177.41,-58.12 50.29,0 89.38,16.32 117.25,48.94 27.87,32.63 47.58,75.12 59.13,127.45 11.56,52.34 17.34,107.06 17.34,164.15 0,57.1 -3.74,112.49 -11.22,166.19 -7.47,53.7 -15.98,96.86 -25.49,129.48 -10.87,42.14 -28.55,87.35 -53.02,135.61 -24.47,48.26 -54.72,89.38 -90.74,123.37 -36.03,33.98 -77.83,50.98 -125.41,50.98zm4991.84 150.9c-93.8,0 -160.75,-38.07 -200.85,-114.2 -40.1,-76.13 -60.16,-176.05 -60.16,-299.75 0,-65.25 4.75,-135.26 14.27,-210.04 9.52,-74.76 23.11,-152.93 40.78,-234.5 4.08,-16.31 12.24,-48.6 24.47,-96.86 12.24,-48.26 23.79,-103.31 34.67,-165.16 10.87,-61.86 16.31,-121.33 16.31,-178.43 0,-53.02 -7.13,-98.89 -21.4,-137.64 -14.28,-38.74 -41.13,-62.19 -80.55,-70.35 -5.44,-1.36 -11.22,-2.38 -17.33,-3.06 -6.12,-0.69 -12.58,-1.02 -19.38,-1.02 -48.94,0 -93.8,18.69 -134.59,56.07 -40.77,37.39 -77.48,86.67 -110.11,147.84 -32.62,61.18 -61.18,128.12 -85.65,200.86 -24.47,72.73 -45.2,145.12 -62.2,217.17 -16.99,72.05 -30.24,137.64 -39.76,196.77 -9.51,59.14 -16.31,105.7 -20.39,139.68 -5.44,54.38 -10.87,114.87 -16.32,181.48 -5.44,66.61 -11.55,139.35 -18.35,218.2 -1.36,19.03 -14.27,37.04 -38.74,54.04 -24.47,16.99 -48.94,25.49 -73.41,25.49l-6.11 0c-21.76,0 -41.47,-4.42 -59.14,-13.25 -17.67,-8.84 -26.51,-20.05 -26.51,-33.65 10.87,-54.38 21.41,-124.05 31.61,-209.01 10.19,-84.97 18.01,-175.03 23.44,-270.19 2.72,-47.59 6.12,-104 10.2,-169.26 4.08,-65.25 6.12,-133.23 6.12,-203.91 0,-81.56 -4.08,-162.79 -12.24,-243.68 -8.15,-80.89 -22.42,-155.99 -42.82,-225.33 -20.39,-69.33 -49.62,-125.74 -87.68,-169.25 -33.98,-38.07 -69.33,-57.1 -106.03,-57.1 -31.27,0 -59.81,14.96 -85.65,44.87 -25.83,29.91 -44.18,75.45 -55.05,136.62 -1.36,13.6 -3.07,28.21 -5.09,43.85 -2.05,15.63 -3.07,32.29 -3.07,49.96 0,62.54 7.82,130.5 23.45,203.91 15.63,73.41 37.05,142.74 64.23,207.99 27.19,65.25 58.46,117.59 93.81,157.02 2.71,2.71 4.08,6.11 4.08,10.2 0,4.08 -4.08,6.11 -12.24,6.11 -9.52,0 -23.11,-3.73 -40.78,-11.22 -17.67,-7.47 -33.99,-20.05 -48.94,-37.72 -59.81,-67.97 -106.04,-148.52 -138.66,-241.64 -32.63,-93.12 -48.94,-184.54 -48.94,-274.26 0,-59.81 7.82,-116.23 23.45,-169.26 15.63,-53.02 40.45,-97.2 74.43,-132.54 21.75,-23.11 45.54,-39.76 71.36,-49.96 25.83,-10.2 52.34,-15.29 79.53,-15.29 42.14,0 82.92,10.2 122.34,30.58 39.43,20.4 72.05,46.22 97.88,77.49 43.5,54.38 79.19,117.93 107.05,190.66 27.87,72.74 48.26,148.86 61.18,228.39 12.91,79.52 19.38,157.35 19.38,233.49 0,17.67 -0.34,35.34 -1.02,53.02 -0.69,17.67 -1.7,35.34 -3.07,53.02 23.11,-96.52 50.3,-187.26 81.57,-272.22 31.26,-84.97 66.95,-160.08 107.05,-225.33 40.1,-65.26 82.59,-115.55 127.45,-150.9 73.41,-55.74 143.42,-83.61 210.04,-83.61 73.41,0 133.56,31.27 180.46,93.81 46.89,62.53 70.36,145.45 70.36,248.77 0,29.91 -2.05,61.18 -6.12,93.81 -13.6,93.8 -33.98,191.34 -61.18,292.62 -27.18,101.27 -50.29,199.5 -69.33,294.66 -5.44,25.83 -11.9,63.56 -19.38,113.17 -7.47,49.62 -11.22,100.25 -11.22,151.92 0,43.49 4.42,85.3 13.26,125.41 8.83,40.1 24.46,72.38 46.89,96.85 22.43,24.47 53.36,36.71 92.79,36.71 31.26,0 56.75,-9.51 76.46,-28.55 19.72,-19.03 33.65,-42.83 41.81,-71.37 4.08,-13.59 10.87,-20.39 20.39,-20.39 8.16,0 12.24,4.75 12.24,14.27l0 4.08c0,40.78 -15.63,77.49 -46.89,110.12 -31.27,32.62 -74.1,48.94 -128.47,48.94zm415.99 -150.9c-46.22,0 -83.94,-12.24 -113.17,-36.71 -29.23,-24.47 -51.65,-56.42 -67.29,-95.84 -15.63,-39.42 -26.51,-82.58 -32.63,-129.48 -6.11,-46.9 -9.18,-92.78 -9.18,-137.64 0,-33.98 1.36,-65.59 4.08,-94.82 2.71,-29.23 4.76,-54.72 6.11,-76.47 6.8,-57.1 21.76,-114.54 44.87,-172.31 23.11,-57.78 57.09,-106.03 101.96,-144.78 44.86,-38.74 104,-58.12 177.41,-58.12 50.29,0 89.38,16.32 117.25,48.94 27.87,32.63 47.58,75.12 59.14,127.45 11.55,52.34 17.33,107.06 17.33,164.15 0,57.1 -3.74,112.49 -11.22,166.19 -7.47,53.7 -15.97,96.86 -25.49,129.48 -10.87,42.14 -28.55,87.35 -53.02,135.61 -24.47,48.26 -54.72,89.38 -90.74,123.37 -36.03,33.98 -77.83,50.98 -125.41,50.98zm67.29 -112.16c28.56,0 52.68,-13.6 72.39,-40.78 19.71,-27.19 36.36,-58.46 49.96,-93.81 13.6,-35.34 23.11,-65.25 28.55,-89.72 5.44,-21.75 9.85,-48.94 13.25,-81.56 3.4,-32.63 5.09,-67.29 5.09,-104 0,-55.74 -6.11,-110.46 -18.35,-164.15 -12.24,-53.7 -34.66,-91.43 -67.29,-113.17 -16.31,-10.87 -24.47,-23.79 -24.47,-38.74 0,-10.87 4.08,-21.07 12.24,-30.59 8.16,-9.51 14.95,-16.31 20.4,-20.39 -13.6,-9.52 -26.52,-14.27 -38.75,-14.27 -24.46,0 -46.22,13.59 -65.25,40.78 -19.03,27.18 -35,59.81 -47.92,97.87 -12.91,38.07 -23.11,74.43 -30.58,109.1 -7.47,34.67 -11.89,58.8 -13.25,72.39 -1.36,14.95 -3.4,37.72 -6.12,68.31 -2.71,30.59 -4.08,64.23 -4.08,100.94 0,46.23 3.07,92.45 9.18,138.66 6.11,46.22 17.33,84.96 33.65,116.23 16.31,31.27 40.1,46.9 71.36,46.9zm579.12 101.96c-40.78,0 -73.75,-12.92 -98.9,-38.74 -25.15,-25.83 -44.52,-58.45 -58.11,-97.88 -13.6,-39.42 -22.78,-80.2 -27.54,-122.34 -4.75,-42.15 -7.13,-79.53 -7.13,-112.16l0 -30.59c1.36,-16.31 2.72,-46.89 4.08,-91.76 1.36,-44.86 3.4,-97.54 6.12,-158.03 2.71,-60.5 6.8,-122.01 12.23,-184.55l-63.2 0c-10.88,0 -16.32,-6.8 -16.32,-20.4 0,-6.79 2.38,-13.93 7.14,-21.4 4.76,-7.47 10.53,-11.22 17.33,-11.22l59.14 0c5.44,-63.9 11.56,-121.67 18.35,-173.33 6.8,-51.65 14.96,-88.36 24.47,-110.11 6.8,-14.96 19.03,-28.21 36.71,-39.76 17.67,-11.56 41.47,-17.34 71.37,-17.34 8.15,0 17.33,0.68 27.53,2.04 10.2,1.36 20.05,3.4 29.56,6.12 -6.79,23.11 -14.62,64.91 -23.45,125.41 -8.83,60.49 -16.65,129.48 -23.44,206.97l163.12 0c12.24,0 18.36,7.47 18.36,22.43 0,6.8 -2.04,13.59 -6.12,20.39 -4.08,6.8 -10.19,10.2 -18.35,10.2l-163.13 0c-6.8,74.77 -12.24,151.92 -16.31,231.44 -4.08,79.53 -6.8,152.6 -8.16,219.22l0 46.89c0,35.35 1.36,74.09 4.08,116.23 2.71,42.14 9.51,78.17 20.39,108.08 10.87,29.91 27.18,44.87 48.94,44.87l2.04 0c10.87,0 22.77,-5.45 35.69,-16.32 12.91,-10.87 26.85,-31.27 41.8,-61.18 10.87,-19.02 20.73,-41.8 29.57,-68.31 8.84,-26.51 18.01,-54.72 27.53,-84.63 1.96,-4.42 3.93,-8.05 5.9,-10.86 -1.21,-14.8 -1.82,-29.53 -1.82,-44.19 0,-65.25 6.8,-130.85 20.4,-196.77 13.59,-65.94 35,-126.09 64.23,-180.47 29.23,-54.37 66.27,-98.22 111.13,-131.52 44.87,-33.31 97.88,-49.96 159.06,-49.96 43.5,0 77.49,12.92 101.96,38.74 24.47,25.83 36.71,63.9 36.71,114.19 0,67.97 -16.65,128.12 -49.96,180.46 -33.31,52.34 -75.11,94.83 -125.41,127.45 -50.29,32.63 -102.63,55.05 -157.01,67.3l0 10.19c0,55.74 5.78,107.74 17.33,156 11.56,48.26 30.59,87 57.1,116.23 26.51,29.22 61.51,43.85 105.01,43.85 53.02,0 93.8,-22.1 122.35,-66.28 28.55,-44.18 50.98,-100.26 67.29,-168.23 1.36,-5.44 3.74,-10.54 7.14,-15.29 3.39,-4.76 6.46,-7.14 9.17,-7.14 12.24,0 17.67,8.84 16.32,26.51 -4.08,36.71 -12.24,71.37 -24.48,104 -12.23,32.63 -25.15,60.5 -38.74,83.61 -25.82,42.14 -56.75,74.43 -92.78,96.86 -36.02,22.42 -80.54,33.64 -133.56,33.64 -65.25,0 -117.93,-20.05 -158.04,-60.16 -40.1,-40.1 -69.33,-89.72 -87.68,-148.85 -5.33,-17.13 -9.87,-34.19 -13.64,-51.15 -4.82,20.85 -11.49,42.99 -20.01,66.45 -16.32,44.87 -39.09,83.61 -68.32,116.23 -29.22,32.63 -64.23,48.94 -105.01,48.94zm342.58 -432.3c43.5,-10.87 81.56,-32.29 114.19,-64.23 32.63,-31.95 58.12,-69.67 76.47,-113.17 18.36,-43.5 27.53,-87.68 27.53,-132.54l0 -10.2c0,-24.47 -3.74,-47.58 -11.22,-69.34 -7.47,-21.75 -21.4,-32.62 -41.8,-32.62 -24.47,0 -45.88,11.89 -64.23,35.69 -18.36,23.79 -33.98,54.04 -46.9,90.74 -12.91,36.71 -23.44,74.76 -31.6,114.19 -8.16,39.42 -13.94,75.45 -17.33,108.07 -3.4,32.62 -5.1,56.42 -5.1,71.37l0 2.04zm-3230.02 432.3c-42.14,0 -76.13,-13.25 -101.96,-39.76 -25.83,-26.51 -45.88,-60.5 -60.16,-101.96 -14.27,-41.47 -24.13,-83.61 -29.56,-126.43 -5.44,-42.83 -8.16,-80.54 -8.16,-113.17 -16.31,61.18 -37.05,120.99 -62.2,179.44 -25.15,58.45 -52.67,106.38 -82.58,143.76 -29.91,37.39 -62.54,56.08 -97.88,56.08l-2.04 0c-32.63,0 -59.81,-15.3 -81.56,-45.88 -21.76,-30.58 -38.07,-71.03 -48.94,-121.33 -0.72,-3.33 -1.42,-6.67 -2.09,-10.03 -16.23,47.62 -39.32,88.69 -69.28,123.21 -31.27,36.02 -75.45,54.04 -132.55,54.04 -48.93,0 -87.68,-15.63 -116.22,-46.9 -28.56,-31.27 -49.63,-68.99 -63.22,-113.17 -13.59,-44.18 -21.75,-85.3 -24.46,-123.37 -2.72,-36.71 -4.76,-75.78 -6.12,-117.25 -1.36,-41.46 -2.04,-85.3 -2.04,-131.52 0,-84.29 2.38,-171.29 7.14,-261.02 4.75,-89.72 12.24,-177.06 22.42,-262.03 10.2,-84.97 22.78,-160.75 37.72,-227.37 8.16,-33.99 21.07,-72.73 38.74,-116.23 17.67,-43.5 40.79,-81.23 69.34,-113.17 28.55,-31.95 62.53,-47.92 101.96,-47.92 80.2,0 120.31,60.49 120.31,181.48 0,47.58 -7.82,115.9 -23.45,204.93 -15.63,89.05 -43.84,188.62 -84.62,298.74 -20.4,57.09 -44.52,114.54 -72.39,172.3 -27.87,57.78 -55.4,110.46 -82.58,158.04 -1.36,10.87 -2.05,22.09 -2.05,33.64 0,11.56 0,22.78 0,33.65 0,46.22 1.7,93.12 5.1,140.7 3.4,47.58 9.51,91.43 18.35,131.53 8.84,40.1 21.41,72.38 37.72,96.85 16.31,24.47 37.39,36.71 63.21,36.71 29.91,0 54.04,-12.57 72.39,-37.72 18.35,-25.15 32.29,-49.27 41.8,-72.39 5.44,-12.23 10.54,-25.82 15.29,-40.78 4.76,-14.95 9.85,-30.58 15.3,-46.89l0.04 -0.11c-1.39,-19.84 -2.08,-40.19 -2.08,-61.07l0 -20.4c0,-54.38 4.76,-114.53 14.28,-180.46 9.51,-65.94 26.51,-128.81 50.98,-188.62 24.47,-59.81 58.11,-109.1 100.94,-147.84 42.82,-38.73 97.53,-58.11 164.14,-58.11 25.83,0 49.28,5.78 70.36,17.33 21.07,11.56 36.36,28.21 45.88,49.96 9.51,-10.87 22.42,-19.71 38.74,-26.51 16.31,-6.8 36.02,-10.19 59.13,-10.19 8.16,0 17.34,0.68 27.53,2.03 10.2,1.36 20.74,3.4 31.61,6.12 -8.16,31.27 -17.67,74.09 -28.55,128.47 -10.87,54.38 -20.06,113.85 -27.54,178.43 -7.47,64.58 -11.22,127.45 -11.22,188.62l0 8.16c0,25.82 1.36,56.42 4.08,91.76 2.71,35.34 7.47,70.01 14.27,104 6.8,33.99 16.31,62.54 28.55,85.65 12.24,23.11 27.87,34.67 46.9,34.67l2.04 0c10.87,0 22.77,-5.45 35.69,-16.32 12.91,-10.87 26.85,-31.27 41.8,-61.18 20.4,-39.42 39.43,-90.4 57.1,-152.94 2.71,-12.24 8.15,-18.35 16.31,-18.35 6.8,0 10.2,8.15 10.2,24.47l0 8.15c-2.72,35.34 -12.24,75.45 -28.55,120.31 -16.32,44.87 -39.09,83.61 -68.32,116.23 -29.23,32.63 -64.23,48.94 -105.01,48.94zm-373.17 -169.26c21.76,0 41.81,-15.63 60.16,-46.89 18.36,-31.27 35.01,-69.34 49.96,-114.19 14.95,-44.87 27.87,-88.36 38.74,-130.5 16.31,-62.54 27.19,-126.09 32.63,-190.66 5.44,-64.58 17,-128.13 34.67,-190.67 -16.32,-17.66 -34.67,-26.5 -55.06,-26.5 -29.91,0 -60.49,14.95 -91.76,44.86 -31.27,29.91 -55.74,63.89 -73.41,101.96 -21.75,47.58 -37.72,103.32 -47.91,167.21 -10.2,63.9 -15.3,125.08 -15.3,183.53 0,14.95 0.34,29.91 1.02,44.86 0.69,14.96 1.7,29.23 3.07,42.83 2.71,40.78 10.53,70 23.44,87.68 12.92,17.67 26.17,26.5 39.76,26.5zm-481.23 -464.92c35.34,-72.05 67.97,-148.52 97.87,-229.4 29.91,-80.89 54.04,-160.75 72.39,-239.6 18.35,-78.85 27.53,-150.21 27.53,-214.11 0,-39.42 -3.06,-72.05 -9.18,-97.88 -6.11,-25.82 -17.33,-38.73 -33.64,-38.73 -14.96,0 -28.89,15.29 -41.81,45.88 -12.91,30.59 -24.8,71.03 -35.68,121.33 -10.87,50.29 -20.73,104.34 -29.57,162.11 -8.84,57.78 -16.31,114.88 -22.43,171.29 -6.11,56.42 -10.87,106.03 -14.27,148.86 -3.39,42.82 -5.77,73.75 -7.13,92.78 0,8.16 -0.34,18.69 -1.02,31.6 -0.69,12.92 -1.7,28.21 -3.06,45.88zm-962.48 646.41c-61.18,0 -112.49,-14.62 -153.95,-43.85 -32.21,-22.7 -51.9,-59.15 -59.09,-109.33 -14.62,32.06 -32.99,61.03 -55.1,86.9 -31.95,37.39 -76.47,56.08 -133.57,56.08 -38.06,0 -67.63,-14.62 -88.7,-43.84 -21.06,-29.23 -36.36,-66.96 -45.88,-113.17 -5.44,-25.83 -9.18,-51.66 -11.22,-77.49 -2.04,-25.83 -3.06,-51.66 -3.06,-77.5 0,-63.89 4.42,-127.45 13.25,-190.65 8.84,-63.21 13.25,-124.05 13.25,-182.51 0,-19.03 -2.38,-37.05 -7.14,-54.04 -4.75,-17 -15.29,-25.49 -31.6,-25.49 -16.32,0 -36.03,15.63 -59.14,46.9 -23.11,29.91 -46.89,73.75 -71.36,131.52 -24.47,57.78 -44.87,123.03 -61.18,195.76 -16.32,72.73 -24.47,147.16 -24.47,223.28 0,46.22 4.08,93.12 12.24,140.7 -9.52,6.8 -21.76,13.6 -36.71,20.39 -14.96,6.8 -28.55,10.2 -40.78,10.2 -19.03,0 -35.01,-7.13 -47.92,-21.4 -12.91,-14.27 -19.38,-38.41 -19.38,-72.39 0,-5.44 0,-11.22 0,-17.33 0,-6.12 0.69,-12.58 2.05,-19.38 2.71,-24.47 5.77,-58.45 9.17,-101.96 3.4,-43.5 6.12,-92.44 8.16,-146.82 2.04,-54.37 3.06,-108.75 3.06,-163.12 0,-57.1 -1.69,-111.14 -5.09,-162.11 -3.4,-50.98 -9.18,-91.42 -17.34,-121.33 10.88,-2.71 25.16,-10.19 42.83,-22.43 17.67,-12.23 36.02,-20.39 55.05,-24.46 4.08,-1.36 9.52,-2.04 16.32,-2.04 23.11,0 37.72,12.23 43.84,36.7 6.12,24.48 9.18,54.38 9.18,89.73 0,24.46 -0.34,53.35 -1.03,86.66 -0.68,33.31 -2.37,62.2 -5.09,86.67 14.95,-43.5 31.27,-81.22 48.94,-113.17 17.67,-31.95 36.71,-62.87 57.09,-92.78 20.4,-31.27 42.14,-62.2 65.25,-92.78 23.11,-30.59 54.39,-45.88 93.81,-45.88 40.78,0 67.29,13.6 79.52,40.78 12.24,27.19 18.36,57.1 18.36,89.72 0,17.67 -0.69,34.33 -2.04,49.96 -1.36,15.63 -2.72,30.25 -4.08,43.85 0,9.51 -2.04,34.33 -6.11,74.43 -4.08,40.1 -8.16,87 -12.24,140.7 -4.08,53.69 -6.12,107.73 -6.12,162.11 0,14.96 0.69,35.69 2.04,62.2 1.36,26.51 4.08,53.03 8.16,79.53 4.08,26.51 11.22,48.93 21.41,67.29 10.2,18.35 24.13,27.53 41.8,27.53 10.87,0 23.11,-4.08 36.71,-12.24 14.95,-10.87 28.2,-25.15 39.76,-42.82 11.55,-17.67 20.73,-35.34 27.53,-53.03 5.44,-12.23 10.87,-25.82 16.32,-40.78 2.81,-7.72 5.44,-15.64 7.88,-23.74 -5.26,-13.73 -7.89,-30.96 -7.89,-51.71 0,-16.31 2.72,-30.58 8.16,-42.82 5.44,-12.24 13.6,-18.36 24.47,-18.36l2.04 0c4.08,0 9.51,4.76 16.31,14.28 17.67,-50.3 33.99,-102.3 48.94,-156 14.96,-53.69 28.55,-101.61 40.78,-143.76 13.6,-48.94 30.94,-101.61 52.01,-158.03 21.06,-56.42 54.71,-99.58 100.94,-129.48 35.34,-23.12 73.4,-34.67 114.18,-34.67 2.72,0 6.12,0.34 10.2,1.02 4.08,0.68 7.48,1.02 10.2,1.02 10.87,1.36 16.31,6.11 16.31,14.27 0,9.51 -4.75,14.27 -14.27,14.27 -14.95,1.36 -25.82,13.25 -32.62,35.69 -6.8,22.43 -10.2,47.92 -10.2,76.47 0,6.8 0,14.27 0,22.43 0,8.15 0.68,15.63 2.04,22.42 5.44,44.87 17.67,94.15 36.71,147.84 19.03,53.7 37.04,107.39 54.04,161.1 17,53.69 25.49,103.65 25.49,149.87l0 10.2c0,17.67 -1.02,36.71 -3.06,57.1 -2.04,20.39 -6.46,40.1 -13.25,59.14 19.03,-1.36 37.72,-3.74 56.07,-7.14 18.36,-3.4 35.01,-7.82 49.96,-13.25 19.03,-8.16 34.33,-17.67 45.88,-28.55 11.55,-10.87 21.41,-23.11 29.56,-36.71 2.72,-4.08 6.12,-6.12 10.2,-6.12 10.87,0 16.31,6.8 16.31,20.4 0,4.08 -1.36,8.84 -4.08,14.27 -14.96,29.91 -42.14,54.38 -81.56,73.41 -39.43,19.03 -85.65,29.91 -138.66,32.62 -19.03,43.5 -48.61,80.9 -88.7,112.16 -40.1,31.27 -93.46,46.9 -160.08,46.9zm97.88 -230.42c2.71,-14.96 4.75,-30.59 6.11,-46.9 1.36,-16.31 2.04,-32.63 2.04,-48.94 0,-25.83 -1.35,-52 -4.08,-78.51 -2.72,-26.51 -6.12,-52.67 -10.2,-78.51 -9.51,-63.89 -20.73,-122.35 -33.64,-175.37 -12.92,-53.02 -19.38,-100.6 -19.38,-142.74 0,-21.75 2.04,-41.47 6.12,-59.14 -6.8,0 -14.28,10.2 -22.43,30.59 -8.16,20.39 -16.32,43.49 -24.47,69.33 -8.16,25.83 -14.96,48.94 -20.4,69.34 -16.31,58.45 -33.98,118.61 -53.02,180.46 -19.03,61.85 -39.42,122.69 -61.18,182.5 14.96,9.52 32.29,19.03 52,28.55 19.71,9.52 39.09,18.36 58.12,26.51 17.67,8.16 37.04,15.98 58.11,23.45 21.08,7.47 43.16,13.94 66.28,19.38zm-152.94 163.13l8.15 0c24.47,-2.72 48.94,-11.22 73.41,-25.49 24.47,-14.27 42.14,-36.37 53.02,-66.28 0,-1.35 0.34,-2.38 1.03,-3.06 0.68,-0.69 1.01,-1.69 1.01,-3.06 -50.29,-4.08 -97.53,-10.54 -141.72,-19.38 -44.18,-8.83 -79.87,-20.04 -107.05,-33.64 0,4.08 -0.34,8.15 -1.02,12.24 -0.69,4.08 -1.02,7.47 -1.02,10.19 0,40.79 10.53,72.39 31.6,94.83 21.07,22.43 48.6,33.65 82.59,33.65zm-4726.76 55.05c-42.14,0 -76.13,-13.25 -101.96,-39.76 -25.83,-26.51 -45.88,-60.5 -60.16,-101.96 -14.27,-41.47 -24.13,-83.61 -29.56,-126.43 -5.44,-42.83 -8.16,-80.54 -8.16,-113.17 -16.31,61.18 -37.05,120.99 -62.2,179.44 -25.15,58.45 -52.67,106.38 -82.58,143.76 -29.91,37.39 -62.54,56.08 -97.88,56.08l-2.04 0c-32.63,0 -59.81,-15.3 -81.56,-45.88 -21.76,-30.58 -38.07,-71.03 -48.94,-121.33 -10.87,-50.29 -16.32,-104.67 -16.32,-163.12l0 -20.4c0,-54.38 4.76,-114.53 14.28,-180.46 9.51,-65.94 26.51,-128.81 50.98,-188.62 24.47,-59.81 58.11,-109.1 100.94,-147.84 42.82,-38.73 97.53,-58.11 164.14,-58.11 25.83,0 49.28,5.78 70.36,17.33 21.07,11.56 36.36,28.21 45.88,49.96 9.51,-10.87 22.42,-19.71 38.74,-26.51 16.31,-6.8 36.02,-10.19 59.13,-10.19 8.16,0 17.34,0.68 27.53,2.03 10.2,1.36 20.74,3.4 31.61,6.12 -8.16,31.27 -17.67,74.09 -28.55,128.47 -10.87,54.38 -20.06,113.85 -27.54,178.43 -7.47,64.58 -11.22,127.45 -11.22,188.62l0 8.16c0,25.82 1.36,56.42 4.08,91.76 2.72,35.34 7.47,70.01 14.27,104 6.8,33.99 16.31,62.54 28.55,85.65 12.24,23.11 27.87,34.67 46.9,34.67l2.04 0c10.87,0 22.77,-5.45 35.69,-16.32 12.91,-10.87 26.85,-31.27 41.8,-61.18 9.91,-19.15 19.51,-41.05 28.77,-65.67 18.13,-55.66 33.69,-115.67 46.68,-180.05 14.96,-74.09 26.51,-145.8 34.67,-215.13 8.15,-69.33 12.24,-127.1 12.24,-173.33l0 -22.42c-33.99,-14.96 -58.8,-36.71 -74.43,-65.25 -15.63,-28.55 -23.45,-55.74 -23.45,-81.57 0,-19.03 3.74,-36.02 11.22,-50.98 7.47,-14.95 18.69,-22.42 33.65,-22.42l4.08 0c19.03,0 36.02,13.24 50.98,39.76 14.95,26.51 27.18,55.73 36.71,87.68 9.51,31.95 14.27,57.44 14.27,76.47 16.31,12.24 34.33,21.07 54.04,26.52 19.71,5.44 36.36,8.15 49.96,8.15 17.67,0 29.23,-2.71 34.67,-8.15 10.87,-10.88 24.13,-26.52 39.76,-46.9 15.63,-20.4 40.45,-30.59 74.43,-30.59 23.11,0 50.98,6.8 83.6,20.4 -16.31,33.98 -31.26,72.39 -44.86,115.21 -13.6,42.82 -25.15,88.03 -34.67,135.61 -1.35,10.87 -4.76,32.62 -10.2,65.25 -5.44,32.62 -10.2,70.01 -14.27,112.16 -4.08,42.14 -6.11,84.29 -6.11,126.43 0,59.81 6.46,112.49 19.37,158.03 12.92,45.54 37.05,68.32 72.39,68.32 21.75,0 40.78,-8.85 57.09,-26.51 16.32,-17.68 30.59,-39.77 42.83,-66.28 12.24,-26.51 22.43,-52.34 30.58,-77.49 8.16,-25.15 14.27,-45.2 18.36,-60.16 0.25,-1.16 0.54,-2.27 0.84,-3.33 -1.93,-24.61 -2.89,-47.29 -2.89,-68.04l0 -30.59c1.36,-16.31 2.72,-46.89 4.08,-91.76 1.36,-44.86 3.39,-97.54 6.11,-158.03 2.72,-60.5 6.8,-122.01 12.24,-184.55l-63.21 0c-10.87,0 -16.31,-6.8 -16.31,-20.4 0,-6.79 2.38,-13.93 7.14,-21.4 4.75,-7.47 10.53,-11.22 17.33,-11.22l59.14 0c5.43,-63.9 11.55,-121.67 18.35,-173.33 6.8,-51.65 14.96,-88.36 24.47,-110.11 6.8,-14.96 19.03,-28.21 36.71,-39.76 17.67,-11.56 41.47,-17.34 71.36,-17.34 8.16,0 17.34,0.68 27.53,2.04 10.2,1.36 20.05,3.4 29.57,6.12 -6.8,23.11 -14.62,64.91 -23.45,125.41 -8.84,60.49 -16.65,129.48 -23.45,206.97l163.13 0c12.24,0 18.36,7.47 18.36,22.43 0,6.8 -2.05,13.59 -6.12,20.39 -4.08,6.8 -10.2,10.2 -18.35,10.2l-163.13 0c-6.8,74.77 -12.24,151.92 -16.32,231.44 -4.08,79.53 -6.79,152.6 -8.15,219.22l0 46.89c0,35.35 1.36,74.09 4.08,116.23 2.72,42.14 9.52,78.17 20.4,108.08 10.87,29.91 27.18,44.87 48.93,44.87l2.05 0c10.87,0 22.77,-5.45 35.69,-16.32 12.91,-10.87 26.84,-31.27 41.8,-61.18 10.87,-19.02 20.73,-41.8 29.56,-68.31 6.24,-18.73 12.66,-38.31 19.24,-58.74 -1.27,-19.02 -1.9,-38.53 -1.9,-58.51l0 -20.4c0,-54.38 4.75,-114.53 14.27,-180.46 9.51,-65.94 26.51,-128.81 50.98,-188.62 24.47,-59.81 58.11,-109.1 100.94,-147.84 42.82,-38.73 97.54,-58.11 164.15,-58.11 25.82,0 49.27,5.78 70.35,17.33 21.07,11.56 36.37,28.21 45.88,49.96 9.51,-10.87 22.43,-19.71 38.74,-26.51 16.31,-6.8 36.02,-10.19 59.14,-10.19 8.15,0 17.33,0.68 27.53,2.03 10.2,1.36 20.73,3.4 31.6,6.12 -8.16,31.27 -17.67,74.09 -28.55,128.47 -10.87,54.38 -20.05,113.85 -27.53,178.43 -7.48,64.58 -11.22,127.45 -11.22,188.62l0 8.16c0,25.82 1.36,56.42 4.08,91.76 2.72,35.34 7.48,70.01 14.27,104 6.8,33.99 16.32,62.54 28.56,85.65 12.23,23.11 27.86,34.67 46.89,34.67l2.05 0c10.87,0 22.77,-5.45 35.68,-16.32 12.92,-10.87 26.85,-31.27 41.81,-61.18 20.39,-39.42 39.42,-90.4 57.09,-152.94 0.56,-2.54 1.25,-4.82 2.05,-6.84l-0.01 -3.36c0,-108.75 12.58,-212.07 37.72,-309.95 25.15,-97.88 68.99,-176.05 131.52,-234.5 27.19,-25.83 55.4,-44.18 84.63,-55.06 29.23,-10.87 56.76,-16.31 82.58,-16.31 31.27,0 60.16,6.46 86.67,19.37 26.52,12.92 47.92,29.57 64.23,49.96 16.32,-19.02 34.67,-30.92 55.06,-35.69 20.39,-4.75 38.74,-7.13 55.05,-7.13l24.47 0c20.4,0 30.58,4.08 30.58,12.24 0,2.72 -2.71,6.8 -8.15,12.24 -13.6,12.24 -24.13,36.03 -31.61,71.37 -7.47,35.34 -12.57,77.14 -15.29,125.41 -2.71,48.26 -4.08,98.22 -4.08,149.88 0,58.45 0.68,114.53 2.04,168.23 1.36,53.69 2.04,95.49 2.04,125.4l0 22.43c38.07,-23.11 72.05,-41.8 101.96,-56.07 29.91,-14.27 52.34,-21.41 67.29,-21.41 2.72,0 4.76,0.34 6.12,1.02 1.35,0.69 2.71,1.02 4.08,1.02 6.8,1.36 10.2,6.12 10.2,14.27 0,5.45 -1.36,10.54 -4.08,15.3 -2.72,4.75 -6.8,7.13 -12.24,7.13 -16.32,1.36 -38.4,9.85 -66.28,25.49 -27.86,15.63 -53.35,33.31 -76.46,53.02 -23.12,19.72 -34.67,37.05 -34.67,52.01l0 32.62c0,187.6 -19.38,342.58 -58.12,464.93 -38.74,122.34 -90.4,213.43 -154.97,273.24 -64.58,59.81 -134.92,89.72 -211.06,89.72 -74.76,0 -128.12,-18.69 -160.07,-56.07 -31.95,-37.38 -47.92,-83.94 -47.92,-139.68 0,-42.14 7.47,-86.67 22.43,-133.57 14.95,-46.89 33.98,-93.45 57.09,-139.68 31.27,-61.18 72.74,-117.59 124.39,-169.25 51.66,-51.65 104.68,-97.54 159.06,-137.64 54.37,-40.1 101.27,-72.39 140.69,-96.86l0 -14.27c0,-24.46 -1.01,-57.78 -3.06,-99.91 -2.04,-42.14 -4.42,-86.33 -7.13,-132.55 -2.72,-46.22 -5.44,-87 -8.16,-122.35 -2.71,9.52 -5.44,18.69 -8.15,27.54 -2.72,8.84 -5.45,17.33 -8.16,25.49 -12.24,46.22 -26.51,95.84 -42.82,148.85 -16.32,53.03 -35.35,102.3 -57.1,147.84 -21.75,45.54 -46.56,82.92 -74.43,112.16 -27.87,29.23 -58.8,43.84 -92.78,43.84 -35.34,0 -63.9,-10.87 -85.65,-32.63 -21.75,-21.75 -38.06,-49.27 -48.94,-82.58 -9.52,-29.16 -16.43,-59.1 -20.75,-89.83 -3.45,11.58 -7.4,23.51 -11.87,35.8 -16.31,44.87 -39.09,83.61 -68.32,116.23 -29.22,32.63 -64.22,48.94 -105.01,48.94 -42.14,0 -76.13,-13.25 -101.96,-39.76 -25.83,-26.51 -45.88,-60.5 -60.16,-101.96 -14.27,-41.47 -24.13,-83.61 -29.56,-126.43 -5.44,-42.83 -8.16,-80.54 -8.16,-113.17 -16.31,61.18 -37.04,120.99 -62.19,179.44 -25.16,58.45 -52.68,106.38 -82.59,143.76 -29.91,37.39 -62.54,56.08 -97.88,56.08l-2.04 0c-32.62,0 -59.81,-15.3 -81.56,-45.88 -21.76,-30.58 -38.07,-71.03 -48.94,-121.33 -0.87,-4.01 -1.69,-8.05 -2.49,-12.11 -1.79,5.33 -3.68,10.73 -5.67,16.19 -16.31,44.87 -39.09,83.61 -68.31,116.23 -29.23,32.63 -64.23,48.94 -105.01,48.94 -40.79,0 -73.75,-12.92 -98.9,-38.74 -25.16,-25.83 -44.52,-58.45 -58.12,-97.88 -6.3,-18.26 -11.64,-36.82 -16.05,-55.67 -5.57,23.67 -13.47,45.28 -23.71,64.84 -22.43,42.82 -51.32,74.76 -86.67,95.84 -35.34,21.08 -72.73,31.61 -112.16,31.61 -44.86,0 -80.2,-14.62 -106.03,-43.85 -25.83,-29.22 -43.84,-67.29 -54.04,-114.19 -10.2,-46.89 -15.29,-97.53 -15.29,-151.92 0,-58.45 3.73,-115.89 11.22,-172.3 7.47,-56.42 15.63,-106.38 24.46,-149.88 8.85,-43.49 15.3,-73.41 19.38,-89.72 -38.07,-2.71 -67.97,-8.84 -89.72,-18.35 -21.76,-9.52 -40.1,-21.07 -55.05,-34.67 -5.45,65.25 -13.94,135.26 -25.49,210.04 -11.56,74.76 -24.81,146.47 -39.77,215.12 -11.28,51.83 -23.35,98.04 -36.19,138.63 -4.08,14.71 -9,30.02 -14.78,45.92 -16.32,44.87 -39.09,83.61 -68.32,116.23 -29.23,32.63 -64.23,48.94 -105.01,48.94zm-1288.74 110.12c-31.27,0 -62.54,-12.24 -93.81,-36.71 -31.27,-24.47 -53.7,-61.86 -67.29,-112.16 -13.6,-51.66 -23.12,-111.14 -28.55,-178.43 -5.45,-67.3 -8.16,-138.32 -8.16,-213.09 0,-106.03 4.76,-214.46 14.27,-325.25 9.51,-110.79 22.09,-215.81 37.72,-315.04 15.63,-99.24 32.29,-182.84 49.96,-250.82 -23.11,4.08 -44.18,7.47 -63.21,10.2 -19.03,2.71 -35.34,5.44 -48.94,8.15 -69.33,12.24 -132.21,26.52 -188.62,42.83 -56.42,16.31 -101.27,34.66 -134.58,55.05 -33.31,20.4 -49.96,43.5 -49.96,69.34 0,8.15 3.39,19.02 10.2,32.62 2.71,5.44 4.08,10.2 4.08,14.27 0,9.52 -4.08,14.27 -12.24,14.27 -10.87,0 -24.47,-8.15 -40.78,-24.47 -12.24,-10.87 -22.78,-28.55 -31.61,-53.02 -8.84,-24.47 -13.25,-48.93 -13.25,-73.41 0,-35.34 9.52,-62.53 28.55,-81.56 24.47,-24.47 71.72,-46.22 141.73,-65.25 70,-19.03 149.19,-34.67 237.55,-46.9 31.27,-4.08 73.41,-8.15 126.43,-12.24 53.02,-4.08 110.79,-6.11 173.33,-6.11 80.2,0 163.13,4.76 248.77,14.27 85.65,9.51 165.51,25.82 239.6,48.94 74.09,23.11 134.25,56.07 180.47,98.89 46.22,42.83 69.33,97.54 69.33,164.15 0,74.77 -17.67,147.84 -53.02,219.21 -35.34,71.37 -84.97,135.61 -148.86,192.71 -63.89,57.09 -138.66,102.3 -224.3,135.61 -85.65,33.31 -178.77,49.96 -279.37,49.96 -21.75,0 -43.16,-0.69 -64.22,-2.05 -21.08,-1.35 -43.17,-4.08 -66.28,-8.15 -2.72,25.82 -4.76,51.65 -6.11,77.49 -1.36,25.82 -2.72,50.98 -4.08,75.45 0,13.6 -0.33,28.55 -1.02,44.86 -0.68,16.31 -1.02,33.31 -1.02,50.98 0,44.87 2.38,90.41 7.14,136.63 4.75,46.22 13.93,84.62 27.53,115.21 13.6,30.58 33.98,45.88 61.18,45.88 13.59,0 27.87,-2.72 42.82,-8.16 14.96,-5.44 24.47,-10.87 28.55,-16.31l14.27 0c-2.71,36.71 -15.29,64.58 -37.72,83.6 -22.42,19.03 -47.91,28.56 -76.46,28.56zm-46.9 -717.79l26.51 0c80.2,0 162.45,-13.25 246.73,-39.76 84.29,-26.51 161.77,-63.55 232.47,-111.14 70.69,-47.58 127.78,-103.65 171.28,-168.23 43.5,-64.58 65.25,-134.92 65.25,-211.06 0,-55.73 -21.4,-98.56 -64.23,-128.47 -42.82,-29.91 -98.22,-50.64 -166.19,-62.2 -67.97,-11.55 -140.02,-17.33 -216.15,-17.33 -29.91,0 -59.81,0.69 -89.72,2.04 -29.91,1.36 -59.14,3.4 -87.68,6.12l6.11 12.23c-4.08,17.68 -11.22,49.96 -21.4,96.86 -10.2,46.9 -21.76,103.32 -34.67,169.26 -12.91,65.93 -25.49,137.64 -37.72,215.12 -12.24,77.5 -22.42,156.34 -30.58,236.55zm962.47 438.41c21.76,0 41.81,-15.63 60.16,-46.89 18.36,-31.27 35.01,-69.34 49.96,-114.19 14.95,-44.87 27.87,-88.36 38.74,-130.5 16.31,-62.54 27.19,-126.09 32.63,-190.66 5.44,-64.58 17,-128.13 34.67,-190.67 -16.32,-17.66 -34.67,-26.5 -55.06,-26.5 -29.91,0 -60.49,14.95 -91.76,44.86 -31.27,29.91 -55.74,63.89 -73.41,101.96 -21.75,47.58 -37.72,103.32 -47.91,167.21 -10.2,63.9 -15.3,125.08 -15.3,183.53 0,14.95 0.34,29.91 1.03,44.86 0.68,14.96 1.69,29.23 3.06,42.83 2.71,40.78 10.53,70 23.44,87.68 12.92,17.67 26.17,26.5 39.76,26.5zm1706.78 0c21.75,0 41.8,-15.63 60.16,-46.89 18.35,-31.27 35,-69.34 49.96,-114.19 14.95,-44.87 27.86,-88.36 38.73,-130.5 16.32,-62.54 27.19,-126.09 32.63,-190.66 5.44,-64.58 17,-128.13 34.67,-190.67 -16.32,-17.66 -34.67,-26.5 -55.05,-26.5 -29.91,0 -60.5,14.95 -91.77,44.86 -31.27,29.91 -55.73,63.89 -73.4,101.96 -21.76,47.58 -37.73,103.32 -47.92,167.21 -10.2,63.9 -15.3,125.08 -15.3,183.53 0,14.95 0.34,29.91 1.03,44.86 0.68,14.96 1.69,29.23 3.06,42.83 2.72,40.78 10.53,70 23.45,87.68 12.91,17.67 26.17,26.5 39.76,26.5zm697.39 866.65c66.6,0 122.34,-31.95 167.21,-95.84 44.86,-63.89 79.87,-153.95 105.01,-270.19 25.15,-116.23 41.12,-253.87 47.92,-412.92 -21.75,12.24 -55.06,37.38 -99.92,75.44 -44.87,38.07 -91.43,85.3 -139.68,141.73 -48.26,56.42 -88.7,120.65 -121.33,192.7 -17.67,39.42 -31.26,77.82 -40.78,115.21 -9.51,37.38 -14.27,71.71 -14.27,102.98 0,44.86 8.49,81.22 25.49,109.1 17,27.86 40.44,41.8 70.36,41.8zm69.33 -858.49l6.12 0c25.82,0 49.27,-16.99 70.35,-50.98 21.07,-33.98 40.1,-77.14 57.09,-129.48 17,-52.34 31.95,-106.72 44.87,-163.13 12.91,-56.42 23.45,-107.39 31.6,-152.94 8.16,-45.54 14.28,-78.51 18.36,-98.9 5.44,-32.62 14.96,-59.81 28.55,-81.56 -14.95,-19.03 -36.02,-28.55 -63.2,-28.55 -40.79,0 -75.79,12.91 -105.02,38.74 -29.23,25.83 -53.7,59.81 -73.41,101.96 -19.71,42.14 -35.34,86.67 -46.89,133.56 -11.56,46.9 -20.05,91.77 -25.49,134.59 -5.45,42.82 -8.16,78.51 -8.16,107.05 0,9.52 0.34,24.47 1.02,44.87 0.68,20.39 3.06,41.8 7.14,64.23 4.08,22.43 10.53,41.46 19.37,57.09 8.84,15.63 21.41,23.45 37.72,23.45zm732.06 -271.2c43.49,-10.87 81.56,-32.29 114.18,-64.23 32.63,-31.95 58.12,-69.67 76.48,-113.17 18.35,-43.5 27.53,-87.68 27.53,-132.54l0 -10.2c0,-24.47 -3.74,-47.58 -11.22,-69.34 -7.47,-21.75 -21.41,-32.62 -41.8,-32.62 -24.47,0 -45.88,11.89 -64.23,35.69 -18.36,23.79 -33.99,54.04 -46.9,90.74 -12.91,36.71 -23.45,74.76 -31.61,114.19 -8.15,39.42 -13.93,75.45 -17.33,108.07 -3.4,32.62 -5.09,56.42 -5.09,71.37l0 2.04zm666.8 330.34c28.55,0 52.68,-13.6 72.39,-40.78 19.71,-27.19 36.36,-58.46 49.96,-93.81 13.59,-35.34 23.11,-65.25 28.55,-89.72 5.44,-21.75 9.85,-48.94 13.25,-81.56 3.4,-32.63 5.09,-67.29 5.09,-104 0,-55.74 -6.11,-110.46 -18.35,-164.15 -12.24,-53.7 -34.66,-91.43 -67.29,-113.17 -16.32,-10.87 -24.47,-23.79 -24.47,-38.74 0,-10.87 4.08,-21.07 12.24,-30.59 8.16,-9.51 14.95,-16.31 20.39,-20.39 -13.59,-9.52 -26.51,-14.27 -38.74,-14.27 -24.47,0 -46.22,13.59 -65.25,40.78 -19.03,27.18 -35,59.81 -47.92,97.87 -12.91,38.07 -23.11,74.43 -30.58,109.1 -7.47,34.67 -11.89,58.8 -13.25,72.39 -1.36,14.95 -3.4,37.72 -6.12,68.31 -2.71,30.59 -4.08,64.23 -4.08,100.94 0,46.23 3.06,92.45 9.18,138.66 6.11,46.22 17.33,84.96 33.65,116.23 16.31,31.27 40.1,46.9 71.36,46.9z"></path>
 </g>
<style data-made-with="vivus-instant">.LGmCmibT_0{stroke-dasharray:37773 37775;stroke-dashoffset:37774;animation:LGmCmibT_draw_0 16200ms linear 0ms infinite,LGmCmibT_fade 16200ms linear 0ms infinite;}.LGmCmibT_1{stroke-dasharray:89980 89982;stroke-dashoffset:89981;animation:LGmCmibT_draw_1 16200ms linear 0ms infinite,LGmCmibT_fade 16200ms linear 0ms infinite;}@keyframes LGmCmibT_draw{100%{stroke-dashoffset:0;}}@keyframes LGmCmibT_fade{0%{stroke-opacity:1;}97.53086419753086%{stroke-opacity:1;}100%{stroke-opacity:0;}}@keyframes LGmCmibT_draw_0{4.938271604938271%{stroke-dashoffset: 37774}54.32098765432099%{ stroke-dashoffset: 0;}100%{ stroke-dashoffset: 0;}}@keyframes LGmCmibT_draw_1{29.629629629629626%{stroke-dashoffset: 89981}79.01234567901234%{ stroke-dashoffset: 0;}100%{ stroke-dashoffset: 0;}}</style></svg>
